<?xml version="1.0" encoding="utf-8"?>
<!-- Generator: Adobe Illustrator 25.2.3, SVG Export Plug-In . SVG Version: 6.00 Build 0)  -->
<svg version="1.1" id="Layer_1" xmlns="http://www.w3.org/2000/svg" xmlns:xlink="http://www.w3.org/1999/xlink" x="0px" y="0px"
	 viewBox="0 0 1000 1000" style="enable-background:new 0 0 1000 1000;" xml:space="preserve">
<style type="text/css">
	.st0{fill:#FFFFFF;}
	.st1{fill-rule:evenodd;clip-rule:evenodd;fill:#FFFFFF;stroke:#010202;stroke-width:5;stroke-miterlimit:10;}
</style>
<path class="st0" d="M878.4,580.8H929l-47.5-17.1l-118-42.9c0.3-5.1,0.4-10.2,0.4-15.4c0-39-8.2-76-23-109.5l98.7-82.8l38.7-32.5
	L831,297.9l-121.5,44.2c-24.9-33-57.1-60.2-94.3-79.1l22.5-127.9l8.8-49.8l-25.3,43.8l-64.8,112.2c-20.6-5-42.1-7.6-64.2-7.6
	c-21.3,0-42.1,2.5-62,7.1l-63-109.2L342,88l8.8,49.8l21.8,123.8c-38.8,19.1-72.4,47.1-98.1,81.5l-117-42.6l-47.5-17.3l38.7,32.5
	l95.1,79.8c-14.9,33.6-23.2,70.9-23.2,110.1c0,4.9,0.1,9.7,0.4,14.5l-120.8,44L58.4,579l0.7,1.9h44.2h127.9
	c12.3,42,34.7,80.9,64.4,112.1l-60.4,104.7l-25.3,43.9l38.7-32.4l92.7-77.7c35.6,23.8,77.2,39.5,122,44.3l22,124.7l8.2,46.6l1.1,0.2
	l8.3-46.8l22.1-125.1c43.7-5.2,84.2-20.8,118.9-44.2l96,80.6l38.7,32.5l-25.3-44l-62.8-108.8c29-30.9,50.8-68.4,62.9-110.4H878.4z
	 M830.2,562.8h-72.5c1.8-8,3.2-16.4,4.2-24.8L830.2,562.8z M757.7,506c0,4.2-0.1,8.4-0.3,12.6l-110.2-40.1l-15.3,12.8l124,44.8
	c-1.1,9.2-2.6,18.7-4.5,26.7H619.7h-45.1c0,0,0,0.3,0,0.3c4.2-5.8,7.9-12,10.8-18.6l0,0l9.3,16.2h20l-22.3-38.5
	c0.2-1.1,0.4-2.2,0.6-3.3c0,0,0,0,0,0.1l54.3-44.6l88.5-74.2C749.8,432.7,757.7,468.4,757.7,506z M492.7,598.9
	c-52.5,0-95.1-42.6-95.1-95.1c0-52.5,42.6-95.1,95.1-95.1c52.5,0,95.1,42.6,95.1,95.1C587.8,556.3,545.2,598.9,492.7,598.9z
	 M400.4,544.7L400.4,544.7c0-0.1-0.1-0.2-0.1-0.2C400.3,544.5,400.3,544.6,400.4,544.7z M400.2,463c0.1-0.2,0.2-0.4,0.2-0.5
	C400.3,462.6,400.2,462.8,400.2,463z M402.7,457.7c0.1-0.1,0.1-0.3,0.2-0.4C402.8,457.4,402.7,457.6,402.7,457.7z M509,403.6
	c0.4,0.1,0.8,0.1,1.1,0.2C509.8,403.8,509.4,403.7,509,403.6z M514.7,404.7c0.3,0.1,0.7,0.2,1,0.2
	C515.4,404.9,515,404.8,514.7,404.7z M520.5,406.2c0.2,0.1,0.4,0.1,0.6,0.2C520.8,406.3,520.7,406.2,520.5,406.2z M567,572.6
	C567,572.6,567,572.7,567,572.6C567,572.7,567,572.6,567,572.6z M563,576.7c-0.1,0.1-0.2,0.2-0.3,0.3
	C562.8,576.9,562.9,576.8,563,576.7z M594,509.8c-0.1,1.1-0.1,2.2-0.2,3.2C593.8,511.9,593.9,510.9,594,509.8z M594.1,499.5
	c0.1,1.4,0.1,2.7,0.1,4.1c0,1.6,0,3.1-0.1,4.7c0.1-1.6,0.1-3.1,0.1-4.7C594.2,502.2,594.1,500.9,594.1,499.5z M593.1,518.4
	c0.2-1.2,0.3-2.5,0.5-3.8C593.4,515.9,593.3,517.1,593.1,518.4z M791.5,330l-58.6,49.2c-4.1-7.9-8.7-15.5-13.5-22.9L791.5,330z
	 M702.7,344.6L597,383.1l-3.3,18.9l119.2-43.4c5.4,8,10.3,16.3,14.8,24.9l-100,83.9l-34.2,28.4c-0.5-6.8-0.8-13.3-3.8-19.7
	c0,0,0,0,0,0l15.1,5.4l15.5-12.8l-38.8-14.2c0,0,0,0,0,0c-0.2-0.4-0.4-0.8-0.7-1.2l13.9-74l19.2-108.7
	C648.6,288.5,679,313.9,702.7,344.6z M588.6,470.6C588.6,470.6,588.6,470.6,588.6,470.6C588.6,470.6,588.6,470.6,588.6,470.6z
	 M611.7,178.6l-13.5,76.6c-8.3-3.5-16.7-6.6-25.4-9.3L611.7,178.6z M493.4,241.7c20.3,0,40.1,2.3,59,6.6l-57,98.8l9.5,16.5l64-110.9
	c9.5,2.8,18.9,6.2,27.9,10.1l-21.8,123.7l-8.4,47.8c0,0,0,0,0,0c-5-5.9-11.9-11.1-18.7-15.6l18.8-6.9l3.5-19.7l-43.8,15.9l0,0l0,0
	l0,0c0,0,0,0,0,0c-0.1,0-0.1,0-0.2-0.1l-35.4-62.2l-56.3-97.6C453.5,244,473.2,241.7,493.4,241.7z M543,415.6c0,0-0.1,0-0.1-0.1
	C542.9,415.6,542.9,415.6,543,415.6z M375.3,181.1l37.3,64.6c-8.3,2.5-16.4,5.5-24.4,8.8L375.3,181.1z M374.1,270.1l19.8,112.2
	l18.1,6.6l-22.2-126.1c8.8-3.8,17.8-7,27.1-9.8l63.8,110.6l22.7,39.3c-3.4-0.4-6.9-0.5-10.5-0.5c-3.6,0-7.2,0.2-10.7,0.6l8.5-14.7
	l-10-17.3l-21.4,37.1c0,0,0,0,0,0c-0.9,0.3-1.8,0.7-2.7,1L390,385l-107-38.9C307.2,314.4,338.3,288.3,374.1,270.1z M476.6,403.7
	c-0.3,0.1-0.7,0.1-1,0.2C475.9,403.8,476.3,403.7,476.6,403.7z M470.9,404.8c-0.3,0.1-0.7,0.2-1,0.2
	C470.3,404.9,470.6,404.8,470.9,404.8z M465.2,406.2c-0.2,0.1-0.4,0.1-0.7,0.2C464.8,406.3,465,406.3,465.2,406.2z M195.6,332.5
	l68.8,25.1c-4.6,7.1-8.9,14.4-12.8,21.9L195.6,332.5z M229.2,506c0-37.2,7.7-72.6,21.6-104.8l85.9,72l18.6-6.8l-96.9-81.3
	c4.4-8.5,9.2-16.7,14.4-24.6l120.7,43.9l42.4,15.4c0,0,0,0,0,0c-5.8,4-11.2,8.5-16,13.6c0,0,0,0,0,0l-2.9-16.5l-18.8-6.8l7.4,41.9
	L336.3,478l-106.9,38.9C229.3,513.3,229.2,509.6,229.2,506z M451.3,411.3c-0.1,0.1-0.2,0.1-0.4,0.2
	C451.1,411.4,451.2,411.4,451.3,411.3z M446.1,413.8c-0.1,0.1-0.2,0.1-0.3,0.2C445.9,414,446,413.9,446.1,413.8z M415.9,437.9
	C416,437.8,416,437.8,415.9,437.9C416,437.8,416,437.8,415.9,437.9z M150.1,562.8l72.4-26.4c1,8.9,2.5,18.4,4.4,26.4H150.1z
	 M239.9,580.8H356l10-18H235.5c-2.1-9-3.7-19.1-4.8-29L351,490.2l45.1-16.3c-2.3,7.4-3.7,15.3-4.2,23.3l-14.8-12.4l-18.8,6.8
	l34.8,29.2c0.1,0.4,0.2,0.9,0.2,1.3l0,0l-35.9,63.5l-57.7,100C272.3,656.3,251.6,620.8,239.9,580.8z M391.8,508.3
	c-0.1-1.6-0.1-3.1-0.1-4.7C391.7,505.2,391.7,506.8,391.8,508.3z M392.6,516.9c0-0.2-0.1-0.5-0.1-0.7
	C392.5,516.5,392.5,516.7,392.6,516.9z M392.1,512.8c-0.1-0.6-0.1-1.2-0.1-1.8C392,511.6,392,512.2,392.1,512.8z M273.2,764.9
	l34.7-60c5.9,5.4,12,10.6,18.4,15.5L273.2,764.9z M347.4,726.2l89.5-75.1l-3.6-20.5l-101,84.8c-7.1-5.5-13.9-11.3-20.4-17.4
	l64.8-112.2l23.7-41c3,6.7,6.6,12.7,10.9,18.5c0,0,0-0.3,0-0.3h-16.8l-10,18h42.9c0,0,0,0,0,0c0.4,0.3,0.7,0.6,1.1,0.9l12.9,69.6
	L462,768.4C420,763.4,381,748.6,347.4,726.2z M423.2,577c-0.1-0.1-0.2-0.2-0.3-0.3C423,576.8,423.1,576.9,423.2,577z M418.9,572.7
	C418.9,572.7,418.8,572.6,418.9,572.7C418.8,572.6,418.9,572.7,418.9,572.7z M432.8,585.1c0.3,0.2,0.6,0.4,0.9,0.7
	C433.5,585.6,433.1,585.3,432.8,585.1z M437.5,588.3c0.4,0.2,0.7,0.5,1.1,0.7C438.2,588.8,437.8,588.6,437.5,588.3z M493.3,850.1
	l-12.9-73.3c3.9,0.2,7.9,0.3,11.9,0.3c4.7,0,9.3-0.1,14-0.4L493.3,850.1z M526.1,768.2l20.1-114.1l-16-13.4l-22.8,129.1
	c-4.7,0.2-9.3,0.4-14,0.4c-4.8,0-9.5-0.1-14.3-0.4l-23.1-131l-7.8-44.4c0,0,0,0,0,0c6.2,3.1,12.8,5.5,19.6,7.3c0,0-0.1,0-0.1,0
	l-12.6,10.6l3.5,19.7l32.3-27.1c0.7,0,1.3,0,2,0c0.1,0,0.2,0,0.3,0c0,0,0,0,0,0l56.3,47.1l89.1,74.8
	C605.6,748.6,567.3,763.2,526.1,768.2z M442.5,591.4c0.3,0.2,0.5,0.3,0.8,0.5C443,591.7,442.8,591.6,442.5,591.4z M485.2,604.6
	c-0.1,0-0.3,0-0.4,0C484.9,604.5,485,604.5,485.2,604.6z M479.6,604c-0.3,0-0.5-0.1-0.8-0.1C479.1,603.9,479.4,603.9,479.6,604z
	 M474.2,603.1c-0.3-0.1-0.7-0.1-1-0.2C473.5,603,473.8,603,474.2,603.1z M658.1,720.7c6.7-5.2,13.1-10.6,19.3-16.4l36.4,63.1
	L658.1,720.7z M687.2,685.2l-57.6-100.3H609l65.2,113.4c-6.7,6.3-13.7,12.4-21,18L553,632.3L516.8,602c0,0,0,0,0,0
	c7.6-1.8,14.9-4.5,21.8-8c0,0,0,0,0,0l-3.3,18.6l15.3,12.8l7.9-44.6c0,0,0,0,0,0c0,0,0,0,0,0l0,0c0,0,0,0,0,0c0,0,0,0,0,0h71.2
	h117.3C735.3,620.8,714.6,655.7,687.2,685.2z M499,604.7c0.3,0,0.7-0.1,1-0.1C499.7,604.6,499.3,604.7,499,604.7z M504.8,604.2
	c0.3,0,0.6-0.1,0.9-0.1C505.4,604.1,505.1,604.1,504.8,604.2z M510.7,603.3c0.2,0,0.4-0.1,0.6-0.1
	C511.1,603.2,510.9,603.2,510.7,603.3z M543.8,591.2C543.8,591.2,543.7,591.2,543.8,591.2C543.7,591.2,543.8,591.2,543.8,591.2z"/>
<path class="st1" d="M511.3,247c0,0-14.8-35.2-36.4-9.8C439.6,279,455.6,340.4,485,370.7c46.6,48.3,139.8,143,73.7,304
	c19.5-123.7-8.7-178.6-51.5-226.5c-16.9-18.4-37.6-34-55-54.9c-29.1-34.8-43.7-79.5-33.8-137.6c0,0,12.2-32.8,6.4-48.8
	c-5.8-16,2.3-61,2.3-61c1.2,36.9,21.5,48.3,21.5,48.3s17.2-25.8,43.4-40.1c15.4-93.4-5.8-154-5.8-154s32,3.3,45.7,160.2
	c0,0,39.9,4.9,60.3,34c0,0,5.8,7.8,14.8,0l18.1-34c0,0,4.7,32.4-6.7,56.1c-11.4,20.9-7,20.1-4.7,31.1c2,11.5,2.9,35.6-2.6,53.7
	c-5.8,17.6,1.5,24.2,1.5,24.2c5.8,22.5,37.6,56.1,37.6,56.1s-31.7-20.9-44.3-27c-12.5-6.6-10.2,12.7-10.2,12.7s71,108.6,44.3,254.8
	c0.9-90.5-41.6-218.4-111.5-238.8c-27.4-7.8-43.4-36.9-43.4-36.9c-19.2-51.2,13.7-63.9,13.7-63.9s-11.4,35.2,5.8,46.3
	c16.9,11.1,71.9,23.4,76.6-56.5c4.4-80.3-67.5-63.5-67.5-63.5L511.3,247L511.3,247z M513.3,744.4l-11.9-22.5c0,0-6.4-5.3,4.1-13.1
	c10.5-7.4,50.4-38.9,42.5-122.9c-7.9-83.6-41.3-118-73.1-147.9c-31.7-29.9-84.7-68-66.1-190.9c0,0-62.3,91.4,22.4,208.5
	c18.6,26.2,1.5,29.9,1.5,29.9c-133.6,109.8-74.2,272-74.2,272s1.5-41,4.1-65.5c0,0,7-18.8,11.4-4.9c4.4,13.5,37.6,90.9,93.2,116.8
	c-13.1,31.5-58.2,41-58.2,41s56.5,5.7,74.2-3.7c17.5-9,19.5,19.3,19.5,19.3s9.9,80.3,0,139.7c2.9-2.5,31.4-28.3,21-181.9
	c0,0,29.1-18.4,43.7-36.9c0,0,11.1-14.3,12.5,1.6c1.2,15.6-2.9,33.6-2.9,33.6s29.4-21.7,22.4-88.9l15.4-17.6c0,0,8.4-13.9,12.5,0
	c4.4,13.5,8.4,41.4,8.4,41.4s16.9-272.8-102.5-353.5c82.7,84.8,85,336.8-29.1,369.5c-37.8,11.1-74-25.4-93.5-66
	c-29.1-60.6-23.3-146.7,39-173.3c83.9-35.6,88.5,148.7,8.2,127c-34.4-9.4-25-93.4-25-93.4c-50.1,68,4.9,159,45.1,154.9
	C477.8,716.5,486.8,740.7,513.3,744.4L513.3,744.4z"/>
</svg>
