<svg xmlns="http://www.w3.org/2000/svg" viewBox="0 0 410.06 176.56"><defs><style>.cls-1{fill:#fff;}</style></defs><g id="Laag_1" data-name="Laag 1"><rect class="cls-1" x="63.34" y="9.97" width="23.53" height="11.56" transform="translate(85.45 -63.19) rotate(90)"/><rect class="cls-1" x="117.04" y="9.97" width="23.53" height="11.56" transform="translate(139.15 -116.89) rotate(90)"/><rect class="cls-1" x="170.74" y="9.97" width="23.53" height="11.56" transform="translate(192.85 -170.59) rotate(90)"/><rect class="cls-1" x="113.58" y="-73.15" width="3.76" height="220.12" transform="translate(146.97 -82.39) rotate(90)"/><rect class="cls-1" x="113.58" y="37.21" width="3.76" height="220.12" transform="translate(-37.21 258.89) rotate(-90)"/><rect class="cls-1" x="225.48" y="9.93" width="23.53" height="11.56" transform="translate(247.54 -225.38) rotate(90)"/><rect class="cls-1" x="279.18" y="9.93" width="23.53" height="11.56" transform="translate(301.24 -279.08) rotate(90)"/><rect class="cls-1" x="336.68" y="9.93" width="23.53" height="11.56" transform="translate(358.74 -336.58) rotate(90)"/><rect class="cls-1" x="303.09" y="-73.89" width="3.76" height="220.98" transform="translate(336.16 -272.22) rotate(90)"/><rect class="cls-1" x="203.07" y="-48.51" width="14.73" height="410.06" transform="translate(48.51 363.1) rotate(-90)"/><rect class="cls-1" x="303.09" y="36.47" width="3.76" height="220.98" transform="translate(152.62 448.08) rotate(-90)"/><path class="cls-1" d="M29.24,88.2q.61-6.39,1-11.51t.62-11.88q.26-6.77.39-14.26t.13-11.94c2.7.08,4.89.11,6.56.11s3.84,0,6.33-.16,4.92-.16,7.28-.16a67.73,67.73,0,0,1,7.4.36,16.6,16.6,0,0,1,4.44,1.05,12.33,12.33,0,0,1,3.36,1.95A11,11,0,0,1,69,44.32a11.55,11.55,0,0,1,1.42,3.32,16.25,16.25,0,0,1,.5,4.09,18.5,18.5,0,0,1-.55,4.56,13.91,13.91,0,0,1-1.74,4,12.28,12.28,0,0,1-3,3.24,25.64,25.64,0,0,1-5,2.78l1.69,4.61c.47,1.29,1,2.59,1.52,3.92l4.36,10.65c.19.46.54,1.37,1,2.72-3.57,0-6-.07-7.21-.07-1.56,0-4.11,0-7.66.07-.35-1.26-1-3.59-1.89-7-.37-1.43-.68-2.53-.94-3.3q-.78-2.58-2.31-7.23L45.84,60.38a17.12,17.12,0,0,0,3.44.36,11.25,11.25,0,0,0,4.31-.8,5.9,5.9,0,0,0,2.92-2.47,6.8,6.8,0,0,0,1-3.52,5.1,5.1,0,0,0-.74-2.75,4.53,4.53,0,0,0-2.36-1.76,15.51,15.51,0,0,0-4.95-.58c-.76,0-1.55,0-2.36,0s-1.76.07-2.84.09q-.42,7.45-.74,18.17t-.42,21c-3.62,0-6-.07-7.05-.07C34.78,88.13,32.51,88.16,29.24,88.2Z" transform="translate(-5.4 -3.84)"/><path class="cls-1" d="M70.11,88.2,72.8,83,89.61,47.59l1.79-4c.52-1.16,1.24-2.84,2.17-5,3.81,0,6.6.08,8.35.08q4.58,0,8.48-.08l4.74,15.15,9.64,29.14,1.88,5.3-6.82-.07c-1.83,0-4.5,0-8,.07q-1.42-6-4.12-14.09H91.33Q88.51,80.5,85.49,88.2l-7.42-.07C76.43,88.13,73.77,88.16,70.11,88.2ZM95.26,63.54h10.09q-3.76-12.81-4.12-14.11-2.15,5.32-3.64,8.74Z" transform="translate(-5.4 -3.84)"/><path class="cls-1" d="M130.21,88.2q1.86-29.16,1.87-44.9l0-4.69q5.69.07,7.6.08l7-.08q-.58,8.18-.94,15.48-.47,10.17-.66,19t-.19,15.09l-6.66-.07C136.89,88.13,134.23,88.16,130.21,88.2Z" transform="translate(-5.4 -3.84)"/><path class="cls-1" d="M152.49,88.2c.54-5.71.94-10.37,1.17-14q.69-9.89,1-19.64t.35-16q4.41.07,7.82.08,2.29,0,6.62-.08l-.78,13.16-1,20.56-.13,5q5.58.11,7.28.11,8.55,0,12.93-.26l-.71,11q-8.55-.06-16.28-.07Q160.36,88.13,152.49,88.2Z" transform="translate(-5.4 -3.84)"/><path class="cls-1" d="M191.73,88.2q.63-6.39,1-11.51t.62-11.88q.25-6.77.39-14.26t.13-11.94c2.71.08,4.89.11,6.56.11s3.85,0,6.34-.16,4.91-.16,7.27-.16a68.05,68.05,0,0,1,7.41.36,16.62,16.62,0,0,1,4.43,1.05,12.33,12.33,0,0,1,3.36,1.95,11.24,11.24,0,0,1,2.28,2.56,11.82,11.82,0,0,1,1.41,3.32,16.25,16.25,0,0,1,.5,4.09,18,18,0,0,1-.55,4.56,13.91,13.91,0,0,1-1.74,4,12.12,12.12,0,0,1-3,3.24,25.35,25.35,0,0,1-5,2.78l1.69,4.61c.48,1.29,1,2.59,1.53,3.92l4.35,10.65c.2.46.54,1.37,1,2.72-3.57,0-6-.07-7.2-.07-1.56,0-4.12,0-7.67.07-.34-1.26-1-3.59-1.88-7-.37-1.43-.69-2.53-.95-3.3q-.78-2.58-2.31-7.23l-3.35-10.28a17.14,17.14,0,0,0,3.45.36,11.2,11.2,0,0,0,4.3-.8A5.9,5.9,0,0,0,219,57.47,6.81,6.81,0,0,0,220,54a5,5,0,0,0-.75-2.75,4.49,4.49,0,0,0-2.36-1.76,15.51,15.51,0,0,0-4.95-.58c-.76,0-1.54,0-2.36,0s-1.76.07-2.84.09q-.42,7.45-.74,18.17t-.41,21c-3.62,0-6-.07-7.06-.07C197.27,88.13,195,88.16,191.73,88.2Z" transform="translate(-5.4 -3.84)"/><path class="cls-1" d="M265.25,37.67a32.18,32.18,0,0,1,10,1.56,21.83,21.83,0,0,1,8.42,5,22.22,22.22,0,0,1,5.39,7.9,27.58,27.58,0,0,1,1.79,10.28,31,31,0,0,1-2,11.21,23.55,23.55,0,0,1-5.67,8.66,22.54,22.54,0,0,1-8.83,5.22,34.77,34.77,0,0,1-10.69,1.65,34.2,34.2,0,0,1-10.53-1.62,22.11,22.11,0,0,1-8.75-5.23,20.79,20.79,0,0,1-5.28-8,29.44,29.44,0,0,1-1.56-9.84,28.56,28.56,0,0,1,3.3-14,22.89,22.89,0,0,1,9.78-9.39A31.11,31.11,0,0,1,265.25,37.67Zm-.59,10.94a11.71,11.71,0,0,0-6.75,2,13.15,13.15,0,0,0-4.65,5.7,19.13,19.13,0,0,0-1.62,7.83,16.66,16.66,0,0,0,1.47,7,11.16,11.16,0,0,0,4.5,5A12.33,12.33,0,0,0,264,78a11.62,11.62,0,0,0,6.61-2,12.68,12.68,0,0,0,4.58-5.67,19,19,0,0,0,1.58-7.65,17.51,17.51,0,0,0-1.46-7.17,11.33,11.33,0,0,0-10.66-6.92Z" transform="translate(-5.4 -3.84)"/><path class="cls-1" d="M290.23,88.2l2.7-5.23,16.8-35.38,1.79-4c.52-1.16,1.24-2.84,2.18-5q5.71.07,8.34.08c3.06,0,5.88,0,8.48-.08l4.74,15.15L344.9,82.9l1.89,5.3L340,88.13c-1.82,0-4.5,0-8,.07q-1.44-6-4.12-14.09H311.45q-2.82,6.39-5.84,14.09l-7.41-.07C296.55,88.13,293.89,88.16,290.23,88.2Zm25.15-24.66h10.09q-3.77-12.81-4.12-14.11-2.14,5.32-3.63,8.74Z" transform="translate(-5.4 -3.84)"/><path class="cls-1" d="M350.26,88.2q.72-8.28,1-13.26.4-7.41.79-19.18.29-9,.29-12.89V38.61c2.54.08,4.72.11,6.56.11s4.11,0,7-.16,5.59-.16,8.12-.16a44,44,0,0,1,7.64.58,16.8,16.8,0,0,1,6.12,2.4,15.85,15.85,0,0,1,4.76,4.75A23.17,23.17,0,0,1,395.42,53a32.73,32.73,0,0,1,1,8.12,39.13,39.13,0,0,1-.78,7.9,32,32,0,0,1-2.18,6.85,22.54,22.54,0,0,1-3.27,5.25,19.61,19.61,0,0,1-4.27,3.76,17.35,17.35,0,0,1-3.6,1.81,24.31,24.31,0,0,1-5,1.06,65.42,65.42,0,0,1-8,.43l-13.13-.11Q354.43,88.09,350.26,88.2Zm14.05-10.93a37.15,37.15,0,0,0,3.73.18A24.57,24.57,0,0,0,374,76.8a9.17,9.17,0,0,0,4.56-2.8,13.33,13.33,0,0,0,2.91-5.5,25.74,25.74,0,0,0,.94-6.89,17,17,0,0,0-1.4-7.28,8.35,8.35,0,0,0-3.72-4.13A14.35,14.35,0,0,0,370.92,49c-1.56,0-3.4.07-5.52.22Z" transform="translate(-5.4 -3.84)"/><path class="cls-1" d="M36.87,147.21q.68-7,1.07-12.57t.67-13q.28-7.36.43-15.57t.14-13q4.44.12,7.17.12c1.89,0,4.2-.06,6.91-.18s5.37-.18,8-.18a74.61,74.61,0,0,1,8.09.4,18.35,18.35,0,0,1,4.84,1.15,13.61,13.61,0,0,1,3.67,2.12,11.92,11.92,0,0,1,4,6.43,17.3,17.3,0,0,1,.55,4.46,19.76,19.76,0,0,1-.6,5,15.15,15.15,0,0,1-1.9,4.37,13.5,13.5,0,0,1-3.26,3.53,27.56,27.56,0,0,1-5.52,3l1.85,5c.52,1.4,1.07,2.83,1.66,4.28l4.76,11.63c.21.5.59,1.49,1.13,3q-5.85-.08-7.87-.08-2.55,0-8.36.08c-.38-1.37-1.07-3.93-2.06-7.65-.4-1.56-.75-2.77-1-3.61q-.85-2.82-2.52-7.9L55,116.82a18.15,18.15,0,0,0,3.76.4,12.26,12.26,0,0,0,4.7-.87,6.45,6.45,0,0,0,3.19-2.7,7.43,7.43,0,0,0,1.08-3.85,5.51,5.51,0,0,0-.81-3,4.93,4.93,0,0,0-2.57-1.93,17.24,17.24,0,0,0-5.41-.63q-1.24,0-2.58.06c-.88,0-1.92.07-3.1.1q-.45,8.13-.8,19.83t-.46,23q-5.93-.08-7.71-.08Q42.24,147.13,36.87,147.21Z" transform="translate(-5.4 -3.84)"/><path class="cls-1" d="M87.81,147.21q.89-10.23,1.3-17.14t.82-18.34q.41-11.45.41-15.18l0-3.49q8.37.09,20.25.08,11,0,19.33-.08l-.07,1.31c0,.31-.08,1.46-.18,3.44l-.21,4.31c0,.92-.07,1.86-.07,2.8q-6.85-.32-11.49-.31c-3.41,0-5.71,0-6.9,0s-3.06.07-5.59.17l-.43,9.13q4.19.12,9.76.12c1.32,0,4.85-.09,10.57-.28q-.36,5.08-.67,12.1c-4.09-.05-7.24-.08-9.43-.08q-4.9,0-11,.28l-.42,9.64h4.08q1.8,0,7.48-.12l7.33-.2c1.09,0,2.91-.13,5.46-.32q-.42,5.88-.71,12.14-8.66-.08-19-.08l-15.61,0Z" transform="translate(-5.4 -3.84)"/><path class="cls-1" d="M177.66,134q-.42,2.34-1,6.51t-.81,6.46a82.72,82.72,0,0,1-13.55,1.27,34.52,34.52,0,0,1-10.7-1.6,25.38,25.38,0,0,1-9.08-5.28,20.78,20.78,0,0,1-5.9-8.63,32.62,32.62,0,0,1-1.78-11.11,33.15,33.15,0,0,1,2.4-12.91,25,25,0,0,1,6.88-9.56,27.56,27.56,0,0,1,9.84-5.47A37.38,37.38,0,0,1,165,92a69.49,69.49,0,0,1,13,1.51l.07,3.33c0,1.46.12,3.06.22,4.8l.24,4.52a64.4,64.4,0,0,0-6.72-1.5,30.67,30.67,0,0,0-4.77-.4,17.36,17.36,0,0,0-8.62,2.14,15.29,15.29,0,0,0-6,6.23,18.72,18.72,0,0,0-2.2,9,15.42,15.42,0,0,0,1.85,7.76,13,13,0,0,0,5,5,15.69,15.69,0,0,0,7.75,1.76,36.6,36.6,0,0,0,5.48-.45A61.46,61.46,0,0,0,177.66,134Z" transform="translate(-5.4 -3.84)"/><path class="cls-1" d="M213.74,92a35,35,0,0,1,10.92,1.71,23.69,23.69,0,0,1,9.19,5.45,24.2,24.2,0,0,1,5.89,8.63,30.1,30.1,0,0,1,1.95,11.23,33.75,33.75,0,0,1-2.14,12.23,26,26,0,0,1-6.19,9.47,24.75,24.75,0,0,1-9.65,5.69,38.59,38.59,0,0,1-23.17,0,24.19,24.19,0,0,1-9.56-5.71,22.67,22.67,0,0,1-5.76-8.79,32.11,32.11,0,0,1-1.7-10.75,31.2,31.2,0,0,1,3.6-15.25,25,25,0,0,1,10.67-10.26A34,34,0,0,1,213.74,92ZM213.1,104a12.87,12.87,0,0,0-7.38,2.24,14.4,14.4,0,0,0-5.07,6.23,20.85,20.85,0,0,0-1.77,8.55,18.09,18.09,0,0,0,1.61,7.7,12.18,12.18,0,0,0,4.91,5.45,13.44,13.44,0,0,0,7,2,12.66,12.66,0,0,0,7.22-2.2,13.84,13.84,0,0,0,5-6.19,20.77,20.77,0,0,0,1.72-8.35,19.1,19.1,0,0,0-1.59-7.83A12.43,12.43,0,0,0,213.1,104Z" transform="translate(-5.4 -3.84)"/><path class="cls-1" d="M247.3,147.21q.67-7,1.06-12.57t.68-13q.28-7.36.43-15.57t.14-13q4.42.12,7.16.12t6.92-.18q4.08-.18,7.94-.18a74.48,74.48,0,0,1,8.09.4,18.26,18.26,0,0,1,4.84,1.15,13.31,13.31,0,0,1,3.67,2.12,12.32,12.32,0,0,1,2.48,2.8,12.5,12.5,0,0,1,1.55,3.63,17.75,17.75,0,0,1,.55,4.46,19.31,19.31,0,0,1-.61,5,15.4,15.4,0,0,1-1.89,4.37,13.54,13.54,0,0,1-3.27,3.53,27.73,27.73,0,0,1-5.51,3l1.84,5c.52,1.4,1.08,2.83,1.67,4.28l4.75,11.63c.22.5.59,1.49,1.14,3-3.9-.05-6.53-.08-7.87-.08q-2.55,0-8.37.08c-.38-1.37-1.06-3.93-2.06-7.65-.4-1.56-.74-2.77-1-3.61q-.86-2.82-2.52-7.9l-3.66-11.23a18.15,18.15,0,0,0,3.76.4,12.19,12.19,0,0,0,4.7-.87,6.47,6.47,0,0,0,3.2-2.7,7.43,7.43,0,0,0,1.08-3.85,5.43,5.43,0,0,0-.82-3,4.89,4.89,0,0,0-2.57-1.93,17.15,17.15,0,0,0-5.41-.63c-.83,0-1.68,0-2.57.06s-1.92.07-3.1.1q-.46,8.13-.81,19.83t-.45,23q-5.94-.08-7.71-.08C253.35,147.13,250.87,147.16,247.3,147.21Z" transform="translate(-5.4 -3.84)"/><path class="cls-1" d="M298.34,147.21q.78-9,1.07-14.48.43-8.08.86-20.94.32-9.84.32-14.09V93.06c2.77.08,5.15.12,7.16.12s4.48-.06,7.63-.18,6.1-.18,8.86-.18a48.62,48.62,0,0,1,8.34.64,18.22,18.22,0,0,1,6.68,2.62,17.27,17.27,0,0,1,5.2,5.19,25.16,25.16,0,0,1,3.19,7.52,35.86,35.86,0,0,1,1.1,8.87,43.4,43.4,0,0,1-.85,8.63,34.63,34.63,0,0,1-2.38,7.47A24.78,24.78,0,0,1,342,139.5a21.46,21.46,0,0,1-4.67,4.1,18.94,18.94,0,0,1-3.94,2,27.48,27.48,0,0,1-5.42,1.15,72.86,72.86,0,0,1-8.69.47l-14.34-.12Q302.89,147.09,298.34,147.21Zm15.34-11.94c1.3.13,2.66.2,4.07.2a26.89,26.89,0,0,0,6.46-.71,10,10,0,0,0,5-3.06,14.55,14.55,0,0,0,3.17-6,27.52,27.52,0,0,0,1-7.52,18.54,18.54,0,0,0-1.53-8,9,9,0,0,0-4.06-4.5,15.53,15.53,0,0,0-6.9-1.27q-2.55,0-6,.24Z" transform="translate(-5.4 -3.84)"/><path class="cls-1" d="M354,146.38q-.45-8.44-1.06-13.53a35.92,35.92,0,0,0,7.09,2.76,23.23,23.23,0,0,0,5.46.77,10.24,10.24,0,0,0,4.92-1,3.23,3.23,0,0,0,1.83-3,4.57,4.57,0,0,0-.18-1.29,5.18,5.18,0,0,0-.68-1.39A9.85,9.85,0,0,0,370,128l-6.68-6.5c-1.57-1.49-2.65-2.56-3.27-3.22a22.84,22.84,0,0,1-2.93-3.77,13.57,13.57,0,0,1-1.53-3.55,14.81,14.81,0,0,1-.48-3.82,14.93,14.93,0,0,1,3-9.09,13.47,13.47,0,0,1,4-3.49,16.55,16.55,0,0,1,5.39-2,32.14,32.14,0,0,1,5.93-.54,61.27,61.27,0,0,1,13.05,1.55c.07,1.82.16,3.5.25,5s.32,4.18.68,8a29.92,29.92,0,0,0-6-2,22.4,22.4,0,0,0-4.65-.58,8.55,8.55,0,0,0-4.6,1.15,3.35,3.35,0,0,0-1.82,2.86,4.38,4.38,0,0,0,.28,1.55,7.24,7.24,0,0,0,1.07,1.76,18.82,18.82,0,0,0,2.05,2.22q1.27,1.21,4,3.59l2.56,2.26a34.75,34.75,0,0,1,2.44,2.5,25.35,25.35,0,0,1,2.27,2.9,16.84,16.84,0,0,1,1.48,2.62,12.6,12.6,0,0,1,.76,2.4,13.26,13.26,0,0,1,.25,2.6,15.72,15.72,0,0,1-1.53,6.8,13.88,13.88,0,0,1-4.33,5.31,17.18,17.18,0,0,1-6.15,2.92,29,29,0,0,1-7.08.83A72.59,72.59,0,0,1,354,146.38Z" transform="translate(-5.4 -3.84)"/><rect class="cls-1" x="202.91" y="-177.52" width="15.04" height="410.06" transform="translate(232.54 -186.76) rotate(90)"/><rect class="cls-1" x="63.05" y="162.7" width="23.84" height="11.56" transform="translate(238.05 89.67) rotate(90)"/><rect class="cls-1" x="116.75" y="162.7" width="23.84" height="11.56" transform="translate(291.75 35.97) rotate(90)"/><rect class="cls-1" x="170.45" y="162.7" width="23.84" height="11.56" transform="translate(345.45 -17.73) rotate(90)"/><rect class="cls-1" x="225.18" y="162.66" width="23.84" height="11.56" transform="translate(400.14 -72.51) rotate(90)"/><rect class="cls-1" x="278.88" y="162.66" width="23.84" height="11.56" transform="translate(453.84 -126.21) rotate(90)"/><rect class="cls-1" x="336.38" y="162.66" width="23.84" height="11.56" transform="translate(511.34 -183.71) rotate(90)"/><rect class="cls-1" x="8.87" y="9.83" width="23.53" height="11.56" transform="translate(30.84 -8.87) rotate(90)"/><rect class="cls-1" x="8.58" y="162.56" width="23.84" height="11.56" transform="translate(183.44 143.99) rotate(90)"/><rect class="cls-1" x="387.7" y="9.83" width="23.53" height="11.56" transform="translate(409.66 -387.7) rotate(90)"/><rect class="cls-1" x="387.4" y="162.56" width="23.84" height="11.56" transform="translate(562.26 -234.83) rotate(90)"/></g></svg>