<?xml version="1.0" encoding="UTF-8"?><svg id="Laag_1" xmlns="http://www.w3.org/2000/svg" viewBox="0 0 205.03 176.56"><defs><style>.cls-1,.cls-2{fill:#fff;}.cls-2{font-family:ErasITC-Bold, 'Eras Bold ITC';font-size:145px;font-weight:700;}</style></defs><rect class="cls-1" x="64.94" y="6.13" width="23.53" height="11.56" transform="translate(88.61 -64.79) rotate(90)"/><rect class="cls-1" x="118.64" y="6.13" width="23.53" height="11.56" transform="translate(142.31 -118.49) rotate(90)"/><rect class="cls-1" x="172.34" y="6.13" width="23.53" height="11.56" transform="translate(196.01 -172.19) rotate(90)"/><rect class="cls-1" x="100.63" y="-63.8" width="3.76" height="205.03" transform="translate(141.23 -63.8) rotate(90)"/><text class="cls-2" transform="translate(11.66 134.45) scale(.89 1)"><tspan x="0" y="0">RR</tspan></text><rect class="cls-1" x="94.99" y="-73.2" width="15.04" height="205.03" transform="translate(131.82 -73.2) rotate(90)"/><rect class="cls-1" x="64.65" y="158.86" width="23.84" height="11.56" transform="translate(241.2 88.07) rotate(90)"/><rect class="cls-1" x="118.35" y="158.86" width="23.84" height="11.56" transform="translate(294.9 34.37) rotate(90)"/><rect class="cls-1" x="172.05" y="158.86" width="23.84" height="11.56" transform="translate(348.6 -19.33) rotate(90)"/><rect class="cls-1" x="10.47" y="5.99" width="23.53" height="11.56" transform="translate(34 -10.47) rotate(90)"/><rect class="cls-1" x="10.18" y="158.72" width="23.84" height="11.56" transform="translate(186.6 142.39) rotate(90)"/><rect class="cls-1" x="100.63" y="48.28" width="3.76" height="205.03" transform="translate(253.31 48.28) rotate(90)"/><rect class="cls-1" x="94.99" y="38.88" width="15.04" height="205.03" transform="translate(243.91 38.88) rotate(90)"/></svg>