<?xml version="1.0" encoding="utf-8"?>
<!-- Generator: Adobe Illustrator 26.3.1, SVG Export Plug-In . SVG Version: 6.00 Build 0)  -->
<svg version="1.1" id="Layer_1" xmlns="http://www.w3.org/2000/svg" xmlns:xlink="http://www.w3.org/1999/xlink" x="0px" y="0px"
	 viewBox="0 0 192.5 189.5" style="enable-background:new 0 0 192.5 189.5;" xml:space="preserve">
<style type="text/css">
	.st0{fill:#FFFFFF;}
</style>
<g>
	<path class="st0" d="M170.8,108.7c0.1,0,0.1,0,0.1,0.1h4.5c-0.2-0.1-0.2-0.2,0.2-0.1h0.2c0,0,0,0,0.1,0.1h9.8c0-0.1,0-0.2,0-0.3
		c0.1,0,0.3,0,0.4,0c0,0.1,0,0.2,0,0.3h1.3c0-0.1,0-0.1,0-0.3c0.3,0,0.3,0.2,0.2,0.3h4.8l-10.8-3.9c-0.1,0.1-0.1,0.3-0.1,0.4
		c-0.4-0.4-0.2-0.4-0.8-0.2c0-0.3,0.1-0.4,0.2-0.5l-7.3-2.6c-0.3,0.4-0.7,0.8-0.5,1.2c-0.7-0.4-0.5-1,0-1.4l-1.6-0.6
		c-0.6,0.2-1.2,0.3-1.7,0.3c0.1-0.3,0.3-0.5,0.6-0.7l-1.5-0.5l0,0l-7.3-2.6c-0.2,0.1-0.3,0-0.5-0.2l-1.2-0.4
		c0.1,0.1,0.2,0.3,0.2,0.5c-0.4,0.1-0.4-0.3-0.4-0.6l-3.5-1.2c0.1-1.3,0.1-2.6,0.1-3.8c0-0.9,0-1.9-0.1-2.8v-0.1
		c0-0.7-0.1-1.5-0.2-2.2c-0.1,0-0.1,0-0.2,0c0-0.3,0.1-0.5,0.2-0.5c-0.1-0.8-0.2-1.5-0.3-2.3c-0.1,0.1-0.2,0.1-0.1-0.4h0.1
		c-0.5-3.8-1.4-7.6-2.6-11.2c0,0.2-0.2,0.1-0.2,0c-0.2,0.1-0.2,0.5-0.6,0.4c0-0.2,0-0.4,0-0.6c0.4-0.1,0.6,0.1,0.8,0.2
		c-0.5-1.6-1.1-3.2-1.8-4.7l6.3-5.2c0,0-0.1-0.2,0-0.4c0.2,0,0.2,0.1,0.2,0.2l6.5-5.4l0,0l0,0l9.9-8.2c-0.4,0-0.6-0.2-0.6-0.6
		c0.4,0,0.7,0.2,0.6,0.6l6.7-5.6l-0.8,0.3l0.1,0.1l-0.1-0.1l-8.5,3.1c-0.1,0.1-0.1,0.1,0,0l-0.6,0.2c0.1,0.1,0,0.1-0.1,0l-18.1,6.6
		c0.4,0.3-0.2,0.8-0.3,1c-0.6-0.2,0-0.7,0.2-0.9l-8,2.9c-1.2-1.6-2.4-3.1-3.8-4.6v0.1c-0.4-0.1-0.7,0-0.6,0.4
		c-0.6-0.1-0.3-0.7,0.1-1.1c-0.5-0.6-1.1-1.1-1.6-1.7c-2.7-2.7-5.6-5.1-8.6-7.2c0,0.1,0,0.1,0,0.2c-0.4,0-0.3-0.6-0.8-0.4
		c0-0.1,0-0.3,0-0.4c-1.7-1.1-3.5-2.2-5.4-3.1l-0.1,0.1c-0.1,0-0.2-0.2-0.2-0.3c-0.2-0.1-0.5-0.2-0.7-0.4l2.8-15.8
		c0,0-0.1-0.1,0-0.4h0.1l2.4-13.5c-0.4,0-0.8,0.2-0.8-0.2c-0.2-0.7,0.4-0.3,0.4,0c0.5,0.1-0.1-1.1,0.6-0.9l1.3-7.2l-5,8.8
		c0.1,0.1-0.1,0.3-0.2,0.3l-5.1,8.8c0,0.1-0.1,0.2-0.1,0.2l-0.9,1.5c0.8,0,0.6,0.7,0.8,0.8c-0.3,0.5-0.9-0.1-0.9-0.7l-1.4,2.4
		c0.4,0.1,0.6,1.3-0.3,1c-0.2-0.3,0.5-0.6,0.2-0.8l-0.6,1l0,0l0,0l-5.7,10c-1-0.2-1.9-0.4-2.9-0.6c0.2,0.3,0.6,0.4,0.2,1
		c0.1-0.8-1.4-0.4-0.8-0.6c-0.1-0.2-0.4-0.2-0.4-0.5c-3.4-0.6-6.8-0.9-10.3-0.9c-1.1,0-2.2,0-3.2,0.1l0,0l0,0
		c-1.3,0.1-2.5,0.2-3.8,0.3c0,0.1,0,0.2,0,0.3c-0.1,0-0.3,0-0.4,0c0-0.1,0-0.2,0-0.3c-0.4,0-0.7,0.1-1.1,0.2c-0.1,0.1-0.2,0.2-0.2,0
		c-1.8,0.3-3.7,0.6-5.5,1L62.8,0L64,6.4c0.1,0,0.2,0,0.3,0c0,0.1,0,0.3,0,0.4c-0.1,0-0.2,0-0.3,0L69.6,38c-1.8,0.9-3.6,1.9-5.3,3
		c0,0.1-0.2,0.2-0.3,0.2c-3.7,2.3-7.1,5.1-10.2,8.2c-0.3,0.3-0.6,0.6-0.9,1c0.1,0.1-0.1,0.2-0.2,0.2c-1.7,1.8-3.3,3.7-4.8,5.7
		L11.6,43l15.8,13.2c0-0.1,0-0.3,0-0.4c0.1,0,0.3,0,0.4,0c0.1,0.3,0,0.5-0.2,0.6l8.6,7.2c0.1,0,0.1,0,0.2,0c0,0.1,0,0.1,0,0.2l4.8,4
		c-2.5,5.7-4.1,11.7-4.7,18c0.3-0.3,0.1-0.1,0,0c-0.2,1.8-0.3,3.7-0.3,5.5c0.1,0.1,0.1,0.1,0.3,0.1c0,0.2-0.1,0.2-0.3,0.2
		c0,0.1,0,0.1,0,0.2c0,1.3,0,2.6,0.1,3.8l-11,4c0,0.1,0,0.1,0,0.2c-0.2,0-0.2,0-0.3-0.1L5,107c0,0.2-0.2,0.3-0.3,0.1L0,108.8h20.2
		c-0.1-0.2-0.2-0.4-0.2-0.7c0.5-0.1,0.6,0.3,0.6,0.7h8.1c0.1-0.2,0.4-0.3,0.6,0l0,0h9.3c0.5,1.6,1,3.1,1.6,4.6
		c0.1-0.1,0.3-0.2,0.5-0.2c0,0.5,0.5,0.5,0.6,0.8c-0.2,0.2-0.6-0.4-1.1-0.4c0.5,1.3,1,2.5,1.6,3.8c0-0.3,0.4-0.7,0.7-0.6
		c0,0.2,0,0.4,0,0.6c-0.3-0.2-0.5-0.2-0.6,0.2l0,0c0.2,0.5,0.5,1,0.7,1.5c0.2,0,0.2,0.2,0.1,0.2c0.1,0.1,0.1,0.3,0.2,0.4l0,0
		c0.1,0,0.3,0,0.4,0c0,0.1,0,0.3,0,0.4c-0.1,0-0.1,0-0.2,0c2.6,4.8,5.7,9.2,9.6,13.3l-5.2,9c0.2,0.1,0.3,0.3,0.3,0.6
		c-0.2-0.1-0.3-0.2-0.4-0.4l-2.2,3.8c0,0,0,0,0,0.1L34,165.7c0.2,0.2,0,0.2-0.1,0.2l-0.6,0.9l10.2-8.6l0,0l0,0l4.6-3.9
		c0-0.3,0.1-0.6,0.4-0.4l6.8-5.8c-0.1,0-0.2-0.1-0.1-0.5c0.3,0.1,0.3,0.3,0.2,0.5l1.8-1.5c-0.9-0.1-0.1-0.5-0.1-1
		c0.4,0,0.2,0.6,0.2,1l5.4-4.5c7.4,4.9,15.7,8.1,24.6,9.4c-0.6-0.5,0.3-1.3,0,0c0.7,0.1,1.4,0.2,2.1,0.3l1.7,10.1
		c0.1,0.1,0.1,0.2,0.1,0.4c0,0,0,0-0.1,0l0.6,3.2h0.1c0,0.2,0,0.3-0.1,0.4l2,11.2l0,0c0.3,0.1,0.2,0.2,0,0.3l0.2,1.2
		c0.1,0.1,0.2,0.3,0.4,0.4c-0.1,0.2-0.2,0.2-0.3,0.2l1.9,10.7l3.1-17.6h-0.1H99l3.5-20.4c0.4,0,0.9-0.1,1.3-0.2c0,0,0,0,0-0.1
		c0.1,0,0.1,0,0.2,0.1c0.3,0,0.7-0.1,1-0.1c0-0.2,0.1-0.3,0.1-0.3c0.1,0,0.2,0.1,0.2,0.3c0.2,0,0.3,0,0.5-0.1c0.1-0.1,0.2-0.1,0.3,0
		c1.5-0.3,3-0.6,4.5-1c0,0,0,0,0-0.1c0.1,0,0.2,0,0.3,0c0.9-0.2,1.8-0.5,2.7-0.7c0-0.2,0.2-0.2,0.3-0.1c0.6-0.2,1.2-0.4,1.8-0.6
		c0.1-0.2,0.2-0.3,0.2-0.5c0.1,0.1,0.2,0.2,0.2,0.3c1.2-0.4,2.4-0.9,3.6-1.4c0-0.4,0.1-0.7,0.5-0.8c0,0,0.1,0.2,0.3,0.5
		c1.8-0.8,3.5-1.7,5.3-2.7c-0.1,0-0.1-0.1,0-0.4c0.3,0,0.3,0.2,0.2,0.3c0.2-0.1,0.4-0.2,0.6-0.3c-0.4-0.1,0-0.7,0.1-0.8
		c0.4,0,0.2,0.5,0.1,0.7c0.9-0.6,1.9-1.1,2.8-1.8l3,2.5c0,0,0.1-0.1,0,0l0,0l12,10.1h0.1v0.1l0.5,0.4c0.1-0.1,0.2-0.1,0.6-0.1
		c0,0.2-0.1,0.3-0.2,0.4l1.1,0.9l0,0c0.2,0,0.2,0.1,0.2,0.2l1.2,1c0.1-0.1,0.1-0.2,0.1-0.4c0.3,0,0.3,0.3,0.2,0.5l10.9,9.2
		l-12.5-21.5c-0.1,0.1,0,0,0,0l-0.2-0.4l0,0l-6.6-11.4c1.7-1.8,3.2-3.6,4.7-5.5c-0.2-0.2-0.3-0.4-0.3-0.8c0.2,0.1,0.5,0.3,0.6,0.5
		c1-1.4,2-2.8,2.9-4.3c-0.1,0-0.1-0.1-0.1-0.4c0.1,0,0.2,0.1,0.2,0.1c1.8-2.9,3.3-6,4.5-9.1c-0.1-0.2-0.1-0.5,0.1-0.7
		c0.1,0,0.1,0,0.1,0.1c0.3-0.8,0.6-1.7,0.9-2.5c0-0.1,0-0.2,0-0.5c0.1,0,0.1,0,0.1,0.1c0.1-0.3,0.2-0.6,0.3-0.9l0,0
		c0.1-0.2,0.1-0.4,0.2-0.6L170.8,108.7L170.8,108.7z M177.3,105.7C178,106,176.5,106.3,177.3,105.7L177.3,105.7z M177.8,107.4
		C177.9,107.3,177.6,107.6,177.8,107.4L177.8,107.4z M179.7,108.7C179.8,108.6,179.5,108.8,179.7,108.7L179.7,108.7z M186.4,107.2
		c0,0.4-0.3,0.4-0.2,0.8c-0.3-0.2-0.4-0.6-0.8-0.6C185.7,107,185.9,107.6,186.4,107.2z M183.7,105.9c0,0.5-0.2,0.7-0.6,0.6
		C183,106.1,183.2,105.9,183.7,105.9z M180.9,106.8c0.2,0,0.2,0.3,0.2,0.4c0.2,0,0.2-0.1,0.2-0.2c0.7,0.4-0.4,0.7-0.2,1.3
		c-0.7-0.3-0.6-0.2-1.1-0.6c0.2-0.6,0.6,0.2,0.8,0.2C181.6,107.7,180.7,107.3,180.9,106.8z M180.3,106.8c-0.3,0.6-0.8-0.4-0.8-0.8
		C180.2,105.8,179.8,106.7,180.3,106.8z M177.8,105.9C178.4,106,177.6,106.8,177.8,105.9L177.8,105.9z M177.6,104.7
		c0.6,0.4-0.4,0.9-0.8,0.8C176.8,105,177.4,105,177.6,104.7z M173.3,106.8C174,106.8,173.1,107.7,173.3,106.8L173.3,106.8z
		 M173.6,104.7c0.6,0.1-0.2,0.5,0,0.8C172.8,105.3,173.4,105,173.6,104.7z M127.8,4.9C128.4,5,127.6,5.8,127.8,4.9L127.8,4.9z
		 M124.8,26.8C124.7,27,124.9,26.8,124.8,26.8L124.8,26.8z M126.7,15.5C126.1,16.2,126,14.8,126.7,15.5L126.7,15.5z M127.1,8.9
		C127.2,8.8,127,9.1,127.1,8.9L127.1,8.9z M126.5,7.2C127.2,7.5,126.3,8.3,126.5,7.2L126.5,7.2z M126.7,10c0.1,0.3-0.2,0.4-0.2,0.6
		C126.1,10.7,126.2,9.6,126.7,10z M126.1,15c-0.3-0.1-0.2-0.5-0.2-0.8C126.4,14.2,126.4,14.8,126.1,15z M125.7,8.5
		C125.8,8.4,125.5,8.6,125.7,8.5L125.7,8.5z M125.3,15C125.1,15.2,125.3,14.9,125.3,15L125.3,15z M125,14
		C124.9,14.1,125.1,13.9,125,14L125,14z M124.6,25.4C125.3,25.4,124.4,26.2,124.6,25.4L124.6,25.4z M124.6,16.3
		C124.7,16.2,124.5,16.4,124.6,16.3L124.6,16.3z M123.1,28.3C122.4,27.6,123.5,27.1,123.1,28.3L123.1,28.3z M123.6,18.4
		c0.4-0.1,0.3,1-0.2,0.6c0-0.1,0-0.3,0-0.4C123.5,18.7,123.6,18.5,123.6,18.4z M123.6,15.9C123.4,16,123.7,15.8,123.6,15.9
		L123.6,15.9z M123.8,23.9c0.3,0.7-0.7,0.2-0.4,0.8C122.9,24.7,123.3,23.7,123.8,23.9z M123.3,25.5c0.3,0.3,0.8,0.3,0.7,0.9
		c-0.3,0.2-0.8,0.2-0.6,0.8C122.5,27,123.7,26.3,123.3,25.5z M124,25.4C124.1,25.3,123.8,25.5,124,25.4L124,25.4z M124,24.3
		C124.1,24.2,123.8,24.5,124,24.3L124,24.3z M123.6,30.4c-0.4,0.1-0.4-1.2,0.2-0.8C123.8,30,123.5,30,123.6,30.4z M124,29
		C124.1,28.9,123.8,29.1,124,29L124,29z M124,26.8C124.7,27.2,123.2,27.4,124,26.8L124,26.8z M123.8,22c0-0.2,0-0.4,0-0.6
		c0.1,0,0.3,0,0.4,0C124.3,21.8,124.2,22,123.8,22z M124,17.4C123.2,16.6,124.8,16.3,124,17.4L124,17.4z M124.4,27.7
		C124.5,27.6,124.3,27.8,124.4,27.7L124.4,27.7z M124.2,13.3C124.7,14.1,123.5,12.8,124.2,13.3L124.2,13.3z M124.2,11
		c0.1,0.5-0.3,0.4-0.6,0.4C123.7,11.2,123.8,11,124.2,11z M123.6,12.1C123.7,12,123.4,12.2,123.6,12.1L123.6,12.1z M123.6,12.9
		c0,0.4-0.3,0.4-0.2,0.8C123,13.8,123,12.6,123.6,12.9z M122.9,15.9C123.6,15.9,122.7,16.8,122.9,15.9L122.9,15.9z M122.9,20.7
		C123,20.6,122.8,20.9,122.9,20.7L122.9,20.7z M63.7,3.6C63.5,3.8,63.8,3.6,63.7,3.6L63.7,3.6z M14.5,44.1
		C15.2,44.4,14.3,45.3,14.5,44.1L14.5,44.1z M17.7,46.9C18.3,46.9,17.5,47.8,17.7,46.9L17.7,46.9z M27.6,53.8
		C27.7,53.8,27.5,54,27.6,53.8L27.6,53.8z M27.4,52.6C28,52.6,27.2,53.5,27.4,52.6L27.4,52.6z M11.4,108
		C10.6,107.4,12,107.3,11.4,108L11.4,108z M13.9,106.8c0.2,0,0.4,0,0.6,0C14.8,107.4,13.6,107.4,13.9,106.8z M16,105.3
		C16.7,105.6,15.2,105.8,16,105.3L16,105.3z M18.1,104.5c-0.4-0.2-0.6-0.9,0.2-0.8C18.4,104.1,18.2,104.2,18.1,104.5z M18.9,108.7
		c-0.6,0.2-0.4-0.5-0.4-0.8C18.9,107.9,19,108.2,18.9,108.7z M19.6,101.9c0.5-0.1,0.4,0.3,0.4,0.6C19.7,102.5,19.6,102.3,19.6,101.9
		z M38.1,161.8C38.8,161.9,37.9,162.7,38.1,161.8L38.1,161.8z M39.2,158.2C39.7,159,38.5,157.7,39.2,158.2L39.2,158.2z M40.7,157.2
		c-0.1,0-0.3,0-0.4,0c0-0.1,0-0.3,0-0.4c0.1,0,0.3,0,0.4,0C40.7,156.9,40.7,157.1,40.7,157.2z M42.6,155.5
		C43.2,155.5,42.4,156.4,42.6,155.5L42.6,155.5z M44.7,148.5C45.3,148.8,44.5,149.7,44.7,148.5L44.7,148.5z M150.1,157.8
		C150.8,157.9,149.9,158.7,150.1,157.8L150.1,157.8z M155.2,161.2c0.1,0,0.3,0,0.4,0c0,0.1,0,0.3,0,0.4c-0.1,0-0.3,0-0.4,0
		C155.2,161.5,155.2,161.3,155.2,161.2z M152.9,160.6C153.5,160.6,152.7,161.4,152.9,160.6L152.9,160.6z M151.4,155.9
		C152,156,151.2,156.8,151.4,155.9L151.4,155.9z M150.1,156.8C150.8,157,149.9,157.9,150.1,156.8L150.1,156.8z M149.1,152.1
		C149.6,152.8,148.4,151.6,149.1,152.1L149.1,152.1z M147.4,150.9C147.5,150.8,147.3,151,147.4,150.9L147.4,150.9z M147.4,151.9
		C147.5,151.8,147.3,152.1,147.4,151.9L147.4,151.9z M147.2,147.1C147.3,147,147,147.2,147.2,147.1L147.2,147.1z M147.2,153
		c0.5,0,0.1,0.7,0,0.8C146.7,153.8,147.1,153.1,147.2,153z M146.6,150.7C147.2,150.7,146.4,151.5,146.6,150.7L146.6,150.7z
		 M146.6,149.8C146.4,149.9,146.6,149.7,146.6,149.8L146.6,149.8z M146.6,147.5C147.3,147.8,145.9,148.1,146.6,147.5L146.6,147.5z
		 M146.1,146.6C146.2,146.6,146,146.8,146.1,146.6L146.1,146.6z M145.9,147.5c0.3-0.1,0.3,1.1-0.2,0.6
		C145.8,148.2,145.9,147.5,145.9,147.5z M171.2,106.2C171.3,106.1,171.1,106.3,171.2,106.2L171.2,106.2z M171.9,108.3
		C171.2,107.8,172.1,106.9,171.9,108.3L171.9,108.3z M172.9,107.8C173,107.7,172.8,108,172.9,107.8L172.9,107.8z M172.5,104.5
		c0.2,0,0.2-0.1,0.2-0.2c0.4-0.1,0.3,1-0.2,0.6C172.5,104.7,172.5,104.6,172.5,104.5z M172.5,107.4
		C172.6,107.3,172.4,107.6,172.5,107.4L172.5,107.4z M172.3,108.3C172.9,108.3,172.1,109.1,172.3,108.3L172.3,108.3z M171.9,104.5
		c-0.2,0-0.2-0.4-0.2-0.6c0.2,0,0.4,0,0.4-0.2C172.6,103.7,171.8,104.2,171.9,104.5z M172.1,101.5c0,0.4-0.3,0.4-0.2,0.8
		C171.5,102.4,171.5,101.2,172.1,101.5z M171,103.4c-0.1,0.1-0.1,0.1-0.2,0.1C170.9,103.5,171.8,102.9,171,103.4z M169.8,103.2
		C169.6,103.3,169.8,103.1,169.8,103.2L169.8,103.2z M168.9,102.4C169,102.3,168.8,102.5,168.9,102.4L168.9,102.4z M168.7,101.7
		c-0.2,0.4-0.4,0-0.6,0C168.2,101.3,168.5,101.7,168.7,101.7z M167.9,102.4C167.7,102.5,167.9,102.3,167.9,102.4L167.9,102.4z
		 M167.6,100.7c-0.1,0.4-0.1,0.9-0.6,0.8C167.4,101.4,167,100.5,167.6,100.7z M166.2,99.4C166.3,99.3,166,99.5,166.2,99.4
		L166.2,99.4z M165.1,99.2C165.8,99.5,164.3,99.7,165.1,99.2L165.1,99.2z M165.3,99.6C165.2,99.8,165.4,99.5,165.3,99.6L165.3,99.6z
		 M163.4,101.1c0.1-0.2,0.2-0.3,0.2-0.3c0,0.1-0.2,0.5-0.3,0.5C163.3,101.3,163.4,101.2,163.4,101.1z M160.7,98.3
		c0.5,0.1,0,0.8-0.4,0.6C160.3,98.7,160.6,98.6,160.7,98.3z M160.9,99.4C161.7,100,160.3,100.1,160.9,99.4L160.9,99.4z M159.2,98.3
		c0.3-0.1,0.4,0.2,0.6,0.2C159.9,99,158.9,98.9,159.2,98.3z M157.5,96.9c0.4,0.1,0,0.9,0.6,0.8C158,98.2,157.2,97.5,157.5,96.9z
		 M155,94.3c0.1-0.4,0.6-0.6,1.1-0.6C156.1,94.3,155.4,94.8,155,94.3z M155.2,95.4C155.9,95.7,154.4,95.9,155.2,95.4L155.2,95.4z
		 M155.8,90.1C156.5,90.4,155,90.6,155.8,90.1L155.8,90.1z M155.4,88.2C156,88.3,155.2,89.1,155.4,88.2L155.4,88.2z M155.4,88
		c-0.6,0.1-0.7-0.3-0.6-0.8C155.1,87.4,155.6,87.3,155.4,88z M155.2,84.4C155.8,84.5,155,85.3,155.2,84.4L155.2,84.4z M154.8,79.8
		C154.6,79.9,154.9,79.7,154.8,79.8L154.8,79.8z M154.8,82.5C154,81.8,155.6,81.5,154.8,82.5L154.8,82.5z M154.1,80.2
		C154.8,80.5,153.3,80.7,154.1,80.2L154.1,80.2z M152.9,74.1C153,74,152.7,74.2,152.9,74.1L152.9,74.1z M152,73.5
		C152.1,73.4,151.9,73.6,152,73.5L152,73.5z M151.2,68.2C152,68.7,150.5,68.5,151.2,68.2L151.2,68.2z M151.2,63.8
		C150.6,64.5,150.7,62.7,151.2,63.8L151.2,63.8z M151.2,66.1C151.3,66,151.1,66.2,151.2,66.1L151.2,66.1z M152.9,61.9
		C153.5,61.9,152.7,62.7,152.9,61.9L152.9,61.9z M155.6,61.2C156.2,61.9,155,60.6,155.6,61.2L155.6,61.2z M157.1,61.4
		C157.8,61.7,156.3,62,157.1,61.4L157.1,61.4z M157.3,59.1C157.2,59.3,157.4,59,157.3,59.1L157.3,59.1z M157.7,58.3
		C157.6,58.4,157.8,58.2,157.7,58.3L157.7,58.3z M159,60.4C159.7,60.7,158.2,60.9,159,60.4L159,60.4z M158.9,58
		C158.9,58.1,159,58.1,158.9,58c0.1,0,0.1,0,0.1,0C159,58.1,159,58.1,158.9,58z M159.8,58.3c-0.4,0.1-0.3-1,0.2-0.6
		C160.1,58,159.9,58,159.8,58.3z M161.1,59.1C161.2,59,161,59.3,161.1,59.1L161.1,59.1z M161.3,56.4
		C161.4,56.3,161.2,56.5,161.3,56.4L161.3,56.4z M166.4,52.2C167.1,52.5,165.7,52.8,166.4,52.2L166.4,52.2z M172.3,47.9
		C172.8,48.6,171.6,47.4,172.3,47.9L172.3,47.9z M172.9,49.2c-0.1,0-0.3,0-0.4,0c0-0.1,0-0.3,0-0.4c0.1,0,0.3,0,0.4,0
		C172.9,48.9,172.9,49.1,172.9,49.2z M173.3,48.1c-0.3-0.1-0.3-0.4-0.6-0.4C172.8,47.2,173.5,47.7,173.3,48.1z M172.7,46
		C172.8,45.9,172.6,46.2,172.7,46L172.7,46z M172.7,46.7c-0.1,0.3-0.5,0.4-0.8,0.4C172.1,46.7,172.3,46.3,172.7,46.7z M171.7,49.2
		c0.2,0.7-0.8,0.3-0.8,0.8C170.3,49.7,171.3,49.2,171.7,49.2z M170.4,48.8C171,48.8,170.2,49.7,170.4,48.8L170.4,48.8z M169.8,49.8
		C169.6,50,169.8,49.7,169.8,49.8L169.8,49.8z M169.5,48.1C169.6,48.1,169.4,48.3,169.5,48.1L169.5,48.1z M169.8,50.5
		c0,0.3,0,0.6,0,0.8c-0.4,0.1-0.6-0.1-0.8-0.2C169.1,50.8,169.2,50.4,169.8,50.5z M168.3,51.9C168.1,52.1,168.4,51.9,168.3,51.9
		L168.3,51.9z M167.6,49C167.5,49.1,167.7,48.9,167.6,49L167.6,49z M167.4,52.2C167.5,52.1,167.3,52.3,167.4,52.2L167.4,52.2z
		 M167,49.4C167.6,49.5,166.8,50.3,167,49.4L167,49.4z M166.4,50.7c0.6,0.2-0.2,0.6-0.2,0.8C165.5,51.3,166.4,51,166.4,50.7z
		 M164.9,49C164.8,49.1,165,48.9,164.9,49L164.9,49z M164.3,49.2C164.4,49.1,164.1,49.3,164.3,49.2L164.3,49.2z M163.4,52.2
		C163.5,52.1,163.3,52.3,163.4,52.2L163.4,52.2z M163,54.9C163.6,54.9,162.8,55.8,163,54.9L163,54.9z M163.2,49.8
		C163.3,49.7,163.1,50,163.2,49.8L163.2,49.8z M163,51.5C162.9,51.7,163.1,51.4,163,51.5L163,51.5z M161.7,50.3
		C161.8,50.2,161.6,50.4,161.7,50.3L161.7,50.3z M161.5,51.9C161.6,51.9,161.4,52.1,161.5,51.9L161.5,51.9z M160.9,53
		C160.8,53.1,161,52.9,160.9,53L160.9,53z M159.6,50.9C160.3,50.9,159.4,51.8,159.6,50.9L159.6,50.9z M159.6,52.2
		C160.3,52.2,159.4,53,159.6,52.2L159.6,52.2z M157.7,54.1C157,53.5,158.3,53,157.7,54.1L157.7,54.1z M155,55.3
		c-0.5-0.1-0.5-0.7-0.8-0.8C154.2,54.2,155.2,54.7,155,55.3z M153.5,54.5C153.6,54.4,153.4,54.6,153.5,54.5L153.5,54.5z M152.7,56
		c0.2,0,0.1,0.2,0,0.2c0.3,0.3,0.6,0.4,0.2,0.8C152.3,57,152.4,56.2,152.7,56z M159.6,54.6L159.6,54.6c0.1-0.1,0.1-0.1,0.1,0
		l2.9-1.1l-6.1,5.1c0.1-0.1,0.3,0.1,0.5,0.1c-0.2,0.4-0.4,0-0.6,0c0,0,0-0.1,0.1-0.1l-6.9,5.7c-0.9-1.7-1.9-3.4-2.9-5L159.6,54.6z
		 M149.9,67.6C150.6,67.6,149.7,68.4,149.9,67.6L149.9,67.6z M149.7,66.3C150.4,66.6,148.9,66.8,149.7,66.3L149.7,66.3z M149.3,64.4
		C149.2,64.5,149.4,64.3,149.3,64.4L149.3,64.4z M148.7,67.3C149.4,67.7,148,68,148.7,67.3L148.7,67.3z M151,54.7c0-0.1,0-0.3,0-0.4
		c0.5,0.3,1,0.6,0.8,1.5c-0.6,0-0.3-1-1.1-0.8C150.7,54.7,150.9,54.7,151,54.7z M150.4,57.8C150.4,57.8,150.2,58,150.4,57.8
		L150.4,57.8z M149.9,57.4C150,57.3,149.8,57.6,149.9,57.4L149.9,57.4z M148.5,56.2C148.5,56.1,148.3,56.3,148.5,56.2L148.5,56.2z
		 M147.4,58.5C148,58.5,147.2,59.4,147.4,58.5L147.4,58.5z M147.4,56C147.5,55.9,147.3,56.1,147.4,56L147.4,56z M147.2,56.6
		C147.3,56.5,147,56.7,147.2,56.6L147.2,56.6z M147,57.8c-0.1,0.3-0.5,0.4-0.8,0.4C146.1,57.7,146.7,57.6,147,57.8z M145.1,56.8
		C145.2,56.7,144.9,56.9,145.1,56.8L145.1,56.8z M144.9,57.4C145,57.3,144.7,57.6,144.9,57.4L144.9,57.4z M141.7,53
		C141.6,53.1,141.8,52.9,141.7,53L141.7,53z M138.8,49.8C138.6,50,138.8,49.7,138.8,49.8L138.8,49.8z M137.3,49.2
		C137.4,49.1,137.1,49.3,137.3,49.2L137.3,49.2z M134.3,47.1C134.4,47,134.2,47.2,134.3,47.1L134.3,47.1z M132.6,45
		C132.5,45.1,132.7,44.9,132.6,45L132.6,45z M129,42.2C129.8,42.6,128.4,42.9,129,42.2L129,42.2z M127.4,41.8
		C127.4,41.7,127.2,42,127.4,41.8L127.4,41.8z M125.7,40.8C125.5,40.9,125.8,40.7,125.7,40.8L125.7,40.8z M126.5,41.6
		c0-0.1,0-0.1,0-0.2c0.2,0.1,0.2,0.2,0.2,0.3c1.4,0.8,2.7,1.7,4,2.7c0,0,0.1-0.1,0,0l0,0c1,0.7,2,1.5,3,2.3l0,0l0,0
		c1.4,1.2,2.7,2.4,4,3.7c2,2,3.9,4.2,5.5,6.4l-2.4,0.9c0,0.2-0.2,0.3-0.3,0.1l-12.8,4.7c-0.1,0.2-0.3,0.3-0.6,0.3l0,0l-1.4,0.5
		c-0.2,0.1-0.3,0.3-0.3,0.6c-0.1-0.1-0.1-0.3-0.1-0.4l-6.8,2.5l-0.7,4.1l1.9-0.7c0-0.1,0-0.2,0-0.4c0.2,0.1,0.2,0.2,0.2,0.3l0.8-0.3
		l0,0l0,0l6.3-2.3l0,0l0,0l0.8-0.3v-0.1c0.1,0,0.2,0,0.3,0l3.3-1.2c0-0.1-0.1-0.2-0.3-0.3c0.1-0.4,0.5-0.2,0.6,0.1l1.3-0.5
		c-0.1-0.3,0.1-0.8,0-1.1c0.7,0.2,0.2,0.5,0.2,1.1l11.8-4.3c0-0.1-0.1-0.2,0-0.5c0.3,0.1,0.3,0.4,0.1,0.5c1,1.5,1.8,3,2.7,4.6
		c0.2,0,0.2,0.2,0.1,0.3c0.1,0.2,0.2,0.4,0.3,0.6l-1,0.9c0.3,0.1-0.2,0.7-0.1,0.1l-6.7,5.6c0.1,0.2-0.2,0.5-0.2,0.2l-2.3,2
		c0.2,0.2-0.2,0.3-0.3,0.2l-13.4,11.2c0.2,0.3-0.2,0.4-0.3,0.2l-0.7,0.6c0.1,0,0.2,0.2,0,0.5c-0.1-0.1-0.2-0.2-0.2-0.3l-1.4,1.1
		c0.5,0.1,0.6,1,0.3,1.2c-0.2-0.4-0.1-0.6-0.4-1.2l-2.9,2.4c-0.1-0.9-0.2-1.8-0.4-2.7c0,0.1-0.1,0.1-0.2,0.2
		c-0.4-0.3-0.1-0.5,0.1-0.5c-0.1-0.4-0.2-0.9-0.3-1.3l3.4,1.2l0.5-0.4c-0.3-0.3-0.5-0.7-0.7-1.1c0.4,0.2,0.7,0.5,0.8,1l2.4-2
		c0-0.1,0-0.2,0-0.3l-0.9-0.3c0.2,0.3,0.3,0.6,0,0.7c-0.1,0-0.3,0-0.4,0c0-0.3,0-0.6,0-0.9l-1.1-0.4c-0.6,0.5-1.1-0.1-1.5-0.5
		l-4.3-1.6c-0.2-0.4-0.5-0.9-0.7-1.3c0,0-0.1,0.1,0,0l0,0c-0.1-0.1-0.1-0.2-0.2-0.3l3.9-22c-0.1,0.1-0.3,0.2-0.2-0.3
		c0.1,0,0.2,0.1,0.2,0.1l1.6-9c-0.2-0.4-0.3-0.8-0.6-1.4c0.5,0.3,0.6,0.3,0.8,0.3l0.3-1.9c0,0,0,0-0.1,0c0-0.1,0.1-0.1,0.1-0.2
		l0.8-4.4c0-0.1,0-0.1-0.1-0.2c0,0,0.1,0,0.1,0.1l0.2-1.2C123.9,40.1,125.2,40.8,126.5,41.6z M142.8,57
		C143.4,57,142.6,57.9,142.8,57L142.8,57z M142.1,58.5c-0.3,0.1-0.1-1,0.4-0.8C142.8,58.3,142.2,58.2,142.1,58.5z M141.7,60.8
		C141.6,60.9,141.8,60.7,141.7,60.8L141.7,60.8z M140.2,61.6C140.3,61.6,140.1,61.8,140.2,61.6L140.2,61.6z M139.4,61.2
		C139.5,61.1,139.2,61.4,139.4,61.2L139.4,61.2z M136,61.6C136.6,61.9,135.8,62.8,136,61.6L136,61.6z M134.5,61.9
		C135.2,61.9,134.3,62.7,134.5,61.9L134.5,61.9z M131.8,62.1c-0.1,0.2-0.4,0.1-0.4,0.4C130.8,62.4,131.4,61.8,131.8,62.1z M130.5,64
		C131.2,64,130.3,64.8,130.5,64L130.5,64z M130.5,63.3C130.4,63.5,130.6,63.2,130.5,63.3L130.5,63.3z M129.3,63.5
		C129.6,62.5,130.3,63.3,129.3,63.5L129.3,63.5z M128.6,64.4c0.1,0,0.3,0,0.4,0c0.1,0.4,0,0.7-0.4,0.6
		C128.6,64.8,128.6,64.6,128.6,64.4z M128.4,62.9C129,63,128.2,63.8,128.4,62.9L128.4,62.9z M128,64L128,64C128,64,128,63.9,128,64z
		 M126.5,64.6C126.6,64.5,126.4,64.7,126.5,64.6L126.5,64.6z M125.9,64.2C126,64.1,125.7,64.3,125.9,64.2L125.9,64.2z M125.7,66.5
		c-0.5,0.5-1.1-0.5-0.4-0.8C125.8,65.8,124.8,66.4,125.7,66.5z M123.8,65.2C124.4,65.3,123.6,66.1,123.8,65.2L123.8,65.2z
		 M123.8,66.1C123.9,66,123.6,66.2,123.8,66.1L123.8,66.1z M122.3,65c0.5,0.5,0.3-0.5,1.3-0.2C123.5,65.2,122.2,65.9,122.3,65z
		 M122.9,67.6C123.6,67.6,122.7,68.4,122.9,67.6L122.9,67.6z M121.2,66.9c-0.2-0.3-1,0-0.8-0.6c0.5,0.6,0.6-0.3,1.3-0.2
		C121.6,66.4,121,66.3,121.2,66.9z M120.4,65.4C120.3,65.6,120.5,65.4,120.4,65.4L120.4,65.4z M121.7,68
		C122.3,68,121.5,68.8,121.7,68L121.7,68z M148,69.9C148.1,69.8,147.9,70,148,69.9L148,69.9z M147.6,70.1
		C146.8,69.8,147.7,68.9,147.6,70.1L147.6,70.1z M146.1,68.2c0.6-0.1,0.7,0.3,0.6,0.8C146.2,69.1,146.2,68.6,146.1,68.2z
		 M146.1,70.9C146.8,71.2,145.3,71.5,146.1,70.9L146.1,70.9z M144,73C144.7,73.1,143.8,73.9,144,73L144,73z M144,72.2
		C143.9,72.3,144.1,72.1,144,72.2L144,72.2z M142.5,74.5C142.6,74.4,142.4,74.7,142.5,74.5L142.5,74.5z M140.9,75.7
		c0,0-0.1,0.1-0.1,0.2c-0.1,0.1-0.1,0.2-0.1,0.2s0.1-0.1,0.1-0.2l0,0C140.9,75.7,140.9,75.7,140.9,75.7z M140,72.8
		C140.6,72.9,139.8,73.7,140,72.8L140,72.8z M139.2,74.1C139.3,74,139,74.2,139.2,74.1L139.2,74.1z M137.3,76.2
		c-0.5,0.1-0.3-0.4-0.6-0.4C136.7,75.3,137.5,75.8,137.3,76.2z M135.2,78.5c0-0.5,0.2-0.7,0.6-0.6c0.2,0.2,0.2,0.5,0.2,0.8
		C135.6,78.8,135.6,78.5,135.2,78.5z M135.2,80.8C135.3,80.8,135,81,135.2,80.8L135.2,80.8z M133.7,79.8
		C133.8,79.7,133.6,79.9,133.7,79.8L133.7,79.8z M131.8,81.5C131.9,81.4,131.7,81.6,131.8,81.5L131.8,81.5z M128.4,82.7
		C129,82.8,128.2,83.6,128.4,82.7L128.4,82.7z M128.2,85.7c0.1,0.6-0.4,0.5-0.8,0.6C127.5,86,127.7,85.7,128.2,85.7z M127.6,83.8
		C128.1,84.5,126.9,83.3,127.6,83.8L127.6,83.8z M125.9,86.1C125.2,85.6,126.6,85.3,125.9,86.1L125.9,86.1z M125.5,85.3
		c0,0.1,0,0.3,0,0.4c-0.1,0-0.3,0-0.4,0c0-0.1,0-0.3,0-0.4C125.2,85.3,125.3,85.3,125.5,85.3z M122.7,87.6c0.2-0.7,0.9-0.8,1.5-1.1
		c0.1,0.2,0.2,0.4,0.4,0.4C124.2,86.9,123.2,87.1,122.7,87.6z M123.6,89.3c0,0.5-0.2,0.7-0.6,0.6C122.9,89.4,123.1,89.2,123.6,89.3z
		 M122.5,88C123.1,88.1,122.3,88.9,122.5,88L122.5,88z M121.2,88.2C121.3,88.1,121.1,88.4,121.2,88.2L121.2,88.2z M119.3,91.2
		C119.4,91.1,119.2,91.3,119.3,91.2L119.3,91.2z M118.9,91.8C119,91.7,118.8,91.9,118.9,91.8L118.9,91.8z M117.5,91.8
		c0,3-0.6,5.8-1.7,8.4c0.1,0,0.2,0.1,0.4,0c0,0.2-0.3,0.2-0.5,0.3c0,0.1-0.1,0.1-0.1,0.2c0,0.2,0,0.4,0,0.6c-0.1,0-0.2,0-0.3,0
		c-0.8,1.7-1.9,3.2-3.1,4.6c0,0.1-0.1,0.3-0.2,0.2c-3.8,4.2-9.2,6.8-15.2,7c0,0.1,0,0.1,0,0.2c-0.2,0-0.2,0.1-0.2,0.2
		c-0.3-0.1-0.3-0.4-0.6-0.4l0,0c-6.9-0.1-13.1-3.5-16.9-8.8c0,0.1-0.1,0.2-0.2,0.3c-0.4-0.3-0.1-0.5,0.1-0.5c-1.4-2-2.5-4.2-3.2-6.6
		c-0.2-0.1-0.4-0.3-0.3-0.7l0.1,0.1c-0.4-1.6-0.7-3.4-0.7-5.1c0-1.8,0.2-3.5,0.6-5.1c-0.3-0.1-0.2-0.8,0.2-0.7
		c0.8-2.9,2.2-5.6,4.1-7.8c0-0.2,0-0.4,0-0.6c0.1,0,0.2,0.1,0.3,0.2c3.5-4,8.5-6.7,14.2-7.2c0-0.2,0-0.4-0.1-0.6
		c0.4,0,0.6,0.3,0.6,0.6c0.5,0,0.9-0.1,1.4-0.1c5.4,0,10.4,2.1,14.1,5.4c0.1-0.1,0.3-0.2,0.5-0.2c0.1,0.3-0.1,0.4-0.3,0.4
		c1.6,1.5,3,3.2,4.1,5.1l0,0c0.3,0.1,0.3,0.3,0.2,0.3c1.1,2,1.9,4.2,2.3,6.5c0.1-0.1,0.2-0.1,0.3-0.2c0.1,0.2,0,0.4-0.2,0.6
		c0.1,0.4,0.1,0.8,0.2,1.2c0,0,0-0.1,0.1-0.1c0.2,0.5,0.1,1.4,0,2C117.5,91.6,117.5,91.7,117.5,91.8z M117.4,99.2
		C116.8,98.7,117.7,97.8,117.4,99.2L117.4,99.2z M117.2,100C118,100.4,116.5,100.7,117.2,100L117.2,100z M116,100.7
		C116.7,101,115.3,101.3,116,100.7L116,100.7z M115.8,101.9C116.4,102,115.6,102.8,115.8,101.9L115.8,101.9z M114.3,103.4
		C114.9,103.5,114.1,104.3,114.3,103.4L114.3,103.4z M113,107.4C113.8,107.9,112.3,107.7,113,107.4L113,107.4z M110.9,107.4
		C111.5,107.5,110.7,108.3,110.9,107.4L110.9,107.4z M109.4,108.9C110.1,108.9,109.2,109.8,109.4,108.9L109.4,108.9z M109.2,112.7
		c0,0.5-0.2,0.7-0.6,0.6C108.8,113.1,108.7,112.5,109.2,112.7z M108,114.8C108.5,115.4,107.3,114.2,108,114.8L108,114.8z
		 M107.1,116.5C107.2,116.4,107,116.6,107.1,116.5L107.1,116.5z M105.6,115.9C106,114.9,106.7,115.6,105.6,115.9L105.6,115.9z
		 M101.2,112.7C101.8,112.7,101,113.6,101.2,112.7L101.2,112.7z M100.6,113.1C101.2,113.4,100.3,114.2,100.6,113.1L100.6,113.1z
		 M93.2,115.4C94,116,92.5,115.7,93.2,115.4L93.2,115.4z M90.7,117.1C91.4,117.8,90,117.8,90.7,117.1L90.7,117.1z M90,114.6
		c0.1-0.6,0.5,0.2,0.8,0C90.7,115.2,90.2,114.9,90,114.6z M89.8,113.3C90.3,114,89.1,112.8,89.8,113.3L89.8,113.3z M87.1,111.6
		c-0.5,0.1-0.4-0.3-0.4-0.6C86.9,111.1,87.1,111.3,87.1,111.6z M86.2,122.8c0.1,0,0.3,0,0.4,0c0,0.1,0,0.3,0,0.4c-0.1,0-0.3,0-0.4,0
		C86.2,123.1,86.2,123,86.2,122.8z M85.8,120.9c-0.1-0.4,0.1-0.6,0.2-0.8C86.6,120.1,86.5,121.1,85.8,120.9z M86.4,131
		C87.1,131.1,86.2,131.9,86.4,131L86.4,131z M85.8,118c-0.2-0.6,0.5-0.4,0.8-0.4C86.6,117.9,86.3,118,85.8,118z M85.4,112.5
		c-0.5-0.3-0.6-0.9-0.8-1.5c0.6,0.1,0.8,0.6,1.3,0.8C85.7,112.1,85.4,112.2,85.4,112.5z M85.2,115.2C85.8,115.3,85,116.1,85.2,115.2
		L85.2,115.2z M83.9,111.2C84.7,111.7,83.2,111.5,83.9,111.2L83.9,111.2z M83.5,113.7C83.3,112.8,84.5,113.4,83.5,113.7L83.5,113.7z
		 M84.5,113.1c0.1,0.3-0.2,0.4-0.2,0.6C83.9,113.8,84,112.8,84.5,113.1z M84.1,115.4c0.6,0.1,0.9,1,0,1.1
		C84.1,116.1,84.1,115.8,84.1,115.4z M85.4,110.6C86,110.6,85.2,111.5,85.4,110.6L85.4,110.6z M86,114.8
		C86.7,115.1,85.2,115.3,86,114.8L86,114.8z M82.9,110.4c-0.4-0.1-0.5-0.4-0.4-0.8C83.1,109.3,82.8,110,82.9,110.4z M80.5,108.3
		C79.9,107.8,81.3,107.4,80.5,108.3L80.5,108.3z M79.9,106c-0.1-0.2-0.4-0.9-0.2-0.5C79.8,105.8,79.9,105.9,79.9,106z M76.1,100.7
		c-0.5,0.9-0.3-0.7-0.6-0.6C75.8,99.3,75.8,100.7,76.1,100.7z M75.5,98.8C75.6,98.7,75.3,98.9,75.5,98.8L75.5,98.8z M75.1,97.7
		C75.1,97.6,74.9,97.9,75.1,97.7L75.1,97.7z M76.7,81.1C76.8,81,76.6,81.2,76.7,81.1L76.7,81.1z M78.2,76.6
		c-0.1,0.3-0.3,0.4-0.6,0.4C77.5,76.5,77.9,76.3,78.2,76.6z M78.2,74.9C78.1,75.1,78.3,74.8,78.2,74.9L78.2,74.9z M78.6,79.6
		C78.5,79.7,78.7,79.5,78.6,79.6L78.6,79.6z M79.1,73.5C79.9,74,78.4,73.8,79.1,73.5L79.1,73.5z M80.5,76.4
		C80.6,76.3,80.4,76.5,80.5,76.4L80.5,76.4z M83.1,74.5C82.9,74.7,83.2,74.4,83.1,74.5L83.1,74.5z M84.1,74.3
		C84,74.4,84.2,74.2,84.1,74.3L84.1,74.3z M84.1,69.7C84,69.8,84.2,69.6,84.1,69.7L84.1,69.7z M84.5,72.2
		C84.4,72.3,84.6,72.1,84.5,72.2L84.5,72.2z M90,70.5C90.7,70.5,89.8,71.4,90,70.5L90,70.5z M91.3,69C92,69.4,90.6,69.7,91.3,69
		L91.3,69z M92.3,67.1c-0.3-0.1-0.4-0.3-0.4-0.6C92.2,66.6,92.4,66.8,92.3,67.1z M92.3,65.9C92.4,65.8,92.2,66,92.3,65.9L92.3,65.9z
		 M92.8,66.5C92.6,66.6,92.9,66.4,92.8,66.5L92.8,66.5z M93.2,64C93.9,64.3,92.5,64.6,93.2,64L93.2,64z M93.4,70.3
		C93.3,70.4,93.5,70.2,93.4,70.3L93.4,70.3z M93.2,69.2C93.3,69.2,93.1,69.4,93.2,69.2L93.2,69.2z M93.6,67.6
		C94.2,67.6,93.4,68.4,93.6,67.6L93.6,67.6z M94,66.1C93.9,66.2,94.1,66,94,66.1L94,66.1z M94.7,69.5C94.8,69.4,94.5,69.6,94.7,69.5
		L94.7,69.5z M96.4,70.1C95.6,69.4,97,69.4,96.4,70.1L96.4,70.1z M99.3,69.5c-0.1,0.6-0.4,1-1.1,1.1C98.5,70,98.9,69.7,99.3,69.5z
		 M98.5,69C98.6,68.9,98.3,69.2,98.5,69L98.5,69z M98.9,66.5C98.7,66.6,99,66.4,98.9,66.5L98.9,66.5z M98.9,64.8
		C99.5,64.9,98.7,65.7,98.9,64.8L98.9,64.8z M99.3,70.3C100.1,70.6,98.6,71,99.3,70.3L99.3,70.3z M99.5,68.8
		C99.4,69,99.6,68.7,99.5,68.8L99.5,68.8z M100.6,69.7C100.4,69.8,100.7,69.6,100.6,69.7L100.6,69.7z M101.4,69.7
		C102,69.7,101.2,70.5,101.4,69.7L101.4,69.7z M102.3,69.5C102.1,69.6,102.3,69.4,102.3,69.5L102.3,69.5z M104.4,71.1
		c-0.1,0-0.3,0-0.4,0c0-0.1,0-0.3,0-0.4c0.1,0,0.3,0,0.4,0C104.4,70.9,104.4,71,104.4,71.1z M104.8,72.2c-0.4,0.1-0.4-0.3-0.4-0.6
		C104.6,71.7,104.8,71.8,104.8,72.2z M106.1,70.5C106.8,70.9,105.4,71.2,106.1,70.5L106.1,70.5z M108.8,72.6c0,0.1,0,0.3,0,0.4
		c-0.1,0-0.3,0-0.4,0c0-0.1,0-0.3,0-0.4C108.5,72.6,108.7,72.6,108.8,72.6z M108.8,71.6C108.7,71.7,108.9,71.5,108.8,71.6
		L108.8,71.6z M113.2,77c0.1,0.5-0.4,0.3-0.4,0.6C112.3,77.6,112.8,76.9,113.2,77z M113,76.4C113.1,76.3,112.9,76.5,113,76.4
		L113,76.4z M113.4,74.9c-0.3-0.2-0.5-0.6-0.2-0.8C113.6,74.3,113.7,74.7,113.4,74.9z M113.7,76.6C114.4,77.7,113,77.9,113.7,76.6
		L113.7,76.6z M114.3,72.4C114.1,72.5,114.4,72.3,114.3,72.4L114.3,72.4z M114.3,77.9C114.9,78.1,114.1,79,114.3,77.9L114.3,77.9z
		 M114.9,69.9c0.3,0,0.4,1.4-0.2,1.1C114.6,70.4,115.1,70.5,114.9,69.9z M115.1,62.1C115.8,62.4,114.3,62.6,115.1,62.1L115.1,62.1z
		 M117.4,85.9c-0.2,0-0.2,0.4-0.2,0.6c-0.3-0.1-0.2-0.5-0.2-0.8c0.2,0,0.4,0,0.6,0C117.7,85.9,117.6,85.9,117.4,85.9z M117.2,84.6
		C117.9,84.9,117,85.8,117.2,84.6L117.2,84.6z M117.7,101.1C117.7,101,117.5,101.2,117.7,101.1L117.7,101.1z M117.7,92.4
		c0.2-0.2,0.1-0.8,0.6-0.6C118.4,92.4,118.2,92.6,117.7,92.4z M118.3,91.2L118.3,91.2C118.2,91.1,118.3,91.1,118.3,91.2L118.3,91.2
		c0.1,0.1,0.1,0.2,0.2,0.3C118.4,91.4,118.4,91.3,118.3,91.2z M118.5,88.2C118.6,88.1,118.4,88.4,118.5,88.2L118.5,88.2z
		 M118.3,82.3C118.9,82.4,118.1,83.2,118.3,82.3L118.3,82.3z M118.7,84.2c0-0.2,0-0.4,0-0.6c0.5,0,0.7,0.2,0.6,0.6
		C119.1,84.2,118.9,84.2,118.7,84.2z M120.8,83.6c0.6,0.3-0.2,0.9-0.2,1.3C119.7,84.6,120.8,84.1,120.8,83.6z M120.4,83.2
		C121,83.2,120.2,84,120.4,83.2L120.4,83.2z M121.7,84.2c0.2,0,0.4,0,0.6,0c-0.3,0.4-0.7,0.7-1.3,0.8
		C121,84.5,121.9,84.9,121.7,84.2z M122.7,84.8c-0.1,0.2-0.5,0.2-0.4,0.6C121.8,85.4,122.3,84.7,122.7,84.8z M120.4,85.1
		C120.3,85.2,120.5,85,120.4,85.1L120.4,85.1z M122.9,85.7C123,85.6,122.8,85.8,122.9,85.7L122.9,85.7z M115.5,63.5
		C115.6,63.5,115.4,63.7,115.5,63.5L115.5,63.5z M115.5,58.5C116.2,58.5,115.3,59.4,115.5,58.5L115.5,58.5z M115.5,74.3
		C115.6,74.2,115.4,74.4,115.5,74.3L115.5,74.3z M116.4,61.4C116.5,61.3,116.3,61.6,116.4,61.4L116.4,61.4z M117.9,52.2
		C118,52.1,117.7,52.3,117.9,52.2L117.9,52.2z M117.9,51.1C118,51,117.7,51.2,117.9,51.1L117.9,51.1z M118.1,55.3
		c-0.2,0.3-0.2,0.9-0.8,0.8c0-0.4-0.3-0.4-0.2-0.8C117.6,55.3,117.7,54.9,118.1,55.3z M117.7,65.4C118.3,65.5,117.5,66.3,117.7,65.4
		L117.7,65.4z M117.7,62.7C117.7,62.6,117.5,62.8,117.7,62.7L117.7,62.7z M117.2,64C116.6,63.5,117.5,62.6,117.2,64L117.2,64z
		 M117.2,66.1C117.1,67,116,65.9,117.2,66.1L117.2,66.1z M117,56.8C116.7,58,116,56,117,56.8L117,56.8z M120.4,38.2
		c-0.3,0.3-1.2,0.7-1.1-0.2C119.8,38,120.2,38.1,120.4,38.2z M120,36.3C119.8,36.5,120.1,36.2,120,36.3L120,36.3z M122.1,36.5
		c0.3,0.1,0.3,0.4,0.6,0.4C122.6,37.7,121.9,37.3,122.1,36.5z M122.5,38.7C122,38.1,123.1,37.4,122.5,38.7L122.5,38.7z M122.1,39.3
		C122.7,39.3,121.9,40.2,122.1,39.3L122.1,39.3z M122.3,32.1C122.2,32.3,122.4,32,122.3,32.1L122.3,32.1z M122.3,29.4
		C123,29.7,121.5,29.9,122.3,29.4L122.3,29.4z M122.1,28.3C121.9,28.5,122.2,28.2,122.1,28.3L122.1,28.3z M122.1,25.4
		C121.3,24.7,122.7,24.7,122.1,25.4L122.1,25.4z M121.9,30c0.7,0.1,0.3,0.8,0.2,1.3C121.6,31.2,122,30.4,121.9,30z M121.9,33.6
		c-0.3,0.4-0.2,0.5,0.4,0.4c0,0.2,0,0.4,0,0.6C121.7,34.8,121,33.5,121.9,33.6z M121.7,28.5c-0.1,0-0.3,0-0.4,0c0-0.1,0-0.3,0-0.4
		c0.1,0,0.3,0,0.4,0C121.7,28.3,121.7,28.4,121.7,28.5z M121.5,31.1C121.4,31.1,121.4,31.1,121.5,31.1C121.5,31,121.5,31,121.5,31.1
		z M121.5,36.5C120.5,37.3,120.6,35.5,121.5,36.5L121.5,36.5z M121.5,37.8c-0.4-0.1-0.5-0.4-0.4-0.8
		C121.3,37.1,121.4,37.4,121.5,37.8z M120.8,39.3c0.7-0.7,0.7,0.7,0.2,1.1C120,40.2,121.5,39.6,120.8,39.3z M121.2,42
		c0.1,0.7-0.4,0.3-0.6,0.2C120.6,42,121,42.1,121.2,42z M118.7,57.2C119,55.7,119.9,56.6,118.7,57.2L118.7,57.2z M118.9,58.1
		C119,58,118.8,58.2,118.9,58.1L118.9,58.1z M118.5,59.4c-0.1,0.1-0.1,0.2-0.1,0.2C118.4,59.6,118.4,59.5,118.5,59.4
		C118.5,59.4,118.5,59.3,118.5,59.4c0.1-0.1,0.1-0.1,0.1-0.2C118.5,59.3,118.5,59.3,118.5,59.4z M118.5,61.2
		C118.6,61.1,118.4,61.4,118.5,61.2L118.5,61.2z M118.5,50.9c0-0.4,0.3-0.4,0.2-0.8C119.3,50.1,119.2,51,118.5,50.9z M118.9,49.2
		c0.1,0.4,0,0.7-0.4,0.6c0-0.2,0-0.4,0-0.6C118.6,49.2,118.8,49.2,118.9,49.2z M118.7,48.4C119.5,48.7,118,49,118.7,48.4L118.7,48.4
		z M118.9,53.6c0.6,0.1,0.7,0.6,0.8,1.1C118.9,54.9,119.1,54.1,118.9,53.6z M119.6,52.2C119.4,52.3,119.6,52.1,119.6,52.2
		L119.6,52.2z M118.7,51.7c0.2-0.3,0.5-0.5,1.1-0.4C119.6,51.7,119.1,52.2,118.7,51.7z M119.6,50.7C120.3,51,118.7,51.2,119.6,50.7
		L119.6,50.7z M119.6,49.6c-0.9-0.1-0.3-2.1,0.4-1.3C119.3,48.6,119.9,49.3,119.6,49.6z M119.8,46.5
		C119.6,46.6,119.9,46.4,119.8,46.5L119.8,46.5z M119.8,44.1c0-0.3,0-0.6,0-0.8C120.5,43.3,120.6,44.3,119.8,44.1z M120.4,49.6
		C119.7,49.1,121,48.6,120.4,49.6L120.4,49.6z M120.2,51.5C120.1,51.7,120.3,51.4,120.2,51.5L120.2,51.5z M120.2,41.2
		c0.2,0.1,0.1,0.4,0.4,0.4C120.4,42.2,119.7,41.4,120.2,41.2z M120.4,31.9C121,31.9,120.2,32.8,120.4,31.9L120.4,31.9z M119.6,40.3
		c0.6,0.2-0.2,0.6-0.2,0.8c-0.2-0.1-0.1-0.4-0.4-0.4c0-0.2,0.2-0.1,0.2,0C119.3,40.7,119.5,40.6,119.6,40.3z M119.1,43.5
		C119.8,43.5,118.9,44.4,119.1,43.5L119.1,43.5z M119.3,47.1c-0.3-0.4-1-1-0.4-1.7C119.2,46,119.7,46.4,119.3,47.1z M118.7,43.7
		C119.2,44.4,118,43.2,118.7,43.7L118.7,43.7z M118.5,45c-0.3-0.1-0.2-0.5-0.2-0.8C118.8,44.2,118.8,44.7,118.5,45z M118.3,47.1
		C118.9,47.3,118.1,48.2,118.3,47.1L118.3,47.1z M122.5,35.7C123.1,35.7,122.3,36.6,122.5,35.7L122.5,35.7z M122.5,14.8
		C123.2,15.1,122.3,15.9,122.5,14.8L122.5,14.8z M121.9,19.5C122.4,20.2,121.2,19,121.9,19.5L121.9,19.5z M121.5,18.2
		c0.5-0.4-0.2-0.9,0.2-1.3C122,16.9,122.1,18.5,121.5,18.2z M121.7,14.4C122.4,15,121,15.1,121.7,14.4L121.7,14.4z M121.2,15.5
		C121.9,15.5,121,16.3,121.2,15.5L121.2,15.5z M121.2,21.8C121.3,21.7,121.1,21.9,121.2,21.8L121.2,21.8z M120.2,22.6
		C121,23.2,119.5,22.9,120.2,22.6L120.2,22.6z M120,20.1C120.6,20.1,119.8,21,120,20.1L120,20.1z M120.2,21.8
		C120.8,21.8,120,22.7,120.2,21.8L120.2,21.8z M120.4,18.8C120.5,18.7,120.3,19,120.4,18.8L120.4,18.8z M120,17.4
		c0.1,0.2,0.2,0.6,0.4,1.3C119.7,18.7,119.6,17.7,120,17.4z M119.8,21.6C119.6,21.7,119.9,21.5,119.8,21.6L119.8,21.6z M119.6,22.8
		C119.4,23,119.6,22.7,119.6,22.8L119.6,22.8z M119.1,19.3C118.6,18.7,119.7,18,119.1,19.3L119.1,19.3z M118.9,23.7
		C119,23.6,118.8,23.8,118.9,23.7L118.9,23.7z M118.5,25.8C118.6,25.7,118.4,25.9,118.5,25.8L118.5,25.8z M118.1,20.7
		C118.9,21.3,117.4,21,118.1,20.7L118.1,20.7z M118.4,21.8C118.3,21.8,118.3,21.8,118.4,21.8C118.3,21.8,118.3,21.8,118.4,21.8
		C118.3,21.8,118.3,21.8,118.4,21.8z M117.4,24.9c0.5,0.1,0,0.8-0.4,0.6C116.9,25.1,117.4,25.3,117.4,24.9z M116.6,27.9
		c0.5-0.1,0.3,0.4,0.6,0.4C117.3,28.7,116.4,28.3,116.6,27.9z M120.7,22.9C120.7,22.9,120.6,22.9,120.7,22.9
		c-0.1-0.2-0.1-0.3-0.1-0.4c0.2,0,0.2-0.1,0.2-0.2c0.1,0,0.1,0,0.2,0.1l1.4-2.5l-0.4,2.5c0.1,0,0.2,0,0.3,0
		c-0.6,0.6,0.2,0.7,0.2,1.3c-0.2,0-0.5-0.2-0.6-0.4l-0.4,2.3c0,0.1,0,0.2,0,0.3l-1.3,7.1c0,0.1,0,0.2,0.1,0.4l-0.1-0.1l-0.6,3.4
		c-0.5-0.2-0.9-0.4-1.4-0.6c-0.2,0.3-0.5,0.7-0.2,0.7c-0.1,0.3-0.3-0.1-0.6,0c0.2-0.2,0.3-0.5,0.5-0.8c-1.2-0.5-2.4-0.9-3.7-1.3
		l0.2-0.4l0,0L120.7,22.9z M116.2,26.6C116.9,27,115.5,27.3,116.2,26.6L116.2,26.6z M115.8,29.8C116.4,29.8,115.6,30.7,115.8,29.8
		L115.8,29.8z M115.8,25.6C115.8,25.5,115.6,25.7,115.8,25.6L115.8,25.6z M115.5,28.7C116.2,28.8,115.3,29.6,115.5,28.7L115.5,28.7z
		 M115.5,31.3C115.6,31.2,115.4,31.4,115.5,31.3L115.5,31.3z M114.7,30.6c-0.3-0.1-0.2-0.5-0.2-0.8C115,29.9,115,30.4,114.7,30.6z
		 M114.5,26.6C115.2,26.9,113.7,27.2,114.5,26.6L114.5,26.6z M114.3,29.2C114.1,29.3,114.4,29.1,114.3,29.2L114.3,29.2z M113.9,33.8
		c-1-0.6,0.2-1.2,0.2-2.1C114.6,32.5,113.7,33.1,113.9,33.8z M113.7,30.4c0.3,0.6-0.3,0.9-0.8,1.5C112.2,31.4,113.5,30.9,113.7,30.4
		z M113,34.4C113.8,35,112.3,34.7,113,34.4L113,34.4z M113,33.4C113.7,33.6,112.8,34.5,113,33.4L113,33.4z M112.2,32.5
		C112,32.7,112.3,32.5,112.2,32.5L112.2,32.5z M111.8,35.1c0.5,0,0.5,0.5,0.4,1.1C111.7,36.1,111.7,35.6,111.8,35.1z M111.5,34
		C110.1,33.4,111,32.6,111.5,34L111.5,34z M111.5,38.2C111.3,39.6,110.4,39,111.5,38.2L111.5,38.2z M110.5,35.1
		c0.5,0.1,0.6,0.7,0.8,1.1C110.7,36.1,110.4,35.8,110.5,35.1z M110.3,34C110.9,34.3,110,35.1,110.3,34L110.3,34z M110.1,39.9
		c-0.2,0-0.4,0-0.6,0c-0.1-0.4,0.1-0.6,0.2-0.8C109.9,39.2,110,39.5,110.1,39.9z M109.9,36.5c-0.2,0-0.4,0-0.6,0
		c0-0.5,0.2-0.7,0.6-0.6C109.9,36.1,109.9,36.3,109.9,36.5z M109.2,40.3C109.1,40.5,109.3,40.3,109.2,40.3L109.2,40.3z M109.6,34.2
		C109.5,34.4,109.7,34.1,109.6,34.2L109.6,34.2z M106.9,33.8C107,33.7,106.8,33.9,106.9,33.8L106.9,33.8z M105.4,33
		C105.3,33.1,105.5,32.9,105.4,33L105.4,33z M103.1,32.5c0.2,0,0.2-0.1,0.2-0.2c0.4-0.1,0.3,1-0.2,0.6
		C103.1,32.8,103.1,32.7,103.1,32.5z M101.6,32.1c-0.1,0.2-0.4,0.1-0.4,0.4C100.6,32.4,101.2,31.9,101.6,32.1z M101,33
		C100.9,33.1,101.1,32.9,101,33L101,33z M98.9,32.8c0.1,0,0.3,0,0.4,0c0,0.1,0,0.3,0,0.4c-0.1,0-0.3,0-0.4,0
		C98.9,33,98.9,32.9,98.9,32.8z M96.8,32.8c0.1,0,0.3,0,0.4,0c0,0.1,0,0.3,0,0.4c-0.1,0-0.3,0-0.4,0C96.8,33,96.8,32.9,96.8,32.8z
		 M94.7,33C94.8,32.9,94.5,33.1,94.7,33L94.7,33z M94,33C93.9,33.1,94.1,32.9,94,33L94,33z M90.7,32.5
		C91.3,32.6,90.5,33.4,90.7,32.5L90.7,32.5z M89.8,32.8C89.7,32.9,89.9,32.7,89.8,32.8L89.8,32.8z M85.8,33
		C85.2,33.6,85.5,32.2,85.8,33L85.8,33z M84.8,33.4C85.4,33.4,84.6,34.3,84.8,33.4L84.8,33.4z M86.8,34c-0.6-0.5-1.3-0.3-0.8-1.2
		C86.5,33,86.8,33.4,86.8,34c1.3-0.2,2.6-0.4,3.9-0.5c0,0,0,0,0-0.1c0.1,0,0.1,0,0.1,0.1c1.8-0.2,3.6-0.3,5.5-0.3c2,0,4,0.1,6,0.3
		c-0.1-0.1-0.2-0.2-0.1-0.5c0.2,0.1,0.6,0.3,0.6,0c0.4,0.2,0.2,0.5-0.1,0.6c0.2,0,0.4,0,0.6,0.1c0-0.1,0.1-0.1,0.2-0.2
		c0.2,0.1,0.2,0.2,0.2,0.3c1.7,0.2,3.4,0.5,5,0.9c-0.1-0.2-0.1-0.4-0.2-0.7c0.5,0,0.6,0.4,0.7,0.8c0.2,0,0.4,0.1,0.6,0.1l-1.1,1.9
		c0,0.1-0.1,0.3-0.2,0.3L108,38l0,0l0,0l-4.5,7.8c0,0,0,0,0.1,0c0,0.1,0,0.3,0,0.4c-0.1,0-0.2,0-0.3,0l-1.6,2.8
		c0.2,0.3,0.1,1-0.4,0.7c0.1-0.1,0.1-0.2,0.2-0.4l-0.5,0.8c0.2,0,0.5,0,0.5-0.2c0.5,0.2-0.4,0.7-0.4,1.1c-0.2-0.1-0.2-0.3-0.2-0.6
		l-1.1,2c0.2,0.2,0.1,0.2-0.1,0.2l-1,1.4c0.2-0.3,0.6-0.5,0.9-0.6c-0.4,0.7-1.1,1-1.3,1.9c-0.1-0.2-0.1-0.4,0-0.6l-1.6,2.8l0.6,1
		v-0.1c0.5-0.1,0.4,0.3,0.4,0.6c-0.1,0-0.1,0-0.1-0.1l0.8,1.3c0.1-0.2,0.6-0.1,0.2,0.4l0.2,0.4l0.5-0.9c-0.1-0.1-0.2-0.2,0.1-0.3
		c0,0,0,0,0.1,0l3-5.3c-0.3,0-0.6,0-0.4,0.4c-0.6-0.3,0.2-1,0.5-0.7l0.5-0.9c-0.2-0.1-0.2-0.3,0.2-0.3l1.4-2.5c-0.2,0-0.4,0-0.6,0
		c0-0.5,0.2-0.7,0.6-0.6c0,0.2,0,0.3,0,0.5l2.1-3.7c-0.2-0.6-1.5,0-1.3-1c0.5,0.3,0.4,0.4,1.1,0.2c0-0.2-0.1-0.2-0.2-0.2
		c0.3-0.6,0.5,0.5,0.4,1l2.3-4c0-0.1,0-0.1,0-0.2c0,0,0,0,0.1,0l0.1-0.3c-0.3,0-0.6,0-0.8,0c-0.1-0.5,0.3-0.5,0.2-1
		c0.1,0.4,1,1,0.8-0.1c0.2,0,0.2,0.1,0.2,0.3l3.3-5.7c0-0.3,0.1-0.6,0.5-0.4c-0.1,0.1-0.1,0.2-0.1,0.3c0.6,0.2,1.1,0.4,1.7,0.6
		c0.2-0.5-0.2-0.4-0.3-1c0.6,0,0.4-0.4,0.8,0c-0.2,0.3-0.1,0.9-0.3,1.1c1.3,0.4,2.5,0.9,3.7,1.4l-1.3,7.4c0.4,0.1,0,0.6-0.1,0.3
		l-0.6,3.3c0.3-0.1,0.4,0.2,0.4,0.4c0.2,0,0.2-0.3,0.2-0.4c0.6,1-0.1,1.4-0.8,2.3c-0.1-0.1-0.1-0.1-0.1-0.2l-0.1,0.8
		c0.2,0.1,0.3,0.2,0.3,0.5c-0.1,0-0.2-0.1-0.3-0.1l-3.5,19.8c0.1,0.1,0.2,0.1,0.3,0.1c0,0.2-0.2,0.3-0.4,0.2l-0.7,3.7
		c-1-1-2.2-2-3.4-2.8l3.4-1.3l0.7-4.1l-8.4,3.1c-0.6-0.2-1.1-0.4-1.7-0.6l-3.9-7c-0.1,0-0.1-0.1-0.1-0.2L97.3,60c0,0,0,0.1-0.1,0.2
		c-0.4,0-0.1-0.7-0.4-0.8v-0.1L95,56l0,0l-0.2-0.3c-0.1,0-0.2-0.1-0.2-0.3l-0.5-0.8c-0.1,0.1-0.2,0-0.1-0.3l-1.7-2.9
		c0,0.2-0.1,0.5,0,0.7c-0.7,0.1-0.9-0.2-0.8-0.8c0.4,0.7,0.6,0.4,0.6-0.2l-5.5-9.6v0.1c-0.1,0-0.3,0-0.4,0c0-0.1,0-0.3,0-0.4
		c0.1,0,0.1,0,0.2,0l-3.7-6.5C84.1,34.4,85.4,34.2,86.8,34z M108.8,39.5C109.4,39.5,108.6,40.4,108.8,39.5L108.8,39.5z M109,38.9
		C108.9,39,109.1,38.8,109,38.9L109,38.9z M107.1,43.3c0.1,0.4-0.1,0.6-0.2,0.8C106.3,44.1,106.4,43.1,107.1,43.3z M106.3,41.6
		c0.1-0.6,0.4-1,1.1-1.1C107.4,41.3,107,41.7,106.3,41.6z M107.5,41.6c0,0.4,0,0.7,0,1.1C107,42.6,106.5,41.5,107.5,41.6z
		 M107.3,39.9c0-0.2,0.2-0.2,0.2-0.4c0.2,0,0.2,0.2,0.4,0.2c0,0.2-0.2,0.2-0.2,0.4C107.6,40.1,107.5,39.9,107.3,39.9z M105.6,45
		C106.3,45,105.4,45.9,105.6,45L105.6,45z M104.4,47.9C103.6,47.3,105,47.2,104.4,47.9L104.4,47.9z M104.2,46
		C104,46.2,104.2,45.9,104.2,46L104.2,46z M104.2,45.4c0-0.2,0-0.4,0-0.6c0.4,0.1,0.7,0,0.6-0.4c0.3,0,0.1,0.6,0.4,0.6
		C104.9,45.1,104.8,45.2,104.2,45.4z M105,43.3C104.9,43.4,105.1,43.2,105,43.3L105,43.3z M105.2,46C105.1,46.2,105.3,45.9,105.2,46
		L105.2,46z M105,48.8C105.6,48.8,104.8,49.7,105,48.8L105,48.8z M105.2,48.1C105.8,48.2,105,49,105.2,48.1L105.2,48.1z M103.1,51.3
		c0.7-0.5-1-1.4,0.4-1.5C103.4,50.3,103.9,51.5,103.1,51.3z M103.3,52.2C103.9,52.2,103.1,53,103.3,52.2L103.3,52.2z M102.3,49.6
		c0-0.6,0.5-1,0.8-0.6C103.2,49.5,102.8,49.7,102.3,49.6z M102.9,52.6C103,52.5,102.8,52.7,102.9,52.6L102.9,52.6z M102.5,51.3
		c-0.1,0.3-0.3-0.1-0.6,0c-0.1-0.3,0.2-0.4,0.2-0.6C102.4,50.7,102.1,51.3,102.5,51.3z M102.7,47.3C103.5,47.8,102,47.6,102.7,47.3
		L102.7,47.3z M102.9,48.4C103,48.3,102.8,48.5,102.9,48.4L102.9,48.4z M103.3,47.5C103.9,47.6,103.1,48.4,103.3,47.5L103.3,47.5z
		 M101.2,53c0.4-0.7,0.5,0.4,0.4,0.8C101.1,54,101.8,52.8,101.2,53z M100.8,54.7C100.6,54.8,100.9,54.6,100.8,54.7L100.8,54.7z
		 M100.4,53.8c0-0.1,0-0.3,0-0.4c0.1,0,0.3,0,0.4,0c0,0.1,0,0.3,0,0.4C100.6,53.8,100.5,53.8,100.4,53.8z M100.6,51.3
		c0.1-0.5,0.6,0.2,0.4,0.6C100.7,51.9,100.9,51.3,100.6,51.3z M99.5,58.5c0.1,0.4,0,0.7-0.4,0.6c0-0.2,0-0.4,0-0.6
		C99.2,58.5,99.4,58.5,99.5,58.5z M99.1,55.3c0.1,0.1,0.2-0.6,0.2-0.6C99.6,54.6,99.6,55.8,99.1,55.3z M99.5,57.4
		C100.2,57.7,98.7,58,99.5,57.4L99.5,57.4z M98.7,59.5C99.5,60.1,98,59.8,98.7,59.5L98.7,59.5z M98.7,58.3
		C99.3,58.5,98.4,59.4,98.7,58.3L98.7,58.3z M98.3,57.2C98.3,57.1,98.1,57.4,98.3,57.2L98.3,57.2z M118.1,46.7
		C117.5,47.4,117.6,45.6,118.1,46.7L118.1,46.7z M109.4,72.2c-0.1-0.4,0.1-0.6,0.2-0.8C110,71.3,110,72.5,109.4,72.2z M109.9,70.3
		c0.3,0,0.8,0.1,0.8-0.2C111.4,70.9,109.8,71.6,109.9,70.3z M109.4,70.3C110.1,70.3,109.2,71.2,109.4,70.3L109.4,70.3z M112.4,68.2
		C112.5,68.1,112.2,68.3,112.4,68.2L112.4,68.2z M98,65C98.7,65.1,97.8,65.9,98,65L98,65z M98.3,62.7c0.1,0.3-0.2,0.4-0.2,0.6
		C97.6,63.4,97.7,62.4,98.3,62.7z M96.8,63.3c0.5,0.1,0.1,1.1-0.4,0.8C96.4,63.8,96.9,63.9,96.8,63.3z M96.1,61.6
		C96.8,61.7,95.9,62.5,96.1,61.6L96.1,61.6z M97,60.8C97.6,60.8,96.8,61.7,97,60.8L97,60.8z M95.9,58.7C95.8,58.8,96,58.6,95.9,58.7
		L95.9,58.7z M95.8,59.3L95.8,59.3C95.7,59.3,95.7,59.3,95.8,59.3C95.7,59.3,95.7,59.3,95.8,59.3z M93.2,56.4c0.2-0.4,0.4,0,0.6,0
		C93.7,56.7,93.4,56.4,93.2,56.4z M93.4,58.3c-0.1-0.3-0.2-0.4-0.4-1.1C93.6,57.2,93.7,58,93.4,58.3z M93.6,55.1
		C93.5,55.2,93.7,55,93.6,55.1L93.6,55.1z M94.7,59.7c0.1,0.7-0.2,0.9-0.8,0.8C93.9,60.1,94.1,59.8,94.7,59.7z M94,56.8
		c0.3,0.1,0.4,0.3,0.4,0.6C94.2,57.3,94,57.2,94,56.8z M94.7,61C95.4,61.4,94,61.7,94.7,61L94.7,61z M94.9,59.7
		C94.7,59.9,95,59.7,94.9,59.7L94.9,59.7z M94.9,58.3C95.5,58.3,94.7,59.1,94.9,58.3L94.9,58.3z M95.1,56.8
		C95.6,57.5,94.4,56.3,95.1,56.8L95.1,56.8z M92.6,57.4C93.2,57.5,92.4,58.3,92.6,57.4L92.6,57.4z M91.9,53.2
		C92.6,53.3,91.7,54.1,91.9,53.2L91.9,53.2z M91.5,54.7C91.6,54.6,91.4,54.8,91.5,54.7L91.5,54.7z M90.9,49.4
		c-0.3-0.1-0.4-0.3-0.4-0.6C90.9,48.7,90.9,49.1,90.9,49.4z M90.2,51.7C90.1,51.9,90.3,51.6,90.2,51.7L90.2,51.7z M89,50.9
		c0.2-0.3,0.5-0.5,1.1-0.4c0.1,0.4-0.1,0.6-0.2,0.8C89.5,51.2,89.6,50.6,89,50.9z M89.2,51.3C89.8,51.4,89,52.2,89.2,51.3L89.2,51.3
		z M89.4,48.6C89.3,48.7,89.5,48.5,89.4,48.6L89.4,48.6z M89.6,49.8c0-0.2,0.2-0.2,0.2-0.4C90.3,49.5,89.9,50.4,89.6,49.8z
		 M88.1,50.9c0.2,0,0.2-0.1,0.2-0.2c0.4-0.1,0.3,1-0.2,0.6C88.1,51.2,88.1,51,88.1,50.9z M87.9,46C88.6,46.1,87.7,46.9,87.9,46
		L87.9,46z M87.5,45.2C88.1,45.2,87.3,46.1,87.5,45.2L87.5,45.2z M86.7,47.1c-0.3-0.2-0.3-0.7-0.4-1.1
		C86.9,45.8,86.6,46.7,86.7,47.1z M86,44.6c0-0.2,0-0.4,0-0.6c0.1,0,0.3,0,0.4,0C86.5,44.4,86.4,44.6,86,44.6z M85.4,41.8
		C86,41.9,85.2,42.7,85.4,41.8L85.4,41.8z M84.5,40.3C84.4,40.5,84.6,40.3,84.5,40.3L84.5,40.3z M84.1,43.3
		c-0.4-0.2-0.5-0.7-0.2-1.1C84.6,42.4,84,42.6,84.1,43.3z M83.9,37.2C84.6,37.4,83.7,38.3,83.9,37.2L83.9,37.2z M84.1,41.8
		C84,42,84.2,41.7,84.1,41.8L84.1,41.8z M84.3,39.7C84.8,40.4,83.6,39.2,84.3,39.7L84.3,39.7z M83.3,40.3
		C83.1,40.5,83.4,40.3,83.3,40.3L83.3,40.3z M83.1,37.2C82.9,37.3,83.2,37.1,83.1,37.2L83.1,37.2z M82.6,35.9
		C83.5,36.4,81.9,36.2,82.6,35.9L82.6,35.9z M82.9,39.7C82.7,39.8,82.9,39.6,82.9,39.7L82.9,39.7z M81.2,32.3
		C81.8,32.6,80.9,33.4,81.2,32.3L81.2,32.3z M81.2,34.4C81.8,34.5,81,35.3,81.2,34.4L81.2,34.4z M81,33.8C81,33.7,80.8,33.9,81,33.8
		L81,33.8z M79.7,34.6C80.5,35.2,79,35,79.7,34.6L79.7,34.6z M79.3,31.7C79.9,31.9,79,32.8,79.3,31.7L79.3,31.7z M78.4,32.3
		C78.5,32.2,78.3,32.5,78.4,32.3L78.4,32.3z M76.7,29C76.8,28.9,76.6,29.1,76.7,29L76.7,29z M76.3,24.3C77,24.4,76.1,25.2,76.3,24.3
		L76.3,24.3z M74.2,23.3c0.1,0,0.3,0,0.4,0c0,0.1,0,0.3,0,0.4c-0.1,0-0.3,0-0.4,0C74.2,23.5,74.2,23.4,74.2,23.3z M71.5,18.2
		C72.1,18.2,71.3,19.1,71.5,18.2L71.5,18.2z M71.7,20.7C71.8,20.6,71.5,20.9,71.7,20.7L71.7,20.7z M70.4,18
		C70.3,18.1,70.5,17.9,70.4,18L70.4,18z M70.2,16.9C70.3,16.8,70.1,17.1,70.2,16.9L70.2,16.9z M70.4,19c0.1,0.4-0.1,0.6-0.2,0.8
		c-0.1,0-0.1,0-0.1,0l8.4,14.6c-1.8,0.6-3.7,1.2-5.4,2L71.4,27c0,0,0,0-0.1,0c0-0.1,0-0.2,0-0.3L70,19.8C69.7,19.7,69.9,19,70.4,19z
		 M73.2,38.9C73.7,39.6,72.4,38.4,73.2,38.9L73.2,38.9z M73.2,44.4C73.2,44.3,73,44.5,73.2,44.4L73.2,44.4z M71.5,46
		c0.4-0.2,0.6-0.5,1.1-0.6C72.4,45.9,71.9,46.5,71.5,46z M72.1,49.4C72,49.6,72.2,49.3,72.1,49.4L72.1,49.4z M71.4,40.1L71.4,40.1
		C71.6,40.2,71.5,40.2,71.4,40.1C71.5,40.1,71.5,40.1,71.4,40.1c-0.1-0.1-0.2-0.2-0.3-0.2C71.2,39.9,71.3,40,71.4,40.1z M71.3,29.2
		C71.3,29.1,71.1,29.3,71.3,29.2L71.3,29.2z M71.9,32.1C72.6,32.5,71.2,32.8,71.9,32.1L71.9,32.1z M72.1,38
		C72.7,38.7,71.5,37.4,72.1,38L72.1,38z M71.9,37.2c0.1,0.3-0.2,0.4-0.2,0.6C71.3,37.9,71.4,36.9,71.9,37.2z M72.1,43.5
		c-0.5-0.1-1-0.3-1.1-0.8C71.5,42.8,72,42.9,72.1,43.5z M70.6,33.8C71.3,34.1,69.8,34.3,70.6,33.8L70.6,33.8z M70.4,26
		C71,26,70.2,26.9,70.4,26L70.4,26z M66.2,7.2C66.1,7.4,66.3,7.1,66.2,7.2L66.2,7.2z M65.8,5.3C65.9,5.2,65.6,5.5,65.8,5.3L65.8,5.3
		z M64.5,6.8C64.6,6.7,64.4,6.9,64.5,6.8L64.5,6.8z M65.1,12.1C65.2,12,65,12.2,65.1,12.1L65.1,12.1z M65.6,5.8
		C65.6,5.7,65.4,5.9,65.6,5.8L65.6,5.8z M65.8,10.8C66.4,11.1,65.5,11.9,65.8,10.8L65.8,10.8z M65.6,9.3c0.5-0.7,0.7-0.6,0.2-1.5
		c0.5,0,0.7-0.4,1.1,0C66.6,8.5,66.2,9.8,65.6,9.3z M66.4,11C66.5,10.9,66.3,11.2,66.4,11L66.4,11z M66.4,12.1
		C67,12.1,66.2,13,66.4,12.1L66.4,12.1z M66.8,13.3C66.7,13.5,66.9,13.3,66.8,13.3L66.8,13.3z M67,10C66.9,10.1,67.1,9.9,67,10
		L67,10z M67.2,10.4C67.9,10.6,67,11.5,67.2,10.4L67.2,10.4z M67.5,20.9C67.5,20.9,67.3,21.1,67.5,20.9L67.5,20.9z M67.7,26.6
		C67.5,26.8,67.8,26.5,67.7,26.6L67.7,26.6z M67.5,16.3C68.1,16.3,67.3,17.2,67.5,16.3L67.5,16.3z M68.3,13.8c-0.1,0-0.3,0-0.4,0
		c0-0.1,0-0.3,0-0.4c0.1,0,0.3,0,0.4,0C68.3,13.5,68.3,13.6,68.3,13.8z M68.5,21.6C68.4,21.7,68.6,21.5,68.5,21.6L68.5,21.6z
		 M68.9,18.8C69.7,19.5,68.3,19.5,68.9,18.8L68.9,18.8z M68.9,30.4c0.5-0.1,0.3,0.4,0.6,0.4C69.5,31.4,68.8,30.9,68.9,30.4z
		 M69.6,25.4C69.7,25.3,69.4,25.5,69.6,25.4L69.6,25.4z M69.4,22.2c0.7,0,0.7,0.5,0.8,1.1C69.6,23.2,69.5,22.7,69.4,22.2z
		 M70.1,30.5c0,0.1-0.1,0.2-0.2,0.3c0,0.1-0.1,0.1-0.1,0.1s0-0.1,0.1-0.1C69.9,30.8,70,30.7,70.1,30.5C70,30.6,70.1,30.5,70.1,30.5z
		 M70,39.1c-0.1,0.3-0.5,0.4-0.8,0.4C68.9,38.9,69.6,39.1,70,39.1z M67.5,39.5c0.1,0,0.3,0,0.4,0c0,0.1,0,0.3,0,0.4
		c-0.1,0-0.3,0-0.4,0C67.5,39.8,67.5,39.6,67.5,39.5z M66.8,40.1C67.5,40.2,66.6,41,66.8,40.1L66.8,40.1z M66,40.3
		c0,0.4-0.3,0.4-0.2,0.8C65.4,41.3,65.4,40,66,40.3z M65.1,41.6C65.2,41.5,65,41.7,65.1,41.6L65.1,41.6z M64.1,41.4
		C64.7,41.4,63.9,42.3,64.1,41.4L64.1,41.4z M63.7,42C63.5,42.2,63.8,41.9,63.7,42L63.7,42z M61.6,43.5
		C62.2,43.5,61.4,44.4,61.6,43.5L61.6,43.5z M59.7,45.6C59.4,46.5,58.5,45.6,59.7,45.6L59.7,45.6z M58.2,46.5
		C58,46.6,58.3,46.4,58.2,46.5L58.2,46.5z M58,46.9C57.8,47,58.1,46.8,58,46.9L58,46.9z M56.5,47.3c0.2,0,0.4,0,0.6,0
		c0.1,0.3-0.2,0.4-0.2,0.6c-0.2,0-0.2-0.2-0.4-0.2C56.5,47.6,56.5,47.4,56.5,47.3z M50.2,54.7L50.2,54.7
		C50.2,54.6,50.2,54.6,50.2,54.7C50.1,54.6,50.1,54.7,50.2,54.7z M54.8,50.4c2.4-2.4,5-4.6,7.7-6.5c0.1-0.1,0.1-0.1,0.1-0.1
		c0.3-0.2,0.5-0.4,0.8-0.5c-0.1-0.1-0.1-0.2,0,0c0.9-0.6,1.8-1.2,2.7-1.7c0-0.2,0.1-0.4,0.1-0.5c0.1,0.1,0.3,0.2,0.5,0.2
		c1-0.6,2.1-1.2,3.2-1.7l1,5.8c0.2,0,0.4,0,0.6,0c0.1,0.4-0.2,0.4-0.5,0.5l2.8,15.8l0,0l0.7,3.9l3.9,1.4l-1.2-7c0,0.1,0,0.1,0,0.2
		c-0.1,0-0.3,0-0.4,0c0-0.1,0-0.3,0-0.4c0.1,0,0.3,0,0.4,0L75.8,52c-0.4,0-0.3-0.6-0.2-0.9l-0.4-2C75.1,49,75,49,75.1,48.6
		c0.1,0,0.1,0,0.1,0l-1.9-10.8c1.5-0.7,3.1-1.2,4.7-1.8c0-0.4,0.1-0.8,0.5-0.6c0,0.3-0.1,0.4-0.1,0.5c0.3-0.1,0.6-0.2,0.9-0.3L91,56
		c0,0,0.1-0.1,0.2-0.2c0.4,0.2,0.1,0.3-0.1,0.3l3.5,6.1c0.2-0.2,0.5-0.4,0.8-0.5c0,0.5-0.2,0.9-0.5,1.1l3.6,6.4
		c-0.7-0.1-1.5-0.1-2.2-0.1s-1.5,0-2.2,0.1l1.8-3.1l-2.1-3.6l-4.4,7.7c-0.6,0.2-1.1,0.4-1.7,0.6l-11.1-4.1c0,0.3-0.2,0.3-0.2,0.6
		c-0.4-0.1-0.9-0.1-0.8-0.6c0.4-0.4,0.4,0,0.9,0L74,65.8c-0.1,0-0.1,0-0.1,0l-3.3-1.2l0,0c-0.2,0.1-0.3,0-0.3-0.2l-20.9-7.7
		C50.9,54.5,52.7,52.4,54.8,50.4z M74.6,59.3C74.4,60.6,73.6,58.6,74.6,59.3L74.6,59.3z M74.6,61.2C74.5,61.4,74.7,61.1,74.6,61.2
		L74.6,61.2z M74,58.7C74.6,58.1,73.4,59.3,74,58.7L74,58.7z M74,56.8C74.6,56.8,73.8,57.7,74,56.8L74,56.8z M74.4,49.8
		c-0.1,0-0.3,0-0.4,0c0-0.1,0-0.3,0-0.4c0.1,0,0.3,0,0.4,0C74.4,49.6,74.4,49.7,74.4,49.8z M74,46.5C73.9,46.6,74.1,46.4,74,46.5
		L74,46.5z M74.4,55.5c-0.4,0.4,0.3,0.8-0.6,0.8C73.9,56,73.9,55.5,74.4,55.5z M73.8,53C73.6,53.1,73.9,52.9,73.8,53L73.8,53z
		 M73.6,50C74.2,50.1,73.4,50.9,73.6,50L73.6,50z M73.8,54.7c0.1,0.3-0.2,0.4-0.2,0.6C73.2,55.4,73.3,54.4,73.8,54.7z M73.6,57.8
		C73.4,58,73.7,57.8,73.6,57.8L73.6,57.8z M76.5,58.7c-0.1,0.6-0.9,0.4-1.1,0.8C74.9,59.2,76.2,58.9,76.5,58.7z M75.7,56.4
		C76.3,56.4,75.5,57.2,75.7,56.4L75.7,56.4z M75.9,64c0.4,0,0.1,0.7,0.6,0.6C76.3,65.2,75.4,64.2,75.9,64z M75.9,65.2
		C76,65.1,75.8,65.4,75.9,65.2L75.9,65.2z M75.9,62.1C75.8,62.2,76,62,75.9,62.1L75.9,62.1z M76.3,60.4
		C76.4,60.3,76.2,60.5,76.3,60.4L76.3,60.4z M76.5,65.7C77.2,65.1,76,66.3,76.5,65.7L76.5,65.7z M75.3,53.2
		C76,53.8,74.6,53.9,75.3,53.2L75.3,53.2z M75.7,62.1c-0.1,0.5-1.1,0.1-0.8-0.4C75.5,61.4,75.4,62,75.7,62.1z M77.2,61
		C77.8,61.1,77,61.9,77.2,61L77.2,61z M77.6,65C78.2,65.1,77.4,65.9,77.6,65L77.6,65z M94.9,66.9C94.7,67.1,95,66.8,94.9,66.9
		L94.9,66.9z M83.1,70.7C83.8,71,82.2,71.2,83.1,70.7L83.1,70.7z M82.9,70.5C82.1,69,83.3,68.9,82.9,70.5L82.9,70.5z M81.2,69.7
		C81.8,69.9,80.9,70.8,81.2,69.7L81.2,69.7z M79.1,69.7c-0.1,0-0.1,0.1-0.2,0.1C78.9,69.7,79,69.7,79.1,69.7L79.1,69.7z M78.2,69
		C77.4,67.8,79.2,67.8,78.2,69L78.2,69z M77.2,67.3c0.5,0.1,0,1.2,0.6,1.1c-0.1,0.7-0.6-0.7-0.6,0C76.5,68.2,77.4,67.9,77.2,67.3z
		 M75.3,69.5C75.4,69.4,75.1,69.6,75.3,69.5L75.3,69.5z M73.8,69c-0.3-0.1-0.4-0.5-0.4-0.8C74,68.1,74.1,68.7,73.8,69z M72.3,67.1
		C73,67.4,72.1,68.2,72.3,67.1L72.3,67.1z M70.4,66.1c0,0.1,0,0.3,0,0.4c-0.1,0-0.3,0-0.4,0c0-0.1,0-0.3,0-0.4
		C70.1,66.1,70.3,66.1,70.4,66.1z M69.8,67.8C69.9,67.7,69.6,67.9,69.8,67.8L69.8,67.8z M68.5,66.1C68.4,66.2,68.6,66,68.5,66.1
		L68.5,66.1z M67,66.7C67.7,66.8,66.8,67.6,67,66.7L67,66.7z M66,66.5c0-0.2,0-0.4,0-0.6c0.1,0,0.3,0,0.4,0
		C66.5,66.3,66.4,66.5,66,66.5z M65.1,64C65,64.1,65.2,63.9,65.1,64L65.1,64z M64.1,64.6c0.5,0.2-0.8,0.9-1.1,0.4
		C62.9,64.4,64.2,65.2,64.1,64.6z M63.2,64.2C63.1,64.3,63.3,64.1,63.2,64.2L63.2,64.2z M63.7,62.9C64.2,63.6,63,62.4,63.7,62.9
		L63.7,62.9z M61.6,61.6C62.2,61.7,61.4,62.5,61.6,61.6L61.6,61.6z M59.4,60.6C60.1,60.9,58.6,61.1,59.4,60.6L59.4,60.6z M59.4,62.7
		c-0.7-0.1-0.9-0.4-0.6-1.1C59.2,61.8,59.6,62,59.4,62.7z M58.4,60.8C59,60.8,58.2,61.7,58.4,60.8L58.4,60.8z M57.3,61.6
		c-0.5,0.1-0.3-0.4-0.6-0.4c0.3-0.2,0.3-0.7,0.8-0.6C57.3,61.1,57.6,61,57.3,61.6z M57.5,62.3C58.2,62.6,56.7,62.8,57.5,62.3
		L57.5,62.3z M57.8,61.6C57.6,61.8,57.8,61.6,57.8,61.6L57.8,61.6z M57.8,60.2C58.4,60.4,57.5,61.3,57.8,60.2L57.8,60.2z M55.9,62.5
		c-0.2-0.6,0.4-0.4,0.4-0.8C56.7,61.7,56.3,62.6,55.9,62.5z M55.2,62.3c-0.3-0.1-0.4-0.3-0.4-0.6C55.3,61.5,55.2,61.9,55.2,62.3z
		 M54.6,60C55.3,60.3,53.8,60.5,54.6,60L54.6,60z M54,60.6C54.6,60.6,53.8,61.5,54,60.6L54,60.6z M53.3,59.3
		C54,59.4,53.1,60.2,53.3,59.3L53.3,59.3z M53.3,61.4C53.4,61.3,53.2,61.6,53.3,61.4L53.3,61.4z M52.9,58.3
		C53.5,58.3,52.7,59.1,52.9,58.3L52.9,58.3z M52.3,60.8C52.9,60.8,52.1,61.7,52.3,60.8L52.3,60.8z M52.3,58.5
		C52.1,58.6,52.4,58.4,52.3,58.5L52.3,58.5z M51.6,60.4C51.5,60.5,51.7,60.3,51.6,60.4L51.6,60.4z M51.4,60.2
		C51,60.3,51,59.9,51,59.5C51.3,59.6,51.4,59.8,51.4,60.2z M50.8,57.8C50.7,58,50.9,57.8,50.8,57.8L50.8,57.8z M49.5,58.7
		c0.3-0.7,0.3,0.6-0.2,0.4C48.9,59.6,49.4,58.9,49.5,58.7z M48.7,57.6C49.3,57.7,48.5,58.5,48.7,57.6L48.7,57.6z M46.4,60.2
		C46.9,60.8,45.7,59.6,46.4,60.2L46.4,60.2z M46.2,57.2C46.7,57.9,45.4,56.7,46.2,57.2L46.2,57.2z M45.3,55.5c0.3,0,0.4,1.4-0.2,1.1
		C45,56.1,45.1,55.8,45.3,55.5z M44.9,55.7c-0.3-0.1-0.4-0.3-0.4-0.6C44.9,55,44.9,55.4,44.9,55.7z M44,55.7
		C44.6,56.4,43.3,55.2,44,55.7L44,55.7z M43.6,54.9C44.3,54.9,43.4,55.8,43.6,54.9L43.6,54.9z M43.6,56.2
		C44.3,56.2,43.4,57,43.6,56.2L43.6,56.2z M42.4,55.5c-0.3-0.1-0.4-0.3-0.4-0.6C42.4,54.8,42.3,55.2,42.4,55.5z M41.3,56.8
		C41.2,56.9,41.4,56.7,41.3,56.8L41.3,56.8z M40.9,53.8C41.5,54.1,40.7,55,40.9,53.8L40.9,53.8z M40.9,54.7
		C40.7,54.8,41,54.6,40.9,54.7L40.9,54.7z M40,56C40.7,56,39.8,56.8,40,56L40,56z M32,51.1C31.9,51.2,32.1,51,32,51.1L32,51.1z
		 M31.4,53.4c0.1,0,0.3,0,0.4,0c0,0.1,0,0.3,0,0.4c-0.1,0-0.3,0-0.4,0C31.4,53.7,31.4,53.6,31.4,53.4z M30.1,51.9
		C29.6,52.7,29.6,50.9,30.1,51.9L30.1,51.9z M34.8,60.6C34.6,60.7,34.9,60.5,34.8,60.6L34.8,60.6z M35.8,61
		C36.5,61.1,35.6,61.9,35.8,61L35.8,61z M38.4,61.9C38.4,61.8,38.2,62,38.4,61.9L38.4,61.9z M38.8,62.5
		C38.9,62.4,38.6,62.6,38.8,62.5L38.8,62.5z M40,63.8C39.9,63.9,40.1,63.7,40,63.8L40,63.8z M29.8,53.5l15.9,5.8
		c-1.1,1.6-2,3.3-2.9,5L29.8,53.5z M44.5,63.1C45.1,63.2,44.3,64,44.5,63.1L44.5,63.1z M42.1,64.8C42.8,64.9,41.9,65.7,42.1,64.8
		L42.1,64.8z M40.9,71.6C40.7,71.7,41,71.5,40.9,71.6L40.9,71.6z M38.6,75.4L38.6,75.4C38.5,75.4,38.5,75.4,38.6,75.4
		C38.5,75.3,38.6,75.4,38.6,75.4z M38.1,78.5c0.1,0.3-0.2,0.4-0.2,0.6C37.5,79.2,37.6,78.2,38.1,78.5z M37.7,81.7c0-0.1,0-0.3,0-0.4
		c0.2,0,0.2-0.1,0.2-0.2C38.3,81,38.2,82,37.7,81.7z M37.1,90.8C37.8,91.1,36.4,91.4,37.1,90.8L37.1,90.8z M36,96c0.1,0,0.3,0,0.4,0
		c0,0.1,0,0.3,0,0.4c-0.1,0-0.3,0-0.4,0C36,96.3,36,96.2,36,96z M36.5,96.7C36.2,97.5,35.3,96.7,36.5,96.7L36.5,96.7z M35.4,96.2
		c0.1,0.7-0.4,0.3-0.6,0.2C34.8,96.2,35.2,96.3,35.4,96.2z M35.2,99c-0.3-0.1-0.2-0.5-0.2-0.8C35.5,98.2,35.5,98.7,35.2,99z
		 M33.3,98.6C33.9,98.6,33.1,99.4,33.3,98.6L33.3,98.6z M32.9,100.5c-0.5,0-0.1-0.7,0-0.8C33.5,99.8,32.7,100.1,32.9,100.5z
		 M32.9,99c-0.1,0.3-0.4,0.3-0.4,0.6C31.9,99.5,32.4,98.8,32.9,99z M30.1,100.7C30.9,101,29.4,101.3,30.1,100.7L30.1,100.7z
		 M27.8,99.2C28.6,99.7,27.1,99.5,27.8,99.2L27.8,99.2z M27.2,99.6C27,99.8,27.3,99.5,27.2,99.6L27.2,99.6z M22.5,101.1
		C23.2,101.1,22.3,102,22.5,101.1L22.5,101.1z M21.3,103.4c0.5,0.1,1,0.1,0.8,0.8C21.8,104,21,104.2,21.3,103.4z M20.4,103.8
		C21.2,104.5,19.8,104.5,20.4,103.8L20.4,103.8z M21.5,107.2c-0.2,0-0.2-0.1-0.2-0.2s0-0.3,0-0.4c0.8,0.1,1.1,0.2,1.1,0.8
		C22.7,108.3,21.6,106.5,21.5,107.2z M23.4,108.5c-0.5,0-0.1-0.7-0.2-1.1C23.6,107.4,23.3,108.2,23.4,108.5z M23.4,105.5
		C24,105.6,23.2,106.4,23.4,105.5L23.4,105.5z M24.2,108.3C23.7,109,23.7,107.2,24.2,108.3L24.2,108.3z M24.4,106.4
		C25,107,23.8,105.8,24.4,106.4L24.4,106.4z M25.1,106.4C25.7,106.4,24.9,107.2,25.1,106.4L25.1,106.4z M26.5,107.6
		c-0.4-0.3-0.8-0.8-0.8-1.5c0.7,0,0.1,1.2,1.1,0.8C26.6,107.2,26.5,107.3,26.5,107.6z M28.2,108.3c-0.4,0.1-0.3-1,0.2-0.6
		C28.5,108,28.2,108,28.2,108.3z M32.9,108.7c-0.2,0-0.2-0.3-0.2-0.4c0-0.2-0.4-0.2-0.6-0.2c0.2-0.2,0.1-0.8,0.6-0.6
		C32.7,107.9,33,108,32.9,108.7z M33.3,107C32.1,106.2,33,105.3,33.3,107L33.3,107z M36,105.3L36,105.3
		C36.2,105.2,36.7,104.9,36,105.3z M32.1,105.1C32.6,105.2,31.8,105.9,32.1,105.1h-9.8c0,0.1,0,0.1,0,0.2c-0.1,0-0.3,0-0.4,0
		c0-0.1,0-0.1,0-0.2h-1.2l5.8-2.1c0-0.1,0-0.1,0-0.3c0.2,0,0.2,0.1,0.2,0.2l1.1-0.4l0,0c0-0.1,0-0.3,0-0.4c0.1,0,0.3,0,0.4,0
		c0,0.1,0,0.2,0,0.3l6.3-2.3c0-0.1,0-0.2,0-0.3c0.2,0,0.3,0.1,0.2,0.2l1.8-0.7c0.2,1.9,0.6,3.8,1,5.7L32.1,105.1z M37.6,91.8
		c0-8.1,1.6-16,4.8-23.2l0.5,0.5c-0.1-0.2-0.1-0.4-0.1-0.7c0.2,0.1,0.2,0.5,0.6,0.4c0.1,0.3-0.1,0.4-0.2,0.5l19.3,16.1l3.9-1.4
		l-4.8-4l0,0c-0.1,0.1,0,0,0,0l-6-5c-0.2,0-0.5-0.2-0.5-0.2c0-0.1,0.1-0.1,0.1-0.1l-8.6-7.1c0.1,0.3-0.1,0.6-0.2,0.9
		c-0.5-0.4-0.4-0.3-1.3-0.2c-0.1-0.4,0.2-0.4,0.2-0.2c0.5,0,0.3-0.8,0.8-0.9l-1.2-1c0.1,0.3-0.4,1.1-0.7,0.6c0-0.4,0.7-0.1,0.6-0.6
		c0,0,0.1,0,0.1,0.1l-1.1-0.9c1-1.9,2-3.7,3.2-5.4l8.6,3.1c0-0.1,0-0.2,0-0.3c0.1,0,0.3,0,0.4,0c0,0.1,0,0.3,0,0.4l0.7,0.3
		c0.1-0.1,0.2-0.2,0.1-0.5c0.3,0.1,0.3,0.3,0.2,0.6l1.9,0.7l0,0c0.1,0,0.1,0,0.2,0.1l24.2,8.9c-1.2,0.8-2.3,1.8-3.4,2.8l-0.6-3.6
		L75.5,71l0.2,1.2c0.1,0,0.1,0,0.2,0.1c0.1,0.3,0,0.4-0.1,0.5l0.1,0.4c0,0,0,0,0-0.1c0.4,0,0.2,0.4,0,0.4l1.1,6.3
		c-0.3,0.5-0.6,1-0.9,1.6l-0.5,0.2l0,0l0,0l-4.9,1.8c0,0.1-0.1,0.1-0.1,0l-2.2,0.8c0.1,0.1,0.1,0.2,0.1,0.3
		c-0.3-0.1-0.5-0.1-0.6-0.2l-3.8,1.4c0,0,0,0,0,0.1l0,0l-6.9,2.5c0,0.3,0,0.6,0,0.9c-0.3-0.1-0.5-0.4-0.6-0.7l-2.9,1
		c0,0.1-0.1,0.1-0.2,0.1L51,90.4c0,0.1-0.2,0.2-0.2,0.1l-1.9,0.7l0,0l-8,2.9c-0.1,0.3-0.3,0.3-0.4,0.2L38.2,95
		c0.7,0.9-0.5,0.8-0.1,0l-0.4,0.2C37.6,94.1,37.6,93,37.6,91.8z M44.7,69C45.3,69.1,44.5,69.9,44.7,69L44.7,69z M46.2,71.1
		C46,71.3,46.2,71,46.2,71.1L46.2,71.1z M46.8,69.2C47.4,69.3,46.6,70.1,46.8,69.2L46.8,69.2z M47,68.4C46.9,68.5,47.1,68.3,47,68.4
		L47,68.4z M46.8,70.1c0,0.1,0,0.3,0,0.4c-0.1,0-0.3,0-0.4,0c0-0.1,0-0.3,0-0.4C46.5,70.1,46.6,70.1,46.8,70.1z M47.6,69.2
		C47.7,69.2,47.5,69.4,47.6,69.2L47.6,69.2z M48.3,71.8C48.8,72.5,47.6,71.3,48.3,71.8L48.3,71.8z M48.5,69.5
		C48.6,69.4,48.3,69.6,48.5,69.5L48.5,69.5z M48.7,70.7C48.5,70.9,48.8,70.6,48.7,70.7L48.7,70.7z M50.6,72.8
		C50.4,73,50.7,72.7,50.6,72.8L50.6,72.8z M50.8,75.6C50.7,75.7,50.9,75.5,50.8,75.6L50.8,75.6z M51.2,72.4
		C51.1,72.5,51.3,72.3,51.2,72.4L51.2,72.4z M52.3,74.1C52.1,74.2,52.4,74,52.3,74.1L52.3,74.1z M53.3,73.7
		C53.4,73.6,53.2,73.8,53.3,73.7L53.3,73.7z M55,76c0-0.1,0-0.3,0-0.4c0.1,0,0.3,0,0.4,0c0,0.1,0,0.3,0,0.4C55.3,76,55.2,76,55,76z
		 M57.5,79.6C58.2,79.6,57.3,80.5,57.5,79.6L57.5,79.6z M57.5,80.4C58.3,80.8,56.9,81.1,57.5,80.4L57.5,80.4z M57.1,76.4
		c0.3,0.2,0.5,0.5,0.4,1.1C56.9,77.5,56.9,76.6,57.1,76.4z M56.9,80C57.5,80,56.7,80.9,56.9,80L56.9,80z M58.2,78.2
		C58,78.1,58,78.1,58.2,78.2L58.2,78.2z M58.2,78.2c0.1,0,0.2,0.1,0.2,0.1s0,0-0.1,0C58.3,78.3,58.3,78.2,58.2,78.2z M59.9,79.8
		c-0.1,0.6-0.5-0.2-0.8,0c-0.1-0.8-0.1-0.6,0-1.5c0.4-0.1,0.7,0.8,0,0.6C59.2,79.3,59.5,79.6,59.9,79.8z M59,81.1
		c0.3-0.1,0.3,1.1-0.2,0.6C58.9,81.8,59,81,59,81.1z M61.8,81.1c-0.1,0.3-0.4,0.3-0.4,0.6C60.8,81.6,61.3,80.9,61.8,81.1z
		 M61.9,82.4C62,82.6,62.4,83.2,61.9,82.4C61.9,82.5,61.9,82.5,61.9,82.4z M63.2,84.6c-0.5,0.1-1.1-1.1-0.2-1.1
		C62.9,84.1,63.4,84,63.2,84.6z M63.2,81.5C62,81.8,62.6,80.6,63.2,81.5L63.2,81.5z M65.1,83.4C65.2,83.3,65,83.5,65.1,83.4
		L65.1,83.4z M76.3,73.7C77,73.7,76.1,74.5,76.3,73.7L76.3,73.7z M74.2,94.3c0-0.1,0-0.3,0-0.4c0.1,0,0.3,0,0.4,0c0,0.1,0,0.3,0,0.4
		C74.5,94.3,74.3,94.3,74.2,94.3z M74.2,100.2C74.1,100.4,74.3,100.2,74.2,100.2L74.2,100.2z M74.4,90.5
		C75.1,90.8,74.2,91.7,74.4,90.5L74.4,90.5z M74.6,88.2C74.5,88.4,74.7,88.1,74.6,88.2L74.6,88.2z M74.6,91.6
		C75.5,92.1,73.9,91.9,74.6,91.6L74.6,91.6z M74.2,84.8C73.6,84.4,74.5,83.5,74.2,84.8L74.2,84.8z M73.8,84.8
		c-0.1,0.3-0.3,0.5-0.4,0.8C72.6,85.6,73.2,84.8,73.8,84.8z M72.1,86.1C72.8,86.5,71.4,86.8,72.1,86.1L72.1,86.1z M71.9,83.7
		c0,0-0.1-0.1-0.2-0.3c-0.1-0.1-0.1-0.1-0.1-0.2C71.6,83.3,71.8,83.6,71.9,83.7z M71,83.8C71.9,84.3,70.3,84.1,71,83.8L71,83.8z
		 M68.9,84.8C69.6,85.1,68.7,86,68.9,84.8L68.9,84.8z M68.3,86.1C69,86.5,67.6,86.8,68.3,86.1L68.3,86.1z M67.2,87.2
		c-0.5,0-0.1-0.7,0-0.8C67.8,86.4,67.3,87,67.2,87.2z M66,85.3C66.1,85.2,65.8,85.4,66,85.3L66,85.3z M62.8,89.7
		C62.9,88.1,64.4,89.6,62.8,89.7L62.8,89.7z M62.8,86.1C63.5,86.4,62.6,87.2,62.8,86.1L62.8,86.1z M63.2,87c0-0.2,0-0.4,0-0.6
		c0.1,0,0.3,0,0.4,0C63.7,86.7,63.6,87,63.2,87z M63.7,88.2C64.3,87.6,63.1,88.9,63.7,88.2L63.7,88.2z M62.4,89.1
		C63,89.1,62.2,89.9,62.4,89.1L62.4,89.1z M62.2,89.7C62.3,89.6,62,89.8,62.2,89.7L62.2,89.7z M61.1,88.6
		C61,88.8,61.2,88.6,61.1,88.6L61.1,88.6z M61.1,89.5C61,89.6,61.2,89.4,61.1,89.5L61.1,89.5z M61.1,88c0.3-0.2,0.3-0.7,0.8-0.6
		c0,0.5,0,1.1-0.6,1.1C61.4,88.2,61.3,88.1,61.1,88z M60.5,87.6c0.3,0.1,0.4,0.3,0.4,0.6C60.7,88.1,60.5,88,60.5,87.6z M60.3,89.3
		C60.9,89.3,60.1,90.2,60.3,89.3L60.3,89.3z M59.2,89.5c-0.4-0.4,0.1-0.4,0.2-0.8C60.1,88.7,60,89.6,59.2,89.5z M59,89.9
		C59.7,90.2,58.8,91,59,89.9L59,89.9z M59.7,87.8C60.3,87.8,59.5,88.7,59.7,87.8L59.7,87.8z M57.5,89.1
		C58.2,89.1,57.3,89.9,57.5,89.1L57.5,89.1z M56.5,91.2C56.4,91.3,56.6,91.1,56.5,91.2L56.5,91.2z M55.9,90.3
		C55.7,90.5,55.9,90.2,55.9,90.3L55.9,90.3z M54.8,92.3c0,0-0.1-0.1-0.2-0.3l-0.1-0.1c0,0,0,0.1,0.1,0.1l0,0
		C54.7,92.1,54.7,92.2,54.8,92.3z M54,90.1c0-0.1,0-0.3,0-0.4c0.2,0,0.2-0.1,0.2-0.2C54.6,89.4,54.5,90.4,54,90.1z M54.2,90.5
		C54.8,90.6,54,91.4,54.2,90.5L54.2,90.5z M53.5,91.2C53.6,91.1,53.4,91.3,53.5,91.2L53.5,91.2z M52.7,91.2
		c-0.4,0.1-0.4-1.2,0.2-0.8C53,90.8,52.8,90.9,52.7,91.2z M52.3,93.5C52.1,93.6,52.4,93.4,52.3,93.5L52.3,93.5z M51.4,90.5
		C52.1,90.6,51.2,91.4,51.4,90.5L51.4,90.5z M51.4,91.8C52.1,91.9,51.2,92.7,51.4,91.8L51.4,91.8z M50.2,92.5
		C50.2,92.5,50.2,92.4,50.2,92.5C50.2,92.4,50.1,92.4,50.2,92.5C50.2,92.4,50.2,92.4,50.2,92.5z M49.1,92c0-0.5,0.2-0.7,0.6-0.6
		c0,0.2,0,0.4,0,0.6C49.5,92,49.3,92,49.1,92z M49.3,93.3C50,93.3,49.1,94.2,49.3,93.3L49.3,93.3z M49.7,93.7
		C50.4,93.7,49.5,94.6,49.7,93.7L49.7,93.7z M48.1,91.6C48.7,91.8,47.8,92.7,48.1,91.6L48.1,91.6z M47.4,93.3
		C47.3,93.4,47.5,93.2,47.4,93.3L47.4,93.3z M47.2,92C47.1,92.2,47.3,91.9,47.2,92L47.2,92z M45.9,93.1c0-0.1,0-0.3,0-0.4
		c0.2,0,0.2-0.1,0.2-0.2C46.6,92.4,46.5,93.4,45.9,93.1z M45.7,93.9C45.6,94.1,45.8,93.8,45.7,93.9L45.7,93.9z M44.7,95.8
		C44.8,95.7,44.5,96,44.7,95.8L44.7,95.8z M44.3,93.7C44.3,93.6,44.1,93.8,44.3,93.7L44.3,93.7z M43.6,93.5c0-0.1,0-0.3,0-0.4
		c0.1,0,0.3,0,0.4,0c0,0.1,0,0.3,0,0.4C43.9,93.5,43.8,93.5,43.6,93.5z M43.6,96C44.3,96.1,43.4,96.9,43.6,96L43.6,96z M42.1,95.2
		C42.2,95.1,42,95.3,42.1,95.2L42.1,95.2z M41.3,96.4C41.2,96.6,41.4,96.4,41.3,96.4L41.3,96.4z M40.3,96.2c0.4,0.1,0.5,0.4,0.4,0.8
		C40,97.3,40.3,96.6,40.3,96.2z M38.8,96C39.4,96.3,38.5,97.1,38.8,96L38.8,96z M38.6,97.3C38.7,97.2,38.4,97.4,38.6,97.3L38.6,97.3
		z M38.4,97.9C38.4,97.8,38.2,98.1,38.4,97.9L38.4,97.9z M39.8,108.7c0-0.6,0.5-0.7,0.6-1.3C41.4,107.7,40.3,108.5,39.8,108.7z
		 M40.5,105.7c0-0.1,0-0.3,0-0.4c0.1,0,0.3,0,0.4,0c0,0.1,0,0.3,0,0.4C40.7,105.7,40.6,105.7,40.5,105.7z M41.3,115.6
		c0-0.2,0.4-0.2,0.6-0.2C42.1,116.1,41.5,115.8,41.3,115.6z M44.3,122c0-0.3,0-0.6,0-0.8c0.3,0,0.6,0,0.8,0
		C44.9,121.4,44.9,122.1,44.3,122z M48.8,126.4c-1.7-2.3-3.1-4.6-4.4-7.1c-0.3,0-0.6,0.1-1,0.2c0.1-0.5-0.4-0.5-0.2-1.1
		c0.8-0.3,0.1,0.9,0.6,0.8c0.2-0.1,0.3-0.2,0.4-0.3c-1.7-3.3-3.1-6.7-4.2-10.3h0.8c0-0.1,0-0.1,0-0.2c0.2,0,0.3,0.1,0.2,0.2h1.2l0,0
		l0,0h12.3c-0.1-0.2-0.1-0.4-0.1-0.6c0.4-0.1,0.3,0.5,0.5,0.6H55c0.2-0.1,0.1-0.5,0.2-0.8c0.8,0,0.1,0.2,0.2,0.6
		c0.3-0.4,1.3-1,1.3,0c-0.4-0.3-0.8-0.1-0.8,0.2h1.6c0-0.3,0.1-0.7,0.5-0.6c0,0.2,0,0.4-0.1,0.6h8.2l2.1-3.6h-7
		c0,0.1-0.1,0.2-0.1,0.3c-0.2-0.1-0.3-0.2-0.6-0.2c0,0,0,0,0-0.1h-0.7c0,0.2-0.3,0.4-0.3,0h-1.4l0,0l0,0h-7.8
		c0.1,0.2,0.1,0.4,0.2,0.7c-0.5,0.1-0.6-0.2-0.6-0.7h-1.2c-0.1,0.4-0.4,0.7-0.3,1.1c-0.4-0.1-0.4-0.6-0.8-0.6
		c0.1-0.2,0.2-0.3,0.4-0.4h-3.8l0,0c0.3,0.4,0,0.2-0.2,0h-5.2c-0.5-2-0.8-4.1-1.1-6.2c-0.2-0.2,0-0.9-0.1-1.2c0.4,0,0.2,0.7,0.2,1.1
		l8.5-3.1c-0.5-0.2-0.4-0.9-0.5-1.4c0.3-0.1,0.5,0.8,0.6,0.2c0.3,0.3-0.3,0.5,0,1.2l2.4-0.9c0,0,0.1-0.1,0.2-0.1l0,0l14.8-5.3
		c0,0,0.1-0.1,0.1-0.2c0.1,0,0.1,0.1,0.1,0.1l4.5-1.6v-0.1c0.1,0,0.1,0,0.2,0.1l0.6-0.2l0,0l0,0l1.3-0.5c-0.2-0.2-0.2-1.1,0.3-0.8
		c0.1,0.4-0.1,0.5-0.2,0.8l2.7-1l0,0l0.4-0.1c-0.1,0.4-0.2,0.9-0.3,1.3l0.1-0.1c0.4,0.2,0,0.3-0.2,0.3c-0.2,0.9-0.3,1.8-0.4,2.8
		l-2.2-1.9c-0.1,0-0.1,0-0.1-0.1l-0.4-0.3L70.2,88c0.1,0.4,0,0.8,0.2,1.1c-0.3-0.2-0.5-0.6-0.6-0.9l-2.8,1l0.2,0.2
		c0.2-0.2,0.5,0.1,0.6,0.5l0.6,0.5l0,0l0.4,0.4c0.4-0.3,0.9-0.4,1.5-0.5c0,0.6-1,0.3-0.8,1.1l0,0l2.6,2.2l0.1-0.1
		c0.3,0.1,0.2,0.2,0.1,0.3l1.6,1.3c0.1,0.6,0.2,1.2,0.3,1.8l-4.2,7.2c0.1,0.1,0,0.1-0.1,0.2l0,0c0,0.4,0.3,0.4,0.2,0.8
		c-0.1-0.2-0.3-0.3-0.5-0.4l-9.3,16l0,0c0,0.1,0,0.3,0,0.4c-0.1,0-0.2,0-0.3,0l-6.5,11.1c-1.6-1.7-3.1-3.5-4.5-5.4
		c0,0.1-0.1,0.1-0.1,0.2C48.6,126.6,48.7,126.5,48.8,126.4z M41.9,106.2C42.7,106.5,41.2,106.8,41.9,106.2L41.9,106.2z M43.6,106.8
		C43.5,107.7,42.4,106.6,43.6,106.8L43.6,106.8z M43.6,105.5C44.3,104.9,43,106.2,43.6,105.5L43.6,105.5z M44.5,107.4
		c0.1,0.1,0.2-0.6,0.2-0.6C45,106.7,45,107.9,44.5,107.4z M44.7,106.2c0-0.2,0.4-0.2,0.6-0.2C45.5,106.6,44.9,106.3,44.7,106.2z
		 M44.7,107.8C45.4,108.1,43.9,108.4,44.7,107.8L44.7,107.8z M47,106.6c-0.1,0-0.3,0-0.4,0C46.4,105.5,47.7,106.2,47,106.6z
		 M47.2,107.6C48,108,46.5,108.3,47.2,107.6L47.2,107.6z M49.1,107.4C49.7,107.5,48.9,108.3,49.1,107.4L49.1,107.4z M50,107.6
		C49.2,107,50.6,106.9,50,107.6L50,107.6z M51.6,106.2c-0.1,0-0.3,0-0.4,0c0-0.1,0-0.3,0-0.4c0.1,0,0.3,0,0.4,0
		C51.6,105.9,51.6,106,51.6,106.2z M51.6,108C51.1,106.9,52,108.9,51.6,108L51.6,108z M53.1,105.7c0.1-0.3,0.5-0.2,0.8-0.2
		C54.1,106.3,53.3,105.9,53.1,105.7z M55,105.3C55.7,105.6,54.8,106.4,55,105.3L55,105.3z M55.9,106.2
		C56.6,106.5,55,106.7,55.9,106.2L55.9,106.2z M56.7,107.6c0-0.1,0-0.3,0-0.4c0.2,0,0.2-0.1,0.2-0.2C57.3,106.9,57.2,108,56.7,107.6
		z M57.5,107.8c0,0.1,0,0.3,0,0.4c-0.1,0-0.3,0-0.4,0c0-0.1,0-0.3,0-0.4C57.3,107.8,57.4,107.8,57.5,107.8z M58.8,105.9
		c0-0.2,0-0.4,0-0.6C59.3,105.3,59.9,106.1,58.8,105.9z M60.5,107.4C61.1,107.5,60.3,108.3,60.5,107.4L60.5,107.4z M62,107.4
		C61.3,108.2,61.3,106.8,62,107.4L62,107.4z M63.7,108.5c0.1,0,0.2,0,0.2,0C63.7,108.5,62.7,108.3,63.7,108.5z M67,105.3
		c0.3,0.2,0.7,0.3,0.6,0.8C67.1,106.2,67.1,105.7,67,105.3z M74,92.4C73.9,92.6,74.1,92.4,74,92.4L74,92.4z M73.8,93.7
		C73.1,93.2,74.5,92.9,73.8,93.7L73.8,93.7z M73.2,89.7C73.2,89.6,73,89.8,73.2,89.7L73.2,89.7z M70.6,88.9c0.4,0.2,0.7,0.4,0.6,1.1
		C70.7,89.9,70.6,89.4,70.6,88.9z M71.3,92.2c-0.4,0.1-0.4-0.3-0.4-0.6C71.1,91.7,71.3,91.9,71.3,92.2z M72.9,99.4
		C73.6,99.7,72.7,100.5,72.9,99.4L72.9,99.4z M71.9,104.9c0.2,0,0.4,0,0.4-0.2c0.2,0,0.1,0.2,0,0.2c-0.1,0.4,0.2,0.4,0.4,0.4
		c-0.1,0.2-0.2,0.3-0.2,0.6C72.1,105.8,72,105.4,71.9,104.9z M71.7,107C71,106.5,72.4,106.1,71.7,107L71.7,107z M71.9,102.4
		C72.5,102.4,71.7,103.2,71.9,102.4L71.9,102.4z M71.5,105.9c-0.4-0.1-0.5-0.4-0.4-0.8C71.3,105.2,71.4,105.5,71.5,105.9z
		 M71.1,103.1c0,0,0.1-0.1,0.1-0.2l0,0c0,0,0-0.1,0.1-0.1C71.3,102.8,71.2,102.9,71.1,103.1C71.2,102.9,71.1,103,71.1,103.1z
		 M69.8,106.6c0,0.3,0,0.6,0,0.8C69,107.7,68.8,106.2,69.8,106.6z M68.3,111.8C69.1,112.4,67.6,112.2,68.3,111.8L68.3,111.8z
		 M67.5,108.9c0-0.2,0-0.4,0-0.6c0.5-0.1,0.3,0.4,0.6,0.4C68.1,108.9,67.7,108.9,67.5,108.9z M68.1,111.2
		C68,112.2,66.8,111,68.1,111.2L68.1,111.2z M67.2,110.6C67.9,110.9,66.4,111.1,67.2,110.6L67.2,110.6z M66.2,115.2
		C67,115.7,65.5,115.5,66.2,115.2L66.2,115.2z M65.6,116.1C66.2,116.1,65.4,116.9,65.6,116.1L65.6,116.1z M65.1,112.9
		c0-0.2,0-0.4,0-0.6c0.1,0,0.3,0,0.4,0C65.6,112.7,65.5,112.9,65.1,112.9z M64.7,116.7C65.2,117.4,64,116.2,64.7,116.7L64.7,116.7z
		 M63.7,114.8C64.3,114.8,63.5,115.7,63.7,114.8L63.7,114.8z M63,116.7c0-0.1,0-0.3,0-0.4c0.2,0,0.2-0.1,0.2-0.2
		C63.7,116,63.5,117,63,116.7z M62,119c-0.2-0.1-0.1-0.4-0.4-0.4c0.1-0.4,0.6-0.6,1.1-0.6C62.7,118.6,62,118.5,62,119z M62.5,123.5
		c-0.1,0-0.3,0-0.4-0.1c0.1,0,0.2,0,0.3,0C62.4,123.5,62.5,123.5,62.5,123.5z M61.8,119.6C62.4,119.7,61.6,120.5,61.8,119.6
		L61.8,119.6z M60.9,123.7C61.7,124.2,60.2,124,60.9,123.7L60.9,123.7z M60.9,120.3C61.6,120.3,60.7,121.2,60.9,120.3L60.9,120.3z
		 M61.1,121.3c0-0.1,0-0.3,0-0.4c0.1,0,0.3,0,0.4,0c0,0.1,0,0.3,0,0.4C61.4,121.3,61.3,121.3,61.1,121.3z M58.4,126.2
		C59,126.4,58.2,127.3,58.4,126.2L58.4,126.2z M57.1,128.9c0.4,0,0.7,0,1.1,0C58,129.4,57,129.9,57.1,128.9z M57.5,132.1
		c-0.6-0.2-0.2-0.3-0.2-0.8C57.8,131.3,57.8,131.8,57.5,132.1z M55.9,134.8C56.5,134.9,55.7,135.7,55.9,134.8L55.9,134.8z
		 M55.6,129.4c0-0.1,0-0.3,0-0.4c0.1,0,0.3,0,0.4,0c0,0.1,0,0.3,0,0.4C55.9,129.4,55.8,129.4,55.6,129.4z M56.1,130.6
		C56.7,130.7,55.9,131.5,56.1,130.6L56.1,130.6z M55,130.4C55.7,130.7,54.2,130.9,55,130.4L55,130.4z M54.4,131
		C55,131.1,54.2,131.9,54.4,131L54.4,131z M54.2,137.2C54.8,137.2,54,138,54.2,137.2L54.2,137.2z M53.3,135.3c0,0.4-0.3,0.4-0.2,0.8
		C52.7,136.2,52.7,134.9,53.3,135.3z M53.1,134.2C53.8,134.5,52.3,134.7,53.1,134.2L53.1,134.2z M53.3,132.9
		C54,133,53.1,133.8,53.3,132.9L53.3,132.9z M53.5,137.2c0.6,0.3,0.4,0.9,0.2,1.5C53.3,138.5,53.7,137.6,53.5,137.2z M51.2,130.2
		C51.9,130.5,50.4,130.7,51.2,130.2L51.2,130.2z M52.7,132.1c0.5-0.1,0.4,0.3,0.4,0.6C52.9,132.6,52.7,132.5,52.7,132.1z
		 M52.9,136.7c0,0.4,0,0.8,0,1.3c-0.5,0.1,0.1-1-0.6-0.6C52.5,137.2,52.3,136.6,52.9,136.7z M52.3,134.4
		C52.9,134.5,52.1,135.3,52.3,134.4L52.3,134.4z M51.9,141.4C52.4,142.1,51.1,140.9,51.9,141.4L51.9,141.4z M48.7,143.1
		C49.3,143.1,48.5,143.9,48.7,143.1L48.7,143.1z M48.1,143.5C48.7,143.5,47.9,144.4,48.1,143.5L48.1,143.5z M46.8,144.3
		C47.3,145,46.1,143.8,46.8,144.3L46.8,144.3z M47.2,146.9c0,0.1,0,0.3,0,0.4c-0.1,0-0.3,0-0.4,0c0-0.1,0-0.3,0-0.4
		C46.9,146.9,47.1,146.9,47.2,146.9z M46.6,150c0.1,0,0.3,0,0.4,0c0,0.1,0,0.3,0,0.4c-0.1,0-0.3,0-0.4,0
		C46.6,150.3,46.6,150.2,46.6,150z M47.6,151.9C48.3,152,47.4,152.8,47.6,151.9L47.6,151.9z M48.7,151.3
		C49.2,152,48,150.8,48.7,151.3L48.7,151.3z M49.7,150C50.6,150.5,49,150.3,49.7,150L49.7,150z M50.4,149.4c0.3-0.1,0.4,0.2,0.6,0.2
		C51.1,150,50,149.9,50.4,149.4z M52.5,149c0-0.1,0-0.3,0-0.4c0.2,0,0.4,0,0.4-0.2C53.2,148.3,52.9,149.6,52.5,149z M55.4,145.6
		c-0.4-0.1-0.6-0.4-0.8-0.6C54.8,144.4,55.7,144.9,55.4,145.6z M56.3,144.5C55.2,145.1,57.1,144.1,56.3,144.5L56.3,144.5z
		 M57.1,143.3C56.4,142.8,57.9,142.4,57.1,143.3L57.1,143.3z M59.4,141.8c-0.1,0-0.3,0-0.4,0c0-0.1,0-0.3,0-0.4c0.1,0,0.3,0,0.4,0
		C59.4,141.5,59.4,141.7,59.4,141.8z M46.9,150.6l8.5-14.6c0.5,0.5,1,0.9,1.6,1.4c0.1,0,0.1,0,0.2,0.1c0.6,0.5,1.3,1.1,1.9,1.6
		c0.1-0.1,0.2-0.6,0.2-0.6c0.3,0,0.3,0.7,0,0.7c0.2,0.2,0.4,0.3,0.6,0.5L46.9,150.6z M60.5,142.6C60.3,143.5,59.4,142.6,60.5,142.6
		L60.5,142.6z M62,138.4C62.8,138.9,61.3,138.7,62,138.4L62,138.4z M62.2,141.6C62.8,141.6,62,142.5,62.2,141.6L62.2,141.6z
		 M63.7,141.8c-0.2,0-0.4,0-0.6,0c0.1-0.2,0.2-0.3,0.2-0.6c0.2,0,0.2,0.2,0.4,0.2C63.7,141.5,63.7,141.7,63.7,141.8z M63.2,139.3
		c0.5-0.1,0.3,0.4,0.6,0.4C63.9,140.1,63.1,139.7,63.2,139.3z M63.7,140.3c0.3,0,0.6,0,0.8,0C64.1,140.4,63.5,141.5,63.7,140.3z
		 M64.5,137.4C65.1,137.4,64.3,138.2,64.5,137.4L64.5,137.4z M65.8,143.5c-0.3-0.1-0.4-0.5-0.4-0.8c0.2,0,0.4,0,0.6,0
		C66,143,65.7,143.1,65.8,143.5z M67.7,144.3c-0.1,0-0.3,0-0.4,0c0-0.1,0-0.3,0-0.4c0.1,0,0.3,0,0.4,0
		C67.7,144,67.7,144.2,67.7,144.3z M70.2,145.2C69.4,144.6,70.1,143.9,70.2,145.2L70.2,145.2z M70.8,146
		C71.4,146.7,70.2,145.4,70.8,146L70.8,146z M78,147.9C78.6,148,77.8,148.8,78,147.9L78,147.9z M86.7,150.7
		C87.4,151,85.8,151.2,86.7,150.7L86.7,150.7z M87.9,150.4c-0.3,0-0.4-0.3-0.4-0.6c-1.1-0.2-2.3-0.4-3.4-0.6c-0.1,0.1-0.2,0.2-0.2,0
		c-0.1,0-0.3-0.1-0.4-0.1c-0.1,0.1-0.2,0.1-0.2,0c-0.4-0.1-0.9-0.2-1.3-0.3c-0.1,0.2-0.3,0.2-0.5,0c0-0.1,0-0.1,0-0.2
		c-2.2-0.6-4.3-1.2-6.4-2c-0.1,0.6-0.8,0.5-0.4-0.1h0.1c-2.8-1.1-5.6-2.4-8.2-4c-0.1,0.1-0.3,0-0.3-0.2c-0.8-0.5-1.5-0.9-2.3-1.4
		l5.1-4.3c0-0.1,0.1-0.1,0.1-0.1l5.8-4.9c0-0.1,0-0.2,0-0.3c0.1,0,0.2,0.1,0.2,0.1l3.1-2.7l0,0l0,0l5.7-4.8c0-0.1,0-0.2,0-0.3
		l-0.7-3.8l-11.5,9.7c0,0.1-0.2,0.3-0.2,0.2l-4.1,3.4c0.1,0.2,0.1,0.4,0.1,0.6c-0.2-0.1-0.3-0.2-0.3-0.4l-1.2,1
		c0,0.1,0.1,0.1,0.1,0.2c-0.1,0.3-0.3,0.2-0.4,0l-4.8,4.1c-1.7-1.3-3.3-2.6-4.8-4.1l7.1-12.3c-0.1-0.2,0-0.4,0-0.7
		c0.2,0.1,0.3,0,0.4,0l5.3-9.1c0,0-0.1,0,0,0l6.7-11.5c0.6,1.3,1.3,2.6,2.2,3.8H76c0,0.4-0.5,0.8-0.6,0.9c-0.4-0.2,0-0.6,0.2-0.9
		h-1.3l-0.9,1.6c0.4,0.3-0.2,0.8-0.1,0.2l-1,1.8h3.6c-0.2-0.2-0.4-0.4,0-0.1c0,0.1,0.1,0.1,0.1,0.1h5.2c0.1,0.1,0.3,0.2,0.4,0.4
		c0,0,0,0,0-0.1c0.2,0,0.3,0.1,0.2,0.3c0.3,0.2,0.5,0.4,0.8,0.6l0.8,4.8c0.1,0.1,0.1,0.2,0,0.3l0.7,3.8c0.3,0,0.4-0.3,0.6-0.8
		c0.6,0.3-0.2,0.9,0,1.5c-0.2-0.1-0.4-0.2-0.5-0.3l0.3,2c0.3-0.1,0.8,0.3,0.8-0.3c0.5,0.1,0.2,1.3,0,1.5c-0.3-0.1-0.5-0.3-0.7-0.5
		l0.2,1.1c0.2-0.1,0.4-0.2,0.5-0.4c0.2,0.2,0,0.7-0.4,1.1l0.6,3.4l0,0l0,0l1.2,6.7c0.2,0,0.3-0.1,0.3-0.2c0.2-0.5,0.2,0.6-0.2,0.9
		l0.9,5.2c0.1,0.1,0.2,0.2,0.1,0.4l0.6,3.2c0.3,0,0.4-0.5,1-0.4c0,0.4,0,0.8,0,1.3c-0.4-0.8-0.7-0.5-1-0.6l0.3,1.5
		c0.1,0.1,0.1,0.2,0,0.3l0.8,4.9c-0.5-0.1-0.9-0.1-1.4-0.2C88.1,150.1,88.1,150.3,87.9,150.4z M65.3,137.4c0.1-0.2,0.4-0.1,0.4-0.4
		c0.2,0,0.2,0.4,0.2,0.6C65.6,137.6,65.6,137.4,65.3,137.4z M70.4,134.2c-0.3,0.3-0.7,0.4-1.3,0.4c0-0.3,0-0.6,0-0.8
		C69.6,133.9,69.7,134.3,70.4,134.2z M69.8,131.9C70.4,131.9,69.6,132.8,69.8,131.9L69.8,131.9z M70.4,134.8
		C71.1,135.1,70.2,136,70.4,134.8L70.4,134.8z M71.7,132.7c0.1,0.3-0.2,0.4-0.2,0.6C71.1,133.4,71.2,132.4,71.7,132.7z M74.2,131.5
		C74.9,131.8,73.4,132,74.2,131.5L74.2,131.5z M78.6,123.9C79.3,124.1,78.4,125,78.6,123.9L78.6,123.9z M79.3,124.9
		C79.9,125.2,79,126,79.3,124.9L79.3,124.9z M79.9,126.8C80.5,126.9,79.7,127.7,79.9,126.8L79.9,126.8z M80.1,124.5
		C80.7,124.5,79.9,125.4,80.1,124.5L80.1,124.5z M81,124.9c0-0.3,0.6-0.1,0.6-0.4c0.4,0.2,0,0.4,0,0.6C81.4,125,81.2,124.9,81,124.9
		z M82.4,122.2C82.9,122.9,81.7,121.7,82.4,122.2L82.4,122.2z M82.6,123.2c0,0,0.1,0,0.2,0s0.2,0,0.3,0c0,0,0,0-0.1,0s-0.2,0-0.2,0
		C82.7,123.2,82.6,123.2,82.6,123.2z M78,107.2C77.4,108,77.3,106.6,78,107.2L78,107.2z M76.5,106.8C77.2,107,76.3,107.9,76.5,106.8
		L76.5,106.8z M74.2,107.6C74.8,107.7,74,108.5,74.2,107.6L74.2,107.6z M73.8,106.6C74.4,106.6,73.6,107.4,73.8,106.6L73.8,106.6z
		 M87.7,123.7c0.1,0,0.3,0,0.4,0c0,0.2,0.1,0.2,0.2,0.2c-0.4,0.2-0.6,0.5-1.1,0.6C87,123.8,88,124.3,87.7,123.7z M87.3,120.1
		C87.9,120.1,87.1,120.9,87.3,120.1L87.3,120.1z M88.6,141.6C88.6,140.1,89.8,141.3,88.6,141.6L88.6,141.6z M88.8,135.7
		C89.4,135.7,88.6,136.6,88.8,135.7L88.8,135.7z M89.2,142.2C89.9,142.5,88.4,142.7,89.2,142.2L89.2,142.2z M89.2,135.5
		c-0.6,0.2-0.4-0.4-0.8-0.4C88.2,134.8,89.4,135,89.2,135.5z M87.9,129.8c0.1,0,0.3,0,0.4,0c0,0.1,0,0.3,0,0.4c-0.1,0-0.3,0-0.4,0
		C87.9,130.1,87.9,129.9,87.9,129.8z M87.7,127.5C88.5,128,87,127.8,87.7,127.5L87.7,127.5z M88.1,135.3
		C88.8,135.3,87.9,136.1,88.1,135.3L88.1,135.3z M87.3,124.9C87.9,125,87.1,125.8,87.3,124.9L87.3,124.9z M87.3,125.6
		C88,125.9,86.6,126.2,87.3,125.6L87.3,125.6z M89.4,147.7C90,148,89.2,148.8,89.4,147.7L89.4,147.7z M89.6,145.8
		c-0.4,0-0.4,0.3-0.8,0.2c0.4-0.8,0.5-0.9,0.6-1.7C89.9,144.4,89.5,145.4,89.6,145.8z M89.6,143.1c0.1-0.3,0.4-0.3,0.4-0.6
		C90.6,142.5,90,143.2,89.6,143.1z M90,141.8C90.7,141.8,89.8,142.7,90,141.8L90,141.8z M90.4,143.9c-0.1,0-0.3,0-0.4,0
		c0-0.1,0-0.3,0-0.4c0.1,0,0.3,0,0.4,0C90.4,143.6,90.4,143.8,90.4,143.9z M90.7,145C91.4,145.9,90.1,145.8,90.7,145L90.7,145z
		 M90.7,142.4C91.3,142.5,90.5,143.3,90.7,142.4L90.7,142.4z M91.1,139.7C91.6,140.4,90.4,139.2,91.1,139.7L91.1,139.7z M91.5,150
		c0,0.5-0.3,0.7-0.4,1.1C90.4,151,90.8,150,91.5,150z M91.5,150.9c0-0.1,0-0.3,0-0.4c0.1,0,0.3,0,0.4,0c0,0.1,0,0.3,0,0.4
		C91.8,150.9,91.6,150.9,91.5,150.9z M91.9,154.7c0,0.1,0,0.3,0,0.4c-0.1,0-0.3,0-0.4,0c0-0.1,0-0.3,0-0.4
		C91.6,154.7,91.8,154.7,91.9,154.7z M91.5,146.4c0.4,0.6-0.9-0.9-0.2-1.3C92,145.3,91.3,145.7,91.5,146.4z M91.1,159.1
		c0.1-0.6,0.1-0.4,0-1.1C91.7,157.7,91.7,159.4,91.1,159.1z M91.7,158.2c0-0.2,0-0.4,0-0.6c0.1,0,0.3,0,0.4,0
		C92.2,158,92.1,158.3,91.7,158.2z M92.6,162c-0.1,0-0.3,0-0.4,0C91.9,161,93.3,161.7,92.6,162z M93.8,155.3
		C93.6,156.2,92.7,155.3,93.8,155.3L93.8,155.3z M93.8,158.2C94.5,158.3,93.6,159.1,93.8,158.2L93.8,158.2z M93.4,154.5
		C93.9,155.2,92.7,153.9,93.4,154.5L93.4,154.5z M92.8,160.1C93.2,158.8,94.3,159.9,92.8,160.1L92.8,160.1z M93.4,168.6
		c-0.3-0.3-0.4-0.7-0.4-1.3C93.7,167.1,93.3,168.1,93.4,168.6z M93.2,163.1c-0.4-0.4,0.3-1.4,0.8-1.5c0.2,0.5-0.7,1.1,0.2,1.1
		C94.4,163.8,93.3,162.3,93.2,163.1z M94.2,156.5L94.2,156.5c-0.1-0.2-0.1-0.4-0.1-0.6l0,0l-0.7-4.1c0.9,0,1.9,0.1,2.8,0.1
		c-0.6-0.5,0.2-1.3,0,0h0.1c0.3,0,0.6,0,1,0c-0.1,0-0.3-0.1-0.4-0.2c0.1-0.4,0.4-0.5,0.8-0.4c0.1,0.4-0.2,0.6-0.4,0.6
		c0.6,0,1.3,0,1.9,0l-2.9,16.7L94.2,156.5z M99.5,153.6c-0.4-0.1-0.5-0.4-0.4-0.8C99.7,152.6,99.5,153.2,99.5,153.6z M99.3,151.3
		C99.9,151.3,99.1,152.2,99.3,151.3L99.3,151.3z M97.4,167.1C98,167.1,97.2,168,97.4,167.1L97.4,167.1z M97.6,168.6
		c-0.4,0.1-0.6-0.1-0.8-0.2C96.8,167.8,97.8,167.9,97.6,168.6z M97.6,163.5c0.5,0.1,0.5,0.6,0.2,0.8
		C97.5,164.3,97.7,163.8,97.6,163.5z M96.1,170.9C96.8,171.2,95.9,172,96.1,170.9L96.1,170.9z M95.7,169c-0.3-0.1-0.5-0.3-0.8-0.4
		c0.3-0.6,0.6-0.3,1.1-0.2C95.8,168.5,95.7,168.7,95.7,169z M95.9,170.5c0.1,0.3-0.2,0.4-0.2,0.6C95.3,171.2,95.4,170.2,95.9,170.5z
		 M94.9,167.3c-0.1-0.6,0.4-0.5,0.8-0.6c0,0.2,0,0.4,0,0.6C95.4,167.3,95.2,167.3,94.9,167.3z M94.9,169.4
		C94.8,170.3,93.7,169.2,94.9,169.4L94.9,169.4z M94.5,172.4c0-0.2,0-0.4,0-0.6c0.3,0,0.6,0,0.6-0.2c0.3-0.4,0.1,0.6,0,0.8
		C94.9,172.4,94.7,172.4,94.5,172.4z M95.3,180.2C96,180.5,94.6,180.8,95.3,180.2L95.3,180.2z M95.3,177.7
		C95,177.5,96.2,178.2,95.3,177.7L95.3,177.7z M95.9,179.6C96.6,179.9,95.1,180.1,95.9,179.6L95.9,179.6z M96.1,182.7
		c-0.4,0.1-0.4-1.2,0.2-0.8C96.2,182.1,96.1,182.3,96.1,182.7z M96.6,172.2C97.1,172.9,95.9,171.7,96.6,172.2L96.6,172.2z
		 M96.6,168.8C97.2,168.8,96.4,169.7,96.6,168.8L96.6,168.8z M97.4,171.5c-0.5-0.2-0.7-0.7-0.6-1.5
		C97.3,170.3,97.3,170.9,97.4,171.5z M97,173.9C96.5,173.3,97.6,172.6,97,173.9L97,173.9z M97.6,175.1c0.9,0.3-0.4,0.8,0,1.9
		C96.8,176.9,97.5,175.7,97.6,175.1z M97.6,178.3c0.3,0.1,0.4,0.3,0.4,0.6C97.6,179,97.6,178.6,97.6,178.3z M98,159.3
		C98.7,159.3,97.8,160.2,98,159.3L98,159.3z M98.7,169.6C99.3,169.9,98.4,170.8,98.7,169.6L98.7,169.6z M98.5,166.7
		c0-0.2,0.4-0.2,0.6-0.2C99.2,167.2,98.7,166.8,98.5,166.7z M98.9,163.5c0.3,0.1,0.4,0.5,0.4,0.8C98.7,164.6,98.9,163.9,98.9,163.5z
		 M99.1,163.3c-0.4,0.1-0.3-1,0.2-0.6C99.4,163,99.1,163,99.1,163.3z M98.7,161.8c-1.1-0.2,0.9-1.9,0.8-0.4
		C98.9,161.2,98.9,161.3,98.7,161.8z M99.1,158.5c-0.1,0-0.3,0-0.4,0c0-0.1,0-0.3,0-0.4c0.1,0,0.3,0,0.4,0
		C99.1,158.2,99.1,158.3,99.1,158.5z M99.1,158.7C99.8,159,98.3,159.2,99.1,158.7L99.1,158.7z M98.7,156.3c-0.1-1,0.5-0.1,0.6-1.1
		c0.2,0.1,0.3,0.2,0.6,0.2C99.4,155.7,99.5,156.5,98.7,156.3z M100.2,163.7C100.8,163.8,100,164.6,100.2,163.7L100.2,163.7z
		 M99.9,158c0-0.2,0.4-0.2,0.6-0.2C100.7,158.5,100.1,158.2,99.9,158z M101.2,157.6c-0.4,0.1-0.4-1.2,0.2-0.8
		C101.4,157.1,101.2,157.2,101.2,157.6z M101,149.4c-0.7-0.1-0.2-0.9,0.4-0.8C101.4,149,100.8,148.8,101,149.4z M100.8,143.3
		c0.5-0.1,0.4,0.3,0.4,0.6C100.9,143.8,100.8,143.6,100.8,143.3z M101.6,146.4c-0.5,0.1-0.2-0.6-0.6-0.6c0.1-0.3,0.5-0.4,0.8-0.4
		C101.7,145.6,101.6,145.9,101.6,146.4z M102.5,151.9c-1.3-0.6,0-1.3-0.4-2.3c0.1-0.4,0.5,0.7,0.6,1.1c-0.2,0-0.4,0-0.6,0
		C102.2,151,102.4,151.4,102.5,151.9z M102.1,138.4c0.5,0,0.1,0.7,0.2,1.1C101.8,139.5,102.2,138.7,102.1,138.4z M104.6,134.6
		c0.1,0.4-1,0.3-0.6-0.2C104.3,134.4,104.3,134.6,104.6,134.6z M104.2,131.7C104.8,131.7,104,132.5,104.2,131.7L104.2,131.7z
		 M103.9,126.6C103.4,127.3,103.4,125.5,103.9,126.6L103.9,126.6z M103.7,136.9c0.1,0.3-0.2,0.4-0.2,0.6
		C103.1,137.7,103.2,136.6,103.7,136.9z M102.9,134.6C103.6,135,102.2,135.3,102.9,134.6L102.9,134.6z M103.2,136.6
		C103.2,136.6,103.1,136.6,103.2,136.6c-0.1-0.1-0.1-0.1-0.2-0.1l-0.1-0.1l0,0c0,0-0.1,0-0.1-0.1l0,0c0,0,0,0,0.1,0.1l0,0l0.1,0.1
		C103.1,136.5,103.2,136.6,103.2,136.6z M102.5,140.1c0-0.5,0-1,0.2-1.3C103.3,138.8,103.1,140.1,102.5,140.1z M102.7,141.4
		c0.4,0.1,0.1,0.9,0.6,0.8c0.5,0.5-0.4-0.1-0.8,0C102.4,141.8,102.6,141.7,102.7,141.4z M102.7,134c-0.2-0.7,0.5-0.4,0.6-0.8
		C103.8,133.4,103.1,134.1,102.7,134z M102.5,132.7C103.1,133,102.2,133.8,102.5,132.7L102.5,132.7z M102.9,144.7
		C102.3,144.3,103.1,143.4,102.9,144.7L102.9,144.7z M104.4,150C105.1,150.3,103.5,150.5,104.4,150L104.4,150z M105.8,150
		C106.5,150.3,105,150.5,105.8,150L105.8,150z M108.2,150C108.8,150.1,108,150.9,108.2,150L108.2,150z M109.9,149.4
		C110.5,149.4,109.7,150.3,109.9,149.4L109.9,149.4z M113,149C112.3,148.5,113.8,148.1,113,149L113,149z M121.5,146
		c-0.1-0.4,0.1-0.6,0.2-0.8c0.4,0.8,0.6,0.1,1.3,0C123,146,121.9,145.7,121.5,146z M123.6,144.7c0-0.1,0-0.3,0-0.4
		c0.2,0,0.2-0.1,0.2-0.2C124.2,144,124.1,145.1,123.6,144.7z M126.3,143.1C125.8,143.8,125.8,142,126.3,143.1L126.3,143.1z
		 M118.6,146.1c0.3,0.3-0.6,1.1-0.9,0.6c0-0.1,0-0.1,0-0.2c-0.4,0.2-0.8,0.3-1.3,0.5c0,0.1,0.1,0.1,0.2,0.1c-0.1,0.3-0.4,0.2-0.5,0
		c-0.1,0-0.2,0.1-0.3,0.1c0,0.1-0.1,0.1-0.1,0c-1.2,0.4-2.5,0.8-3.8,1.2c0.2,0.3,0,1.6-0.7,1.4c0.4-0.3,0.4-0.9,0.6-1.4
		c-0.2,0.1-0.5,0.1-0.7,0.2c-0.1,0.3-0.2,0.6-0.1,1c-0.2-0.1-0.3-0.5-0.2-0.9c-2.5,0.6-5,1.1-7.6,1.4l0.9-5.3c0,0,0,0,0-0.1l0.6-3.6
		c0,0,0,0-0.1,0c0-0.4,0-0.6,0.2-0.8l2-11.7c-0.1-0.1-0.2-0.2-0.3-0.2c0-0.2,0.2-0.2,0.2-0.4c0.1,0,0.1,0.1,0.2,0.1l0.1-0.4
		c0-0.1-0.1-0.2-0.1-0.4c0,0,0.1,0,0.1,0.1l0.6-3.3c-0.1,0-0.3,0-0.5,0c0-0.1,0.1-0.2,0.2-0.3l-0.6-0.5l0,0c-0.2,0-0.4,0-0.6,0
		c0.1-0.1,0.1-0.2,0.2-0.4l-1.8-1.5l-0.2,0.9c0.3,0.2,0,0.6-0.1,0.5l-0.1,0.7c0.4-0.3,0.9,0.3,1.2-1c0.9,0.9,0.2,0.6,0,1.7
		c-0.5,0.3-0.8-0.5-0.8,0c-0.5,0.1,0.5-0.7-0.3-0.6l-0.2,1.1c0.1,0.3,0.1,0.6-0.1,0.8l0,0l-4,23.1c0.1,0.4,0,0.5-0.1,0.5l-0.2,1.3
		c0,0,0,0-0.1,0c-0.1,0.2-0.2,0.4-0.4,0.6c-0.3-0.2-0.3-0.4-0.2-0.6c-0.8,0-1.6,0.1-2.5,0.1c-0.4,0-0.9,0-1.3,0
		c-0.1,0.1-0.3,0.3-0.3,0c-0.5,0-1,0-1.5,0l-0.2-1.1l-0.1,0.1c-0.2,0-0.2-0.4-0.2-0.6c0.1,0,0.2,0,0.3,0.1l-1.4-7.8
		c-0.3,0-0.5-0.1-0.4-0.5c0.1,0,0.2,0,0.3,0l-0.6-3.5c-0.2-0.2-0.1-0.3-0.1-0.4l-0.5-2.6c0,0.1-0.1,0.2,0,0.3
		c-0.2-0.3-0.6-1.6-0.6-0.2c-0.3-0.1-0.2-0.5-0.2-0.8c0.3,0,0.5,0,0.7,0l-0.2-1.2c-0.2,0-0.5-0.1-0.1-0.3c0,0,0,0,0.1,0l-0.3-1.8
		c-0.3,0.5-1.1-1.2-0.2-1.2l-2.9-16.6c0.7,0.3,1.3,0.6,2,0.8c0,0,0,0,0.1-0.1c0.1,0,0.1,0.1,0.2,0.1c0.6,0.2,1.2,0.4,1.8,0.6
		l-2.7,2.3l0.7,4.1l6.8-5.7c0.3,0,0.6,0,0.9,0s0.6,0,0.9,0l8,6.8c0-0.1,0-0.2,0-0.4c0.1,0,0.3,0,0.4,0c0.1,0.3,0,0.5-0.2,0.6
		l1.7,1.4c0.1-0.5,0.9-0.8,1,0.1c-0.5-0.2-0.6-0.2-0.7,0.1l1.5,1.2c-0.1-0.2-0.2-0.5-0.1-0.8c0.9-0.3,0.4,0.9,0.8,1.1
		c-0.1,0.1-0.1,0.1-0.2,0.2l0.8,0.7c0.2,0,0.2,0.1,0.2,0.2l3.8,3.2c0.1,0,0.1,0,0.2,0c0,0.1,0,0.1,0,0.2l3.1,2.6
		c0-0.3,0.1-0.6,0.4-0.7c0-0.1,0-0.1,0,0l0,0c0,0.2,0,0.6-0.1,1l1.3,1.1c0.1,0,0.1-0.1,0.1-0.2c0.2,0.1,0.2,0.2,0.1,0.4l1.7,1.5
		c-0.1-0.3-0.1-0.6,0.3-0.8c0.5,0,0,0.9,0.2,1.2l0,0h0.1c0,0,0,0-0.1,0l0.6,0.5l0,0l6,5C125.3,142.9,122,144.7,118.6,146.1z
		 M105.2,134.6c0.6-0.8,0.5,1.3-0.2,1.1C104.6,135,106,135,105.2,134.6z M105.6,133.8C106.3,133.8,105.4,134.7,105.6,133.8
		L105.6,133.8z M105.2,128.1c-0.1-0.5,0.4-0.3,0.4-0.6C106,127.4,105.6,128.3,105.2,128.1z M105.4,129.1c-0.2,0.3-0.3,0.7-0.8,0.6
		C104.5,129.2,105,129.2,105.4,129.1z M105,133.1c-0.3-0.1-0.4-0.3-0.4-0.6C104.8,132.6,105,132.8,105,133.1z M88.8,119.2
		c-0.5,0-0.1-0.7,0-0.8C89.4,118.5,88.6,118.8,88.8,119.2z M88.8,117.1c0.1,0,0.1,0.1,0.2,0.1C88.8,117.1,88.6,117.1,88.8,117.1z
		 M88.8,115.9C89.4,115.9,88.6,116.7,88.8,115.9L88.8,115.9z M102.2,117.1C102.2,116.9,102.2,117,102.2,117.1L102.2,117.1z
		 M102.5,115C101.8,114.5,102.7,113.7,102.5,115L102.5,115z M102.3,117.7L102.3,117.7L102.3,117.7
		C102.3,117.6,102.3,117.6,102.3,117.7z M102.9,117.5C103.5,117.8,102.7,118.7,102.9,117.5L102.9,117.5z M103.5,118.4
		C103.3,119.3,102.4,118.4,103.5,118.4L103.5,118.4z M104.2,117.5C104.8,117,103.6,118.2,104.2,117.5L104.2,117.5z M104.8,118.2
		c0.3,0.1,0.4,0.3,0.4,0.6C105,118.7,104.8,118.5,104.8,118.2z M105.6,118c0.4-0.1,0.4,0.3,0.4,0.6
		C105.8,118.5,105.6,118.3,105.6,118z M106.9,119.9c0.1,0.3-0.2,0.4-0.2,0.6C106.3,120.6,106.4,119.5,106.9,119.9z M107.5,121.8
		C108.2,122.1,106.7,122.3,107.5,121.8L107.5,121.8z M107.3,120.1c0.3,0.2,0.3,0.7,0.4,1.1C107.3,121.1,107.3,120.6,107.3,120.1z
		 M108.4,122.8C109,123.1,108.1,123.9,108.4,122.8L108.4,122.8z M108.4,121.5c0-0.3,0-0.6,0-0.8
		C109.2,120.6,109.1,121.6,108.4,121.5z M109.6,121.8C110.3,121.8,109.4,122.6,109.6,121.8L109.6,121.8z M110.9,121.8
		c0.2,0.7-0.7,0.3-0.6,0.8C109.9,122.6,110.4,121.6,110.9,121.8z M110.9,125.3c0-0.1,0-0.3,0-0.4c0.2,0.2,0.5,0.2,0.8,0.2
		C111.8,125.9,110.9,125.4,110.9,125.3z M112.2,126.4C112.8,126.4,112,127.3,112.2,126.4L112.2,126.4z M112.2,124.9
		C112.8,125,112,125.8,112.2,124.9L112.2,124.9z M115.1,128.5c-0.5-0.1-0.3-1.2,0.4-0.8C115.8,128.3,115.2,128.2,115.1,128.5z
		 M115.5,128.9c0,0.1,0,0.3,0,0.4c-0.1,0-0.3,0-0.4,0c0-0.1,0-0.3,0-0.4C115.3,128.9,115.4,128.9,115.5,128.9z M114.3,126
		c0-0.4,0.4-0.5,0.8-0.4C115,125.8,114.7,125.9,114.3,126z M114.5,127.2c-0.4,0.7-1.1-1.2-1.5,0c-0.7-0.5,0.4-1,0.6-1.3
		C114,126.3,114,127,114.5,127.2z M114.1,127.9c-0.1,0.2-0.2,0.3-0.2,0.3C113.9,128.1,114.4,127.4,114.1,127.9z M116.6,127.2
		c-0.2,0.2-0.1,0.8-0.6,0.6C115.9,127.4,116.1,127.2,116.6,127.2z M116.2,126C117,126.6,115.5,126.7,116.2,126L116.2,126z
		 M116.4,129.6c-0.3,0.6-1-0.4-0.4-0.6C116.3,129,116,129.6,116.4,129.6z M116.8,126.4c0.4,0.4,0.9,0.9,0.2,1.3
		c-0.2,0-0.1-0.2,0-0.2C117.2,126.9,116.7,126.9,116.8,126.4z M117.4,128.5c-0.2,0.7,0,0.5,0,1.3
		C116.7,130.1,116.4,128.1,117.4,128.5z M119.1,129.1c-0.3,0.6-0.9,0.7-1.3,0.2C118.2,129.1,118.9,128.9,119.1,129.1z M118.3,128.3
		C118.9,128.9,117.6,127.7,118.3,128.3L118.3,128.3z M119.8,130.2c0.1,0.7-0.4,0.3-0.6,0.2C119.2,130.2,119.5,130.2,119.8,130.2z
		 M118.1,129.8c0,0.1,0,0.3,0,0.4c-0.1,0-0.3,0-0.4,0c0-0.1,0-0.3,0-0.4C117.8,129.8,117.9,129.8,118.1,129.8z M120.2,132.5
		C120.8,132.6,120,133.4,120.2,132.5L120.2,132.5z M121.2,131.9c0-0.2,0-0.4,0-0.6c0.1,0,0.3,0,0.4,0
		C121.7,131.7,121.6,131.9,121.2,131.9z M122.5,135c-0.2,0-0.2-0.1-0.2-0.2c0-0.1,0-0.3,0-0.4c0.4,0.4,0.3,0,0.8,0
		C123.1,134.8,122.4,134.6,122.5,135z M122.9,135C123.6,135.1,122.7,135.9,122.9,135L122.9,135z M124.2,133.8
		c-0.6,0.1-0.9-0.1-0.8-0.6c0.3,0,0.6,0,0.8,0C124.2,133.4,124.2,133.6,124.2,133.8z M124,135c-0.1-0.5,0-0.8,0.2-1.1
		C124.5,134,124.6,135.4,124,135z M123.8,136.3C123,135.7,124.4,135.6,123.8,136.3L123.8,136.3z M125.5,137.2
		c0.4,0.1,0.5,0.4,0.4,0.8C125.6,137.9,125.5,137.5,125.5,137.2z M127.8,138c0.6,0.2-0.2,0.6-0.2,0.8
		C126.9,138.6,127.8,138.3,127.8,138z M130.5,142C130.4,142.1,130.6,141.9,130.5,142L130.5,142z M130.3,141.4
		C130.9,141.4,130.1,142.2,130.3,141.4L130.3,141.4z M132,143.5C132.1,143.4,131.9,143.6,132,143.5L132,143.5z M132.8,142.4
		c-0.4,0.1-0.4-1.2,0.2-0.8C133.1,142,132.9,142.1,132.8,142.4z M133.5,143.7C133.6,143.6,133.3,143.8,133.5,143.7L133.5,143.7z
		 M134.3,145.4C133.8,146.1,133.8,144.3,134.3,145.4L134.3,145.4z M133.9,142.9c0.1-0.2,0.2-0.3,0.2-0.6c0.2,0,0.2,0.2,0.4,0.2
		c0,0.1,0,0.3,0,0.4C134.3,142.9,134.1,142.9,133.9,142.9z M134.5,144.5C134.4,144.7,134.6,144.4,134.5,144.5L134.5,144.5z
		 M134.7,145.6C134.6,145.7,134.8,145.5,134.7,145.6L134.7,145.6z M135.6,144.3C135.4,144.5,135.7,144.2,135.6,144.3L135.6,144.3z
		 M135.8,146.6C135.9,146.6,135.7,146.8,135.8,146.6L135.8,146.6z M136.9,147.5c-0.1,0-0.3,0-0.4,0c0-0.1,0-0.3,0-0.4
		c0.1,0,0.3,0,0.4,0C136.9,147.2,136.9,147.3,136.9,147.5z M136.6,146.6C136.7,146.6,136.5,146.8,136.6,146.6L136.6,146.6z
		 M138.1,146c-0.6,0-0.4-1.3,0.4-1.1C138.4,145.4,138.1,145.5,138.1,146z M139.2,147.7C139.3,147.6,139,147.8,139.2,147.7
		L139.2,147.7z M139.4,148.8C139.5,148.7,139.2,148.9,139.4,148.8L139.4,148.8z M141.9,150.2c0.3,0.1,0.4,0.3,0.4,0.6
		C141.9,151,141.9,150.6,141.9,150.2z M144.7,150.9C145.3,150.9,144.5,151.7,144.7,150.9L144.7,150.9z M142.8,148.2
		c0,0.1,0,0.2,0,0.3c-0.3-0.2-0.3-0.4-0.3-0.6l-9.6-8.1c0,0.2-0.4,0.4-0.2-0.2l0,0c1.5-1.2,3-2.4,4.4-3.7l1.8,3.1
		c0.2-0.2,0.5-0.1,0.2,0.3l1.1,1.8c0.2-0.3,0.1-0.2,0,0l5.4,9.4L142.8,148.2z M136.6,134c0.9,0.2,0,0.9,0.2,1.7
		C136,135.5,136.9,134.8,136.6,134z M136.4,130.2C137.3,130.7,135.7,130.5,136.4,130.2L136.4,130.2z M137.3,132.9
		C136.7,133.7,136.8,131.9,137.3,132.9L137.3,132.9z M137.3,135.5C137.9,135.7,137,136.6,137.3,135.5L137.3,135.5z M137.7,136.3
		C137.8,136.2,137.6,136.5,137.7,136.3L137.7,136.3z M137.9,131.5C138,131.4,137.8,131.6,137.9,131.5L137.9,131.5z M138.5,136.1
		c-0.1-0.4,0.1-0.6,0.2-0.8C139.1,135.2,139.1,136.4,138.5,136.1z M139.2,136.7c0,0.1,0,0.3,0,0.4c-0.1,0-0.3,0-0.4,0
		c0-0.1,0-0.3,0-0.4C138.9,136.7,139,136.7,139.2,136.7z M144.7,146.6C144.7,146.6,144.5,146.8,144.7,146.6L144.7,146.6z
		 M144.4,146.6c-0.2,0-0.1-0.2,0-0.2c0-0.2-0.2-0.2-0.2-0.4C144.4,145.5,144.8,146.5,144.4,146.6z M144.4,144.5
		c-0.3-0.1-0.4-0.3-0.4-0.6C144.3,144,144.5,144.2,144.4,144.5z M143.2,145.8C141.9,145.6,143.3,144,143.2,145.8L143.2,145.8z
		 M142.5,142.9c-0.3-0.1-0.4-0.3-0.4-0.6C142.4,142.3,142.6,142.5,142.5,142.9z M141.3,137.4C141.9,137.4,141.1,138.2,141.3,137.4
		L141.3,137.4z M140.9,138.2c-0.3-0.1-0.4-0.3-0.4-0.6C140.7,137.7,140.9,137.8,140.9,138.2z M140.4,136.1
		C140.5,136,140.3,136.2,140.4,136.1L140.4,136.1z M139.6,139.5c0.1-0.7,0.6-0.7,0.2-1.5C140.8,138.1,140.3,139.4,139.6,139.5z
		 M140.2,135.5c0.1,0.7-0.4,0.3-0.6,0.2C139.6,135.4,140,135.5,140.2,135.5z M143.4,127.7C144,127.7,143.2,128.5,143.4,127.7
		L143.4,127.7z M144.9,125.3C145,125.3,144.7,125.5,144.9,125.3L144.9,125.3z M145.9,124.7C146,124.6,145.8,124.9,145.9,124.7
		L145.9,124.7z M146.3,123.4c-0.1-0.8,0.7-0.7,0.8-0.2C147.1,123.5,146.7,123.4,146.3,123.4z M147.2,122.2
		C147.3,122.1,147,122.3,147.2,122.2L147.2,122.2z M148,119.4c-0.3,0.5-0.5,1-0.8,1.5c0.1-0.1,0.2-0.1,0.2-0.2
		c0.5-0.5-0.1,0.8-0.4,0.8c0,0-0.1,0-0.1-0.1c-1.4,2.5-3.1,4.8-4.9,7.1c0.5,0.3-0.2,0.9-0.1,0.1c-0.9,1.2-1.9,2.3-3,3.4l-7.2-12.4
		c-0.2,0.2-0.5,0.3-0.6,0.4c-0.1-0.5,0.1-0.7,0.3-0.8l-1-1.7c-0.1-0.1-0.1-0.2-0.1-0.2l-1.9-3.4c-0.1,0.3-0.6,0.1-0.6,0.5
		c-0.3-0.1-0.4-0.5-0.4-0.8c0.5-0.1,0.5,0.3,1,0.2l-0.3-0.5c0,0-0.1,0-0.1-0.1l-1.9-3.2c-0.1,0.2-0.4,0.3-0.2-0.2c0.1,0,0.1,0,0.1,0
		l-0.3-0.5h-4.2l3.8,6.6c0.1,0,0.2,0.1,0.3,0.2c0,0.1-0.1,0.1-0.1,0.1l0.6,1c0-0.3,0.6-0.8,0.8-1.1c0.6,0.6-1,0.6-0.2,1.5
		c-0.2,0-0.4-0.1-0.5-0.1l3.3,5.7c0.1-0.1,0.3-0.1,0.5-0.1c0,0.2,0,0.4,0,0.6c-0.2-0.2-0.3-0.2-0.3-0.2l0.4,0.7c0.1,0,0.2,0,0.4,0
		c0,0.2-0.1,0.3-0.2,0.3l1.7,2.9l0,0l0,0l2.2,3.8c0.1,0,0.2,0,0.3,0c0,0.1,0,0.3,0,0.4h-0.1l1.9,3.2c-1.5,1.4-3.1,2.8-4.8,4.1
		l-9-7.6c0,0.1,0,0.2,0,0.3c-0.3,0-0.4-0.3-0.4-0.7l-9.7-8.1c0,0.1,0,0.2,0,0.4c-0.3-0.2-0.3-0.4-0.2-0.6l-0.5-0.4
		c-0.1,0.3-0.4,0.7-0.3,1c-0.2-0.1-0.3-0.2-0.6-0.2c0.4-0.2,0.5-0.7,0.8-1l-9.5-8c1.4-0.4,2.8-0.9,4.1-1.5l-0.6,3.5l1.2,1l0.1-0.1
		c0.3,0.1,0.2,0.3,0.1,0.3l1.8,1.5l1.5-8.7c0.5-0.4,0.9-0.7,1.4-1.2c-0.1-0.1-0.6-0.6-0.1-0.2c0.1,0.1,0.1,0.1,0.1,0.2l0,0h15.8
		c0-0.1,0-0.2,0-0.4c0.2,0,0.2-0.1,0.2-0.2c0.3-0.1,0.3,0.4,0.2,0.6h12.3c0-0.2,0-0.4,0-0.6c0.1,0,0.3,0,0.4,0
		c0.1,0.4,0,0.6-0.3,0.6h6l0,0h6.3c-1.1,3.6-2.5,7.1-4.3,10.4C148.4,119.4,148.1,119.8,148,119.4z M135.8,133.1
		C136.3,133.9,135.1,132.6,135.8,133.1L135.8,133.1z M135.2,129.1c0.6-0.3-0.4,0.7-0.4,1.1C134.2,129.9,135,129.4,135.2,129.1z
		 M134.5,127.5C134.4,127.6,134.6,127.4,134.5,127.5L134.5,127.5z M135.2,127.2C135.3,127.2,135,127.4,135.2,127.2L135.2,127.2z
		 M132,123.7c0-0.3,0.9-0.9,0-0.8C132.5,122,133.1,123.9,132,123.7z M132,124.7C132.1,124.6,131.9,124.9,132,124.7L132,124.7z
		 M132.6,127.2C133.3,127.3,132.4,128.1,132.6,127.2L132.6,127.2z M132.6,122.6c0-0.1,0-0.3,0-0.4c0.1,0,0.3,0,0.4,0
		c0,0.1,0,0.3,0,0.4C132.9,122.6,132.8,122.6,132.6,122.6z M133.1,128.3C133.8,128.7,132.4,129,133.1,128.3L133.1,128.3z
		 M133.3,123.4C133.9,123.5,133.1,124.3,133.3,123.4L133.3,123.4z M131.8,122C132.4,122.6,131.1,121.4,131.8,122L131.8,122z
		 M131.4,123.9c-0.1-0.2-1.1-0.9-0.2-0.8C131.1,123.4,131.4,123.5,131.4,123.9z M129.9,118.2C130.5,118.2,129.7,119,129.9,118.2
		L129.9,118.2z M129,120.1C129.7,120.1,128.8,120.9,129,120.1L129,120.1z M128.6,120.7C129.3,120.7,128.4,121.6,128.6,120.7
		L128.6,120.7z M127.8,117.1c0-0.1,0-0.3,0-0.4c0.1,0,0.3,0,0.4,0c0,0.1,0,0.3,0,0.4C128.1,117.1,127.9,117.1,127.8,117.1z
		 M127.8,119.4C128.4,119.5,127.6,120.3,127.8,119.4L127.8,119.4z M128.4,114.6C128.2,115.5,127.3,114.6,128.4,114.6L128.4,114.6z
		 M126.1,111.4C126.7,111.5,125.9,112.3,126.1,111.4L126.1,111.4z M126.3,113.7C126.9,114,126.1,114.9,126.3,113.7L126.3,113.7z
		 M127.1,115.4c-0.2,0.2-1.2,0.6-1.3,0.2C125.8,114.8,126.5,115.7,127.1,115.4z M125.7,112.3C125.8,112.2,125.5,112.4,125.7,112.3
		L125.7,112.3z M125.5,115.4c-0.3-0.1-0.2-0.5-0.2-0.8C125.7,114.6,125.7,115.2,125.5,115.4z M125,112.5
		C124.9,112.6,125.1,112.4,125,112.5L125,112.5z M124,110.8C124.1,110.7,123.8,110.9,124,110.8L124,110.8z M114.9,105.5
		C115.5,105.6,114.7,106.4,114.9,105.5L114.9,105.5z M117.4,105.3C118.3,105.8,116.7,105.6,117.4,105.3L117.4,105.3z M119.8,105.7
		C119.6,105.9,119.9,105.6,119.8,105.7L119.8,105.7z M121,107C121.7,107,120.8,107.9,121,107L121,107z M123.6,108.3
		C123.7,108.2,123.4,108.4,123.6,108.3L123.6,108.3z M124.2,105.1C124.3,105,124.1,105.2,124.2,105.1L124.2,105.1z M124.6,108.3
		C124.7,108.2,124.5,108.4,124.6,108.3L124.6,108.3z M125,107.8c0-0.3,0-0.6,0-0.8c0.4,0.2,0.8,0.5,0.4,0.8
		C125.3,107.8,125.2,107.8,125,107.8z M128,105.1c0.1,0.4-0.1,0.6-0.2,0.8C127.4,106,127.4,104.8,128,105.1z M128.4,105.9
		C129.2,106.6,127.8,106.7,128.4,105.9L128.4,105.9z M129.3,107.2c0.9,0.4-0.3,0.6,0.2,1.3c-0.2-0.1-0.3-0.2-0.6-0.2
		C128.7,107.6,129.4,107.9,129.3,107.2z M129.2,105.2c0,0.1,0.1,0.2,0.2,0.3c0-0.1-0.1-0.1-0.1-0.2
		C129.2,105.3,129.2,105.2,129.2,105.2z M131.2,105.7C131.2,105.6,131,105.9,131.2,105.7L131.2,105.7z M131.2,105.1
		C131.2,105,131,105.2,131.2,105.1L131.2,105.1z M133.3,108C133.9,108.1,133.1,108.9,133.3,108L133.3,108z M134.1,106.6
		c0.1,0.4-0.1,0.6-0.2,0.8C133.3,107.4,133.4,106.4,134.1,106.6z M134.5,105.7C135.2,106,133.7,106.3,134.5,105.7L134.5,105.7z
		 M134.5,108.3C134.4,108.4,134.6,108.2,134.5,108.3L134.5,108.3z M135.2,106.2C135.3,106.1,135,106.3,135.2,106.2L135.2,106.2z
		 M135.4,105.3C136,105.3,135.2,106.2,135.4,105.3L135.4,105.3z M138.5,106.8c0.1,0.3-0.2,0.4-0.2,0.6
		C137.9,107.5,138,106.5,138.5,106.8z M138.5,105.9C139.2,106,138.3,106.8,138.5,105.9L138.5,105.9z M139.4,107.8
		c-0.4-0.1-0.5-0.4-0.4-0.8C139.6,106.8,139.3,107.5,139.4,107.8z M140.4,107.4C140.5,107.3,140.3,107.6,140.4,107.4L140.4,107.4z
		 M140.4,105.3C140.5,105.2,140.3,105.4,140.4,105.3L140.4,105.3z M142.1,106.2C142.2,106.1,142,106.3,142.1,106.2L142.1,106.2z
		 M142.8,107.8c0.3,0.1,0.4,0.3,0.4,0.6C142.7,108.6,142.8,108.2,142.8,107.8z M143.8,108.5C143.1,108,144.6,107.6,143.8,108.5
		L143.8,108.5z M144.7,105.3c0.7,0.4-0.3,0.9-0.2,1.5C143.9,106.5,144.4,105.5,144.7,105.3z M145.5,107.6c0.1,0.4-0.1,0.6-0.2,0.8
		C144.7,108.4,144.9,107.6,145.5,107.6z M146.3,107.5c0,0-0.1,0-0.2-0.1C145.3,106.9,146.2,107.5,146.3,107.5z M147.4,106.8
		c0.4-0.5,0,0.4,0,0.6c-0.6,0.2-0.4-0.4-0.8-0.4C146.6,106.3,147.3,107.5,147.4,106.8z M146.8,105.9
		C146.6,106.1,146.9,105.9,146.8,105.9L146.8,105.9z M147.8,105.3C147.9,105.2,147.7,105.4,147.8,105.3L147.8,105.3z M148,108.3
		C148.1,108.2,147.9,108.4,148,108.3L148,108.3z M148.7,106.6C148.8,106.5,148.5,106.7,148.7,106.6L148.7,106.6z M149.9,116.5
		C150,116.4,149.8,116.6,149.9,116.5L149.9,116.5z M150.6,115.6C151.1,116.3,149.9,115.1,150.6,115.6L150.6,115.6z M151.4,113.5
		C151.5,113.4,151.3,113.7,151.4,113.5L151.4,113.5z M151.6,114.6C151.5,114.7,151.7,114.5,151.6,114.6L151.6,114.6z M151.8,110.6
		c0.2-0.2,0.1-0.8,0.6-0.6C152.2,110.1,152.4,110.7,151.8,110.6z M152.7,110.6C152.8,110.1,152.3,111.9,152.7,110.6L152.7,110.6z
		 M152.7,105.3C152.8,105.2,152.5,105.4,152.7,105.3L152.7,105.3z M153.4,105.1H143c0,0.2-0.3,0.4-0.3,0h-6.2h-0.1l-21.7-0.1
		c0.8-1.2,1.6-2.4,2.2-3.8l1.3,2.2c0.1,0,0.3-0.1,0.2-0.4c0.3,0,0.2,0.5,0,0.7l0.4,0.7h2.1c0-0.1,0-0.2,0-0.3c0.1-0.3,0.2,0,0.2,0.3
		h0.6c-0.1-0.4,0.3-0.6,0.3,0h0.9l-4.5-7.7c0.1-0.6,0.2-1.2,0.3-1.8l7.8-6.5c0-0.1,0-0.2,0-0.4c0.1,0,0.2,0.1,0.2,0.2l1.7-1.4l0,0
		l0,0l1.4-1.2c-0.1-0.1-0.2-0.4-0.2-0.7c0.5-0.2,0.4,0.2,0.4,0.5l20-16.7c0.3,0.7,0.6,1.4,0.9,2.1l0,0c0.3,0,0.3,0.3,0.1,0.4
		c2.1,5.4,3.3,11.2,3.7,17.2l0,0l0,0c0,0.5,0,1,0.1,1.5c0.1,0,0.1,0,0.1,0c0,0.3,0,0.5-0.1,0.7c0,0.5,0,1,0,1.5c0,0.3,0,0.5,0,0.8
		c0.1,0,0.2,0,0.3,0c0.2,0.3-0.1,0.5-0.3,0.5c0,0.7,0,1.4-0.1,2.1l-1.9-0.7c0,0.3-0.1,0.6-0.4,0.3c0,0,0.1-0.2,0.2-0.4l-7.7-2.8
		c0,0.2-0.3,0.3-0.2-0.1l-2.8-1c0,0.1-0.1,0.2-0.1,0.3c-0.2-0.1-0.2-0.3-0.2-0.4L130,86.2l-3.2,2.7l12.3,4.4c0-0.1,0-0.1,0-0.3
		c0.3,0,0.3,0.3,0.1,0.4l9.5,3.4l0,0l0,0l5.6,2C154.2,101,153.9,103.1,153.4,105.1z M118.5,100.9c0-0.5,0.3-0.7,0.4-1.1
		C119.7,100,119,100.8,118.5,100.9z M118.9,103C119,102.9,118.8,103.1,118.9,103L118.9,103z M119.3,103.4
		C119.4,103.3,119.2,103.5,119.3,103.4L119.3,103.4z M119.6,104C119.4,104.2,119.6,104,119.6,104L119.6,104z M119.8,99.8
		C120.4,99.9,119.6,100.7,119.8,99.8L119.8,99.8z M154.9,98.4c0-0.1-0.1-0.2-0.2-0.3l-0.1-0.1c0,0,0,0.1,0.1,0.1l0,0
		C154.9,98.3,154.9,98.4,154.9,98.4z M152.7,97.3c0-0.2,0-0.4,0-0.6c0.1,0,0.3,0,0.4,0C153.2,97.1,153,97.3,152.7,97.3z M152,95.8
		C151.6,96.7,150.7,95.8,152,95.8L152,95.8z M151.8,94.1c-0.1,0.2-0.4,0.1-0.4,0.4C150.8,94.5,151.4,93.9,151.8,94.1z M149.9,95.4
		c0.3-0.1,0.4,0.2,0.6,0.2C150.6,96,149.6,95.9,149.9,95.4z M149.9,94.3C150.6,94.4,149.7,95.2,149.9,94.3L149.9,94.3z M148.7,95.2
		c-0.4,0.1-0.8-1.3,0-1.1C148.3,94.5,148.8,94.5,148.7,95.2z M146.6,95.2C146.4,95.3,146.6,95.1,146.6,95.2L146.6,95.2z M145.7,93.7
		c-0.2-0.2-0.2-0.5-0.2-0.8c0.4-0.1,0.4,0.2,0.4,0.4c0.2-0.1,0.3-0.2,0.6-0.2C146.6,93.6,146.1,93.6,145.7,93.7z M146.6,92.2
		C147.3,92.9,145.9,92.9,146.6,92.2L146.6,92.2z M145.1,94.3C145.9,95,144.4,95,145.1,94.3L145.1,94.3z M144.7,94.1
		c0,0.1,0,0.3,0,0.4c-0.1,0-0.3,0-0.4,0c0-0.1,0-0.3,0-0.4C144.4,94.1,144.5,94.1,144.7,94.1z M144.4,92.4
		C144.5,92.4,144.3,92.6,144.4,92.4L144.4,92.4z M143.6,92.7c-0.4-0.1-0.1-0.9-0.6-0.8C143.3,91.2,144.2,92.3,143.6,92.7z
		 M141.9,92.7C142.7,93.2,141.2,93,141.9,92.7L141.9,92.7z M136.4,89.7C136.5,89.6,136.3,89.8,136.4,89.7L136.4,89.7z M135.4,89.7
		C136,89.9,135.1,90.8,135.4,89.7L135.4,89.7z M134.7,90.8C134.6,90.9,134.8,90.7,134.7,90.8L134.7,90.8z M134.3,91
		C134.8,91.7,133.6,90.5,134.3,91L134.3,91z M133.7,87.8C134.2,88.5,133,87.3,133.7,87.8L133.7,87.8z M133.1,90.5
		C132.9,90.7,133.1,90.5,133.1,90.5L133.1,90.5z M131.6,89.3C132.4,89.8,130.9,89.6,131.6,89.3L131.6,89.3z M129.5,87.6
		C129.6,87.5,129.3,87.7,129.5,87.6L129.5,87.6z M156,107.8C156.1,107.7,155.9,108,156,107.8L156,107.8z M156.7,107.8
		c0.5,0,0.7,0.2,0.6,0.6C156.9,108.5,156.6,108.3,156.7,107.8z M157.5,108C158.2,108.1,157.3,108.9,157.5,108L157.5,108z M158.2,108
		C158.2,108,158,108.2,158.2,108L158.2,108z M160.3,106.2C160.4,106.1,160.1,106.3,160.3,106.2L160.3,106.2z M162.2,107.4
		C162.3,107.3,162,107.6,162.2,107.4L162.2,107.4z M164.3,108C164.4,108,164.1,108.2,164.3,108L164.3,108z M164.9,107.6
		C164.8,107.8,165,107.5,164.9,107.6L164.9,107.6z M167.2,106.2c0.5,0,0.7,0.2,0.6,0.6C167.4,106.8,167.2,106.6,167.2,106.2z
		 M168.3,105.7C168.9,105.8,168.1,106.6,168.3,105.7L168.3,105.7z M168.9,107C168.3,107.8,168.2,106.4,168.9,107L168.9,107z
		 M168.7,105.1H166c-0.1,0.1-0.3,0.3-0.3,0h-10.9c0.1-0.4,0.2-0.8,0.2-1.2c0,0,0,0.1-0.1,0.1c-0.6-0.5,0-0.6,0.1-0.4
		c0.1-0.7,0.3-1.4,0.4-2.1c-0.2,0.4-0.6-0.4-0.9-0.5c0.3-0.7,0.5,0.3,1,0.2c0.1-0.5,0.2-1,0.2-1.6c-0.1,0.1-0.3,0.1-0.2-0.3
		c0.1,0,0.2,0,0.2,0.1v-0.1l1,0.4c-0.4-0.4,0.7-0.7,0.1,0l1.7,0.6c0-0.1-0.1-0.1-0.1-0.2c0.3-0.1,0.4,0.1,0.5,0.3l6.3,2.3
		c-0.2-0.3,0.4-0.7,0.4-0.9c0.4-0.5,0,0.6-0.2,1l2.9,1.1c0-0.4,0.2-0.6,0.6-0.6c0,0.4-0.1,0.6-0.4,0.6l0.8,0.3
		c0.1-0.1,0.2-0.2,0.3-0.3c0.1,0.1,0.1,0.3,0.1,0.4l1.9,0.7h-2.4c-0.1,0.2-0.2,0.4-0.3,0.6C168.7,105.6,168.6,105.4,168.7,105.1z"/>
	<path class="st0" d="M118.4,146.2c-0.1,0-0.2,0.1-0.2,0.1C118.3,146.2,118.4,146.2,118.4,146.2z"/>
	<path class="st0" d="M89.5,130l-0.1-0.7C89.4,129.6,89.3,129.9,89.5,130z"/>
	<path class="st0" d="M117.3,48.9l-0.3,1.5C117.2,50,117.4,49.5,117.3,48.9z"/>
</g>
</svg>
